<?xml version="1.0" standalone="no"?>
<!DOCTYPE svg PUBLIC "-//W3C//DTD SVG 1.1//EN" "http://www.w3.org/Graphics/SVG/1.1/DTD/svg11.dtd" >
<svg xmlns="http://www.w3.org/2000/svg">
<metadata></metadata>
<defs>
<font id="humnst777_lt_btlight" horiz-adv-x="1147" >
<font-face units-per-em="2048" ascent="1556" descent="-492" />
<missing-glyph horiz-adv-x="573" />
<glyph horiz-adv-x="2048" />
<glyph horiz-adv-x="2048" />
<glyph unicode="&#xd;" horiz-adv-x="573" />
<glyph unicode=" "  horiz-adv-x="573" />
<glyph unicode="&#x09;" horiz-adv-x="573" />
<glyph unicode="&#xa0;" horiz-adv-x="573" />
<glyph unicode="!" horiz-adv-x="801" d="M317 0v180h166v-180h-166zM322 1421h157l-24 -1067h-107z" />
<glyph unicode="&#x22;" horiz-adv-x="551" d="M100 881v553h86v-553h-86zM365 881v553h86v-553h-86z" />
<glyph unicode="#" horiz-adv-x="1575" d="M129 494l31 90h336l100 282h-360l28 90h365l176 498h110l-174 -498h271l176 498h110l-174 -498h322l-31 -90h-323l-101 -282h348l-30 -90h-351l-174 -494h-112l176 494h-270l-179 -494h-110l174 494h-334zM610 584h269l100 282h-270z" />
<glyph unicode="$" d="M197 1087q0 133 86.5 219t246.5 113v193h95v-187q73 0 148.5 -11.5t154.5 -35.5l-19 -131q-61 31 -132.5 48t-151.5 20v-508q197 -97 282.5 -194.5t85.5 -223.5q0 -148 -99.5 -253t-268.5 -132v-176h-95v172h-26q-76 0 -152.5 16t-152.5 47l16 146q73 -44 153.5 -67 t161.5 -23v583q-170 80 -251.5 174.5t-81.5 210.5zM340 1092q0 -73 46.5 -131.5t143.5 -108.5v457q-93 -26 -141.5 -81.5t-48.5 -135.5zM625 127q104 27 164.5 94t60.5 154q0 85 -54.5 152.5t-170.5 127.5v-528z" />
<glyph unicode="%" horiz-adv-x="1716" d="M78 1073q0 172 87 272.5t234 100.5t233.5 -101t86.5 -272t-86.5 -272t-233.5 -101t-234 101t-87 272zM207 1075q0 -121 54 -195.5t140 -74.5q88 0 141.5 74t53.5 196q0 123 -53.5 197t-141.5 74q-86 0 -140 -75t-54 -196zM434 -25l756 1471h110l-755 -1471h-111z M1014 348q0 172 87 273.5t234 101.5q146 0 233 -101.5t87 -273.5q0 -171 -86.5 -272t-233.5 -101t-234 101t-87 272zM1141 350q0 -121 54.5 -195.5t141.5 -74.5t140 73.5t53 196.5q0 124 -53 198.5t-140 74.5q-86 0 -141 -76t-55 -197z" />
<glyph unicode="&#x26;" horiz-adv-x="1366" d="M115 371q0 140 83 246t244 171q-92 99 -134 181.5t-42 163.5q0 136 100 223.5t257 87.5q159 0 254.5 -82.5t95.5 -218.5q0 -115 -84 -211t-250 -170l362 -402q56 81 89 187.5t40 232.5h123q-6 -140 -49 -269t-123 -243l244 -268h-178l-143 166q-92 -96 -199.5 -143.5 t-235.5 -47.5q-202 0 -328 110.5t-126 285.5zM252 379q0 -126 93 -208.5t239 -82.5q100 0 185 41.5t155 124.5l-406 455q-125 -53 -195.5 -140.5t-70.5 -189.5zM397 1124q0 -63 38.5 -127.5t131.5 -154.5q139 58 208 130t69 158q0 87 -62.5 143t-158.5 56 q-99 0 -162.5 -57.5t-63.5 -147.5z" />
<glyph unicode="'" horiz-adv-x="285" d="M100 881v553h86v-553h-86z" />
<glyph unicode="(" horiz-adv-x="612" d="M131 637q0 206 81 431t247 478h106q-154 -262 -225.5 -481.5t-71.5 -427.5t71.5 -426t225.5 -481h-106q-167 254 -247.5 477.5t-80.5 429.5z" />
<glyph unicode=")" horiz-adv-x="612" d="M47 -270q155 263 226 481t71 426t-71.5 427.5t-225.5 481.5h107q164 -251 244.5 -476.5t80.5 -432.5t-80 -431t-245 -476h-107z" />
<glyph unicode="*" horiz-adv-x="1024" d="M129 1176l45 143l299 -137l-27 329h129l-26 -329l301 137l45 -143l-322 -68l224 -244l-123 -90l-162 289l-164 -289l-123 90l224 244z" />
<glyph unicode="+" horiz-adv-x="1706" d="M254 569v82h559v570h80v-570h559v-82h-559v-569h-80v569h-559z" />
<glyph unicode="," horiz-adv-x="573" d="M117 -266l125 444h157l-153 -444h-129z" />
<glyph unicode="-" horiz-adv-x="692" d="M96 492v112h498v-112h-498z" />
<glyph unicode="." horiz-adv-x="573" d="M203 0v180h166v-180h-166z" />
<glyph unicode="/" horiz-adv-x="569" d="M-113 -190l615 1636h116l-614 -1636h-117z" />
<glyph unicode="0" d="M113 711q0 359 118 547t342 188q225 0 343 -188t118 -547q0 -358 -118.5 -547t-342.5 -189q-225 0 -342.5 188t-117.5 548zM256 713q0 -304 81 -461.5t236 -157.5q156 0 238 158.5t82 460.5t-82 461t-238 159q-155 0 -236 -158.5t-81 -461.5z" />
<glyph unicode="1" d="M246 1147l315 274h115v-1421h-129v1270l-223 -209z" />
<glyph unicode="2" d="M121 0v125q390 413 525.5 611.5t135.5 332.5q0 108 -74.5 176t-195.5 68q-84 0 -165 -26.5t-152 -76.5l-27 138q99 46 190 69t177 23q180 0 284.5 -98.5t104.5 -268.5q0 -154 -128 -349.5t-517 -598.5h682v-125h-840z" />
<glyph unicode="3" d="M98 45l23 143q65 -38 140 -56.5t161 -18.5q179 0 288 83t109 218q0 127 -98 198.5t-275 71.5h-143v119l154 2q168 3 263 74t95 192q0 105 -89.5 173.5t-229.5 68.5q-78 0 -159 -18.5t-157 -53.5l-8 131q96 30 176 45t146 15q210 0 334 -98.5t124 -262.5 q0 -121 -82 -207.5t-225 -113.5q149 -22 234.5 -113t85.5 -229q0 -188 -141.5 -304t-374.5 -116q-103 0 -190.5 14t-160.5 43z" />
<glyph unicode="4" d="M57 336v135l641 950h172v-966h213v-119h-213v-336h-127v336h-686zM186 455h557v827z" />
<glyph unicode="5" d="M184 178q65 -37 141.5 -56.5t163.5 -19.5q169 0 273 96.5t104 252.5q0 147 -93.5 231t-258.5 84q-58 0 -130 -11t-183 -38l12 704h731v-112h-600l-8 -450q60 12 111.5 19t93.5 7q221 0 345 -114.5t124 -317.5q0 -216 -141.5 -342.5t-385.5 -126.5q-82 0 -156 12.5 t-141 38.5z" />
<glyph unicode="6" d="M137 631q0 388 154 597.5t440 209.5q66 0 133.5 -10.5t136.5 -30.5l-10 -123q-56 26 -116 39.5t-123 13.5q-227 0 -352.5 -163t-131.5 -468q51 96 145 150.5t208 54.5q201 0 317.5 -122t116.5 -335q0 -204 -126 -336.5t-323 -132.5q-229 0 -349 168t-120 488zM297 444 q0 -153 85 -250.5t218 -97.5q140 0 227.5 95t87.5 247q0 156 -84 251t-221 95q-138 0 -225.5 -94.5t-87.5 -245.5z" />
<glyph unicode="7" d="M125 1303v118h860v-125l-559 -1296h-150l566 1303h-717z" />
<glyph unicode="8" d="M102 373q0 133 85 224.5t259 143.5q-143 63 -215.5 155.5t-72.5 213.5q0 148 119 241t311 93q186 0 299.5 -90.5t113.5 -237.5q0 -112 -78 -207.5t-227 -165.5q175 -56 261.5 -150t86.5 -226q0 -172 -132 -282t-341 -110q-208 0 -338.5 111.5t-130.5 286.5zM244 371 q0 -118 92.5 -196.5t232.5 -78.5q141 0 233.5 76.5t92.5 189.5q0 103 -83 182t-261 146q-155 -57 -231 -136.5t-76 -182.5zM293 1100q0 -95 67 -167.5t228 -148.5q131 72 200.5 157t69.5 173q0 97 -75 159t-193 62q-131 0 -214 -66.5t-83 -168.5z" />
<glyph unicode="9" d="M123 967q0 214 123.5 346.5t322.5 132.5q230 0 350.5 -168t120.5 -487q0 -388 -154 -596.5t-440 -208.5q-70 0 -138 9.5t-132 29.5l10 125q56 -27 113 -40.5t113 -13.5q238 0 364 159.5t133 471.5q-50 -96 -143.5 -150.5t-208.5 -54.5q-198 0 -316 121t-118 324zM262 967 q0 -145 85.5 -236.5t219.5 -91.5q143 0 228.5 95.5t85.5 256.5q0 150 -84 243t-217 93q-136 0 -227 -103t-91 -257z" />
<glyph unicode=":" horiz-adv-x="573" d="M203 0v180h166v-180h-166zM203 848v180h166v-180h-166z" />
<glyph unicode=";" horiz-adv-x="573" d="M102 -266l125 444h160l-156 -444h-129zM223 840v180h166v-180h-166z" />
<glyph unicode="&#x3c;" horiz-adv-x="1706" d="M264 580v61l1178 483v-90l-1045 -424l1045 -424v-88z" />
<glyph unicode="=" horiz-adv-x="1706" d="M254 387v82h1198v-82h-1198zM254 752v79h1198v-79h-1198z" />
<glyph unicode="&#x3e;" horiz-adv-x="1706" d="M264 98v88l1045 424l-1045 424v90l1178 -483v-61z" />
<glyph unicode="?" horiz-adv-x="1020" d="M152 1257v127q70 26 136 39t128 13q193 0 301 -93t108 -258q0 -154 -210 -407q-37 -44 -56 -68q-39 -48 -58.5 -104.5t-19.5 -120.5q0 -6 1 -18.5t1 -18.5h-120q-2 10 -2.5 20.5t-0.5 30.5q0 80 22.5 142t82.5 139q22 28 65 79q164 197 164 320q0 110 -77.5 176 t-208.5 66q-55 0 -118.5 -16t-137.5 -48zM340 0v180h166v-180h-166z" />
<glyph unicode="@" horiz-adv-x="2048" d="M121 522q0 162 50.5 307t147.5 265q144 175 345.5 265.5t449.5 90.5q160 0 304.5 -44t248.5 -124q128 -98 194 -226.5t66 -277.5q0 -169 -63 -308t-181 -232q-67 -54 -145.5 -82.5t-159.5 -28.5q-95 0 -143.5 36.5t-48.5 108.5q0 12 3 34q1 3 1 5q-49 -88 -125 -136 t-166 -48q-154 0 -233.5 83t-79.5 243q0 228 134.5 386t326.5 158q95 0 160 -43t96 -127l61 129h80l-137 -553q-10 -36 -15.5 -64.5t-5.5 -43.5q0 -44 30.5 -68t86.5 -24q48 0 100 19.5t103 56.5q101 74 162 207t61 282q0 273 -199.5 439.5t-525.5 166.5q-168 0 -310.5 -48 t-258.5 -144q-154 -128 -232 -297t-78 -375q0 -327 221.5 -522t591.5 -195q161 0 324 50.5t299 142.5l29 -45q-146 -110 -308.5 -165t-339.5 -55q-187 0 -343 46.5t-277 138.5q-152 115 -226.5 267.5t-74.5 348.5zM690 446q0 -115 57.5 -180t159.5 -65q111 0 196 72.5 t116 193.5l63 254q-22 99 -81.5 151t-151.5 52q-152 0 -255.5 -138t-103.5 -340z" />
<glyph unicode="A" horiz-adv-x="1319" d="M25 0l577 1421h162l563 -1421h-143l-150 387h-725l-149 -387h-135zM362 506h625l-307 797z" />
<glyph unicode="B" horiz-adv-x="1110" d="M190 0v1421h308q220 0 345.5 -93t125.5 -255q0 -122 -67 -204t-195 -115q150 -39 226.5 -131t76.5 -236q0 -178 -133 -282.5t-365 -104.5h-322zM322 123h151q189 0 292 72.5t103 203.5q0 142 -91.5 212.5t-274.5 70.5h-180v-559zM322 801h159q166 0 256 66.5t90 189.5 q0 119 -85.5 183.5t-243.5 64.5h-176v-504z" />
<glyph unicode="C" horiz-adv-x="1194" d="M109 700q0 332 200 528.5t537 196.5q90 0 167.5 -12t139.5 -37v-129q-84 32 -160 47t-149 15q-277 0 -434.5 -162.5t-157.5 -448.5q0 -271 157.5 -426t434.5 -155q82 0 156.5 14t144.5 43v-133q-66 -23 -146 -34t-180 -11q-325 0 -517.5 191t-192.5 513z" />
<glyph unicode="D" horiz-adv-x="1346" d="M190 0v1421h271q384 0 583 -179t199 -523q0 -338 -203.5 -528.5t-566.5 -190.5h-283zM322 123h161q293 0 455 155.5t162 436.5q0 290 -153.5 440t-452.5 150h-172v-1182z" />
<glyph unicode="E" horiz-adv-x="1038" d="M190 0v1421h693v-112h-561v-512h530v-119h-530v-555h573v-123h-705z" />
<glyph unicode="F" horiz-adv-x="915" d="M190 0v1421h662v-112h-530v-512h507v-119h-507v-678h-132z" />
<glyph unicode="G" horiz-adv-x="1407" d="M111 713q0 123 33.5 232.5t103.5 209.5q87 127 243 199.5t343 72.5q103 0 197.5 -17t182.5 -52l-26 -123q-80 39 -167.5 58.5t-184.5 19.5q-266 0 -424 -162t-158 -434q0 -280 164.5 -445.5t443.5 -165.5q75 0 140 13t122 39v491h-325v115h458v-694q-94 -38 -195.5 -57 t-211.5 -19q-143 0 -256.5 33t-206.5 102q-134 99 -205 249t-71 335z" />
<glyph unicode="H" horiz-adv-x="1366" d="M190 0v1421h132v-622h722v622h132v-1421h-132v680h-722v-680h-132z" />
<glyph unicode="I" horiz-adv-x="512" d="M190 0v1421h132v-1421h-132z" />
<glyph unicode="J" horiz-adv-x="668" d="M4 10v125q36 -12 63.5 -17t53.5 -5q121 0 174 84.5t53 283.5v940h131v-962q0 -243 -80 -354t-254 -111q-33 0 -68.5 4t-72.5 12z" />
<glyph unicode="K" horiz-adv-x="1139" d="M190 2v1419h132v-628l645 628h170l-684 -667l737 -752h-178l-690 705v-705h-132z" />
<glyph unicode="L" horiz-adv-x="887" d="M190 0v1421h132v-1298h567v-123h-699z" />
<glyph unicode="M" horiz-adv-x="1819" d="M190 0v1421h199l479 -1169q11 -25 19 -55.5t14 -69.5q3 31 10 60t19 57l504 1177h194v-1421h-123v1198q0 3 -1 16t-1 25q0 20 2.5 40.5t7.5 43.5q-24 -52 -42 -100q-2 -5 -3 -6l-514 -1217h-114l-506 1217q-5 11 -23 71q-6 22 -10 35q3 -36 7.5 -77.5t4.5 -47.5v-1198 h-123z" />
<glyph unicode="N" horiz-adv-x="1397" d="M190 0v1421h168l695 -1192q7 -11 18 -36t25 -62q-6 38 -9.5 70t-3.5 57v1163h123v-1421h-159l-705 1202q-12 21 -22 46t-19 59q6 -49 9 -81.5t3 -43.5v-1182h-123z" />
<glyph unicode="O" horiz-adv-x="1470" d="M111 711q0 337 169 536t455 199q285 0 454 -198.5t169 -536.5t-169 -537t-454 -199q-286 0 -455 199.5t-169 536.5zM254 713q0 -281 131 -449t350 -168t350.5 168t131.5 449t-131.5 448.5t-350.5 167.5t-350 -167.5t-131 -448.5z" />
<glyph unicode="P" horiz-adv-x="1014" d="M190 0v1421h297q235 0 358.5 -102t123.5 -297q0 -194 -133 -303t-373 -109h-141v-610h-132zM322 729h141q173 0 267.5 77t94.5 218q0 132 -86 206.5t-239 74.5h-178v-576z" />
<glyph unicode="Q" horiz-adv-x="1470" d="M111 711q0 337 169 536t455 199q285 0 454 -198.5t169 -536.5q0 -255 -96.5 -428t-286.5 -263l315 -294h-180l-272 257q-15 -1 -40 -3q-48 -5 -63 -5q-286 0 -455 199t-169 537zM254 713q0 -281 131 -449t350 -168t350.5 168t131.5 449t-131.5 448.5t-350.5 167.5 t-350 -167.5t-131 -448.5z" />
<glyph unicode="R" horiz-adv-x="1104" d="M190 0v1421h316q229 0 347 -91.5t118 -270.5q0 -133 -84 -223.5t-238 -122.5q63 -14 105 -54.5t84 -134.5l233 -524h-147l-211 494q-39 88 -95 124.5t-157 36.5h-139v-655h-132zM322 774h163q161 0 251.5 75t90.5 208q0 124 -83 185t-252 61h-170v-529z" />
<glyph unicode="S" horiz-adv-x="1020" d="M129 1085q0 164 117.5 255.5t331.5 91.5q65 0 131.5 -12t138.5 -36l-19 -133q-60 31 -123 46.5t-131 15.5q-146 0 -228.5 -59t-82.5 -162q0 -130 278 -289q38 -21 58 -33q193 -112 251 -191t58 -192q0 -177 -125.5 -287t-328.5 -110q-83 0 -165 16.5t-159 48.5l16 148 q87 -47 163.5 -69.5t146.5 -22.5q141 0 226 72t85 192q0 144 -270 299q-42 24 -64 37q-186 109 -245.5 188t-59.5 186z" />
<glyph unicode="T" horiz-adv-x="995" d="M16 1298v123h963v-123h-416v-1298h-131v1298h-416z" />
<glyph unicode="U" horiz-adv-x="1389" d="M176 571v850h131v-839q0 -246 93 -367t282 -121q190 0 287.5 129.5t97.5 382.5v815h119v-823q0 -313 -127.5 -468t-384.5 -155q-246 0 -372 151t-126 445z" />
<glyph unicode="V" horiz-adv-x="1241" d="M27 1421h143l455 -1276l475 1276h133l-541 -1421h-141z" />
<glyph unicode="W" horiz-adv-x="1907" d="M25 1421h143l326 -1196q3 -13 9.5 -46.5t12.5 -78.5q0 26 5 53t16 64l340 1204h176l336 -1204q4 -17 10 -48t12 -68q3 33 7 60.5t9 48.5l342 1211h127l-411 -1421h-164l-342 1214q-6 20 -10.5 47.5t-7.5 63.5q-7 -39 -12 -69.5t-7 -41.5l-348 -1214h-168z" />
<glyph unicode="X" horiz-adv-x="1247" d="M18 0l529 743l-477 678h166l397 -581l397 581h152l-477 -676l520 -745h-160l-449 649l-450 -649h-148z" />
<glyph unicode="Y" horiz-adv-x="1139" d="M-25 1421h162l432 -700l445 700h147l-528 -813v-608h-131v604z" />
<glyph unicode="Z" horiz-adv-x="1042" d="M57 0v137l744 1168h-723v116h862v-131l-743 -1167h761v-123h-901z" />
<glyph unicode="[" horiz-adv-x="612" d="M184 -270v1812h301v-92h-188v-1628h188v-92h-301z" />
<glyph unicode="\" horiz-adv-x="569" d="M-49 1446h117l614 -1636h-117z" />
<glyph unicode="]" horiz-adv-x="612" d="M125 -178h188v1628h-188v92h301v-1812h-301v92z" />
<glyph unicode="^" horiz-adv-x="2048" d="M424 901l539 557h118l541 -557h-125l-473 469l-475 -469h-125z" />
<glyph unicode="_" horiz-adv-x="1024" d="M0 -403h1024v-80h-1024v80z" />
<glyph unicode="`" horiz-adv-x="1024" d="M276 1503h152l209 -348h-92z" />
<glyph unicode="a" horiz-adv-x="1022" d="M84 279q0 163 136 253.5t384 90.5h131q0 6 1 17t1 17q0 127 -63.5 199t-175.5 72q-78 0 -150 -21t-143 -65v125q76 37 153.5 56t153.5 19q175 0 262.5 -98t87.5 -293v-651h-114v176q-57 -94 -143.5 -142t-196.5 -48q-147 0 -235.5 80t-88.5 213zM219 287 q0 -88 56.5 -142.5t148.5 -54.5q142 0 226.5 90t84.5 244v94h-143q-180 0 -276.5 -60t-96.5 -171z" />
<glyph unicode="b" horiz-adv-x="1155" d="M180 0v1526h129v-676q52 93 136.5 142.5t191.5 49.5q189 0 303.5 -141t114.5 -377q0 -239 -113 -388.5t-291 -149.5q-117 0 -206 56.5t-146 166.5v-209h-119zM309 512q0 -188 86 -302t226 -114q135 0 216 112t81 304q0 197 -79 310.5t-214 113.5q-149 0 -232.5 -111.5 t-83.5 -312.5z" />
<glyph unicode="c" horiz-adv-x="909" d="M98 512q0 230 143 373t373 143q65 0 123 -9.5t113 -29.5l-10 -129q-50 27 -107 40t-125 13q-164 0 -268 -112t-104 -291q0 -186 98.5 -295t265.5 -109q58 0 118 14t124 42l12 -127q-61 -24 -127 -35.5t-135 -11.5q-223 0 -358.5 143t-135.5 381z" />
<glyph unicode="d" horiz-adv-x="1155" d="M96 524q0 235 115 376.5t305 141.5q107 0 191.5 -49.5t136.5 -142.5v676h129v-1526h-119v209q-57 -110 -146 -166.5t-206 -56.5q-178 0 -292 149.5t-114 388.5zM236 518q0 -197 79 -309.5t215 -112.5q140 0 227 114t87 302q0 199 -84 311.5t-232 112.5 q-134 0 -213 -112.5t-79 -305.5z" />
<glyph unicode="e" horiz-adv-x="991" d="M98 516q0 238 124 383t325 145q182 0 289.5 -130t107.5 -353v-74h-721q6 -194 101 -297.5t268 -103.5q68 0 136.5 18.5t137.5 55.5v-127q-67 -29 -138 -43.5t-148 -14.5q-226 0 -354 143t-128 398zM227 582h592q-11 171 -85 262.5t-202 91.5q-124 0 -207 -95.5 t-98 -258.5z" />
<glyph unicode="f" horiz-adv-x="662" d="M51 915v105h213v184q0 171 72 256.5t215 85.5q21 0 45 -3t59 -11v-119q-33 11 -58 16t-44 5q-84 0 -123 -56t-39 -176v-182h236v-105h-236v-915h-127v915h-213z" />
<glyph unicode="g" horiz-adv-x="1151" d="M106 520q0 240 114 381t306 141q115 0 201.5 -54t136.5 -159v191h117v-911q0 -281 -115 -420.5t-346 -139.5q-88 0 -170.5 15t-154.5 45l10 137q75 -41 153 -61.5t156 -20.5q165 0 256.5 110t91.5 310v133q-57 -108 -144 -164.5t-196 -56.5q-187 0 -301.5 143.5 t-114.5 380.5zM244 524q0 -193 80 -305.5t217 -112.5q139 0 225 113t86 299q0 197 -84 308.5t-231 111.5q-134 0 -213.5 -111t-79.5 -303z" />
<glyph unicode="h" horiz-adv-x="1143" d="M180 0v1526h129v-682q54 99 139 148.5t199 49.5q165 0 251.5 -107.5t86.5 -311.5v-623h-129v592q0 172 -59.5 253t-186.5 81q-141 0 -221 -104.5t-80 -291.5v-530h-129z" />
<glyph unicode="i" horiz-adv-x="465" d="M158 1331v166h147v-166h-147zM168 0v1020h129v-1020h-129z" />
<glyph unicode="j" horiz-adv-x="465" d="M-59 -432l12 110q28 -8 44.5 -11t29.5 -3q79 0 110 56t31 219v1081h129v-1088q0 -205 -58.5 -291.5t-193.5 -86.5q-25 0 -51.5 3.5t-52.5 10.5zM158 1331v166h147v-166h-147z" />
<glyph unicode="k" horiz-adv-x="954" d="M180 0v1526h129v-905l453 399h160l-496 -432l559 -588h-170l-506 535v-535h-129z" />
<glyph unicode="l" horiz-adv-x="465" d="M168 0v1526h129v-1526h-129z" />
<glyph unicode="m" horiz-adv-x="1726" d="M180 0v1020h119v-193q52 104 136 158.5t190 54.5q108 0 183 -57t112 -168q53 108 140 166.5t193 58.5q156 0 236 -105.5t80 -311.5v-623h-129v592q0 171 -51.5 250.5t-161.5 79.5q-135 0 -212 -104t-77 -288v-530h-127v592q0 170 -51.5 250t-161.5 80q-134 0 -211.5 -104 t-77.5 -288v-530h-129z" />
<glyph unicode="n" horiz-adv-x="1143" d="M180 0v1020h119v-193q56 108 142.5 161.5t205.5 53.5q165 0 251.5 -107.5t86.5 -311.5v-623h-129v592q0 172 -59.5 253t-186.5 81q-141 0 -221 -104.5t-80 -291.5v-530h-129z" />
<glyph unicode="o" horiz-adv-x="1143" d="M98 510q0 244 128.5 388t344.5 144q217 0 345 -143.5t128 -388.5t-128.5 -390t-344.5 -145q-215 0 -344 145t-129 390zM236 512q0 -189 93 -305.5t242 -116.5q154 0 246 115t92 307q0 193 -92 307.5t-246 114.5q-150 0 -242.5 -116t-92.5 -306z" />
<glyph unicode="p" horiz-adv-x="1155" d="M180 -428v1448h119v-201q58 108 149 165.5t203 57.5q187 0 298.5 -140t111.5 -378q0 -246 -115 -391t-309 -145q-105 0 -189.5 48t-138.5 138v-602h-129zM309 518q0 -201 83.5 -313.5t232.5 -112.5q134 0 215.5 115t81.5 309q0 196 -78.5 306t-216.5 110 q-143 0 -230.5 -113t-87.5 -301z" />
<glyph unicode="q" horiz-adv-x="1155" d="M94 524q0 238 111.5 378t298.5 140q111 0 200.5 -57t149.5 -166v201h119v-1448h-129v602q-54 -91 -137.5 -138.5t-188.5 -47.5q-194 0 -309 145t-115 391zM231 516q0 -194 81.5 -309t215.5 -115q149 0 232.5 112.5t83.5 313.5q0 188 -87.5 301t-230.5 113 q-138 0 -216.5 -110t-78.5 -306z" />
<glyph unicode="r" horiz-adv-x="682" d="M180 0v1020h119v-215q38 109 114 169t177 60q14 0 29.5 -1.5t35.5 -4.5v-131q-22 5 -39.5 7.5t-31.5 2.5q-129 0 -202 -97t-73 -269v-541h-129z" />
<glyph unicode="s" horiz-adv-x="799" d="M92 37v121q65 -32 130.5 -48t129.5 -16q109 0 176.5 49.5t67.5 126.5q0 65 -39.5 109.5t-196.5 118.5q-156 75 -209 135.5t-53 146.5q0 111 92 181.5t240 70.5q69 0 132 -8.5t120 -26.5v-120q-57 25 -116.5 38t-121.5 13q-96 0 -154.5 -41t-58.5 -107q0 -91 198 -182 q20 -10 29 -14q155 -73 214 -140.5t59 -162.5q0 -134 -100.5 -213.5t-270.5 -79.5q-75 0 -142.5 12t-125.5 37z" />
<glyph unicode="t" horiz-adv-x="688" d="M49 915v105h209v258l129 45v-303h238v-105h-238v-596q0 -124 33 -172.5t112 -48.5q26 0 52.5 6t52.5 16v-115q-32 -10 -64.5 -14.5t-66.5 -4.5q-135 0 -191.5 70t-56.5 241v618h-209z" />
<glyph unicode="u" horiz-adv-x="1143" d="M158 406v614h127v-584q0 -172 59.5 -253t185.5 -81q146 0 223.5 111.5t77.5 321.5v485h130v-1020h-119v201q-56 -108 -142.5 -161.5t-205.5 -53.5q-165 0 -250.5 106.5t-85.5 313.5z" />
<glyph unicode="v" horiz-adv-x="891" d="M33 1020h135l289 -907l299 907h123l-353 -1020h-153z" />
<glyph unicode="w" horiz-adv-x="1575" d="M33 1020h143l240 -828q2 -7 6.5 -25t13.5 -64q7 42 18 82q0 2 1 3l260 832h164l258 -821q3 -10 18 -86l2 -10q5 43 8.5 64t5.5 27l267 826h127l-342 -1020h-146l-274 856q-7 25 -10 43t-5 36q-5 -39 -8 -57t-6 -26l-268 -852h-148z" />
<glyph unicode="x" horiz-adv-x="862" d="M23 0l356 541l-324 479h160l242 -381l250 381h143l-326 -469l359 -551h-156l-281 444l-280 -444h-143z" />
<glyph unicode="y" horiz-adv-x="883" d="M25 1020h137l295 -885l297 885h129l-408 -1172q-55 -157 -124 -224.5t-173 -67.5q-24 0 -50.5 3t-53.5 9l10 115l5 -1q63 -10 79 -10q73 0 122 61t103 226z" />
<glyph unicode="z" horiz-adv-x="934" d="M74 0v113l610 796h-582v111h732v-117l-613 -794h613v-109h-760z" />
<glyph unicode="{" horiz-adv-x="1024" d="M176 485v90q10 -1 20.5 -1.5t28.5 -0.5q139 0 196.5 64.5t57.5 222.5v240q0 227 68.5 302t257.5 75h43v-88h-37q-135 0 -182 -51.5t-47 -213.5v-241q0 -175 -43 -248t-152 -105q109 -32 152 -104t43 -248v-241q0 -162 46.5 -212.5t180.5 -50.5h39v-88h-43 q-189 0 -257.5 74.5t-68.5 300.5v240q0 158 -58 222t-200 64q-7 0 -21.5 -1t-23.5 -1z" />
<glyph unicode="|" horiz-adv-x="1024" d="M467 -483v2048h90v-2048h-90z" />
<glyph unicode="}" horiz-adv-x="1024" d="M176 -326h39q134 0 180.5 50.5t46.5 212.5v241q0 174 43.5 247t153.5 105q-110 32 -153.5 105t-43.5 248v241q0 162 -47 213.5t-182 51.5h-37v88h43q189 0 257.5 -75t68.5 -302v-240q0 -158 58 -222.5t200 -64.5q7 0 21.5 1t23.5 1v-90q-9 0 -23.5 1t-21.5 1 q-142 0 -200 -64t-58 -222v-240q0 -226 -68.5 -300.5t-257.5 -74.5h-43v88z" />
<glyph unicode="~" horiz-adv-x="1706" d="M178 481v92q105 74 201 110t186 36q100 0 271 -61q12 -5 19 -7q8 -3 27 -10q168 -61 261 -61q83 0 175 37.5t212 121.5v-92q-106 -74 -202 -110.5t-185 -36.5q-99 0 -266 61q-16 6 -22 8q-12 4 -33 12q-167 60 -257 60q-83 0 -175 -37.5t-212 -122.5z" />
<glyph unicode="&#xa0;" />
<glyph unicode="&#xa1;" horiz-adv-x="801" d="M317 1241v180h166v-180h-166zM319 0l27 1067h107l24 -1067h-158z" />
<glyph unicode="&#xa2;" d="M190 522q0 237 147 378.5t394 141.5h33l82 250h84l-84 -262q26 -5 85 -26q9 -3 13 -5l-10 -129q-28 16 -59.5 27.5t-65.5 17.5l-250 -776q34 -12 62.5 -18t52.5 -6q70 0 134.5 14t127.5 43l10 -127q-62 -24 -126 -35.5t-134 -11.5q-41 0 -82 5.5t-84 16.5l-88 -280h-86 l100 311q-127 72 -191.5 190.5t-64.5 280.5zM328 520q0 -114 40 -202t117 -144l242 750h-18q-174 0 -277.5 -110.5t-103.5 -293.5z" />
<glyph unicode="&#xa3;" d="M180 0v119h209v598h-184v102h184v35v64q0 265 109 396.5t327 131.5q53 0 109.5 -11t116.5 -32l-21 -125q-53 28 -103 41.5t-100 13.5q-162 0 -235.5 -110.5t-73.5 -358.5v-45h340v-102h-340v-598h498v-119h-836z" />
<glyph unicode="&#xa4;" d="M74 522l20 86h129q-2 31 -3 53t-1 39q0 20 1 44t3 69h-135l21 86h124q41 261 178.5 404t350.5 143q70 0 130.5 -12.5t108.5 -36.5v-129q-66 31 -125 46t-116 15q-154 0 -252.5 -111t-130.5 -319h536l-20 -86h-526q-3 -44 -4 -69t-1 -46q1 -17 1.5 -36.5t3.5 -53.5h489 l-20 -86h-463q26 -213 123 -319.5t264 -106.5q64 0 122.5 14.5t112.5 43.5v-134q-51 -22 -114 -33.5t-142 -11.5q-217 0 -347 140t-163 407h-155z" />
<glyph unicode="&#xa5;" d="M-25 1421h162l432 -700l445 700h147l-340 -522h252v-86h-305l-135 -205h440v-86h-440v-522h-131v522h-439v86h439l-137 205h-302v86h248z" />
<glyph unicode="&#xa6;" horiz-adv-x="1024" d="M467 -350v758h90v-758h-90zM467 674v758h90v-758h-90z" />
<glyph unicode="&#xa7;" horiz-adv-x="1024" d="M131 659q0 98 48 170.5t149 124.5q-53 41 -81 94.5t-28 114.5q0 128 88.5 205.5t235.5 77.5q46 0 90.5 -6t91.5 -19q25 -6 80 -26l18 -6l-30 -109q-60 31 -119.5 46t-118.5 15q-100 0 -153.5 -45.5t-53.5 -130.5q0 -58 35.5 -104t120.5 -94l203 -119q115 -67 171 -143.5 t56 -165.5t-50.5 -162t-146.5 -123q54 -47 80.5 -104t26.5 -123q0 -134 -95.5 -209.5t-265.5 -75.5q-65 0 -141 16t-156 47l31 105q68 -30 136 -45t134 -15q111 0 171.5 46t60.5 129q0 105 -175 216l-42 27l-174 111q-101 65 -149 133t-48 147zM250 696q0 -59 39.5 -115.5 t111.5 -101.5l269 -168q69 46 101 94.5t32 108.5q0 68 -38 121t-128 106l-240 146q-71 -29 -109 -78t-38 -113z" />
<glyph unicode="&#xa8;" horiz-adv-x="1024" d="M281 1231v164h141v-164h-141zM602 1231v164h141v-164h-141z" />
<glyph unicode="&#xa9;" horiz-adv-x="1706" d="M123 721q0 145 56 279t161 241q101 103 232 157t280 54t282.5 -55t237.5 -160q103 -102 157 -235t54 -281q0 -150 -53.5 -280t-157.5 -232q-107 -106 -241.5 -162.5t-278.5 -56.5q-145 0 -277 55.5t-237 161.5q-105 104 -160 236t-55 278zM195 721q0 -130 50 -249.5 t144 -213.5t213.5 -144.5t249.5 -50.5t251.5 51t217.5 146q93 92 141.5 209.5t48.5 251.5q0 133 -49 252.5t-141 212.5q-95 95 -215 144.5t-254 49.5q-133 0 -251.5 -49t-209.5 -141q-95 -97 -145.5 -218t-50.5 -251zM471 725q0 205 107 328t282 123q132 0 222.5 -72 t103.5 -186h-105q-20 81 -79.5 126.5t-147.5 45.5q-126 0 -196 -97.5t-70 -273.5q0 -169 71.5 -267t194.5 -98q91 0 156 52.5t84 140.5h102q-11 -123 -108 -201t-240 -78q-173 0 -275 123.5t-102 333.5z" />
<glyph unicode="&#xaa;" horiz-adv-x="766" d="M63 903q0 115 102.5 178.5t287.5 63.5h98q0 4 1 12t1 12q0 89 -48 139t-132 50q-58 0 -112.5 -15t-106.5 -45v86q57 27 115.5 40.5t115.5 13.5q131 0 196.5 -68.5t65.5 -204.5v-456h-86v122q-43 -65 -108.5 -99t-147.5 -34q-109 0 -175.5 56.5t-66.5 148.5zM164 909 q0 -60 42.5 -98.5t110.5 -38.5q108 0 171 63t63 171v65h-107q-135 0 -207.5 -42t-72.5 -120z" />
<glyph unicode="&#xab;" horiz-adv-x="944" d="M82 530l280 418h121l-274 -418l274 -417h-121zM471 530l281 418h120l-274 -418l274 -417h-120z" />
<glyph unicode="&#xac;" horiz-adv-x="1706" d="M254 774v82h1198v-502h-78v420h-1120z" />
<glyph unicode="&#xad;" horiz-adv-x="692" d="M96 492v112h498v-112h-498z" />
<glyph unicode="&#xae;" horiz-adv-x="1706" d="M123 721q0 145 56 279t161 241q101 103 232 157t280 54t282.5 -55t237.5 -160q103 -102 157 -235t54 -281q0 -150 -53.5 -280t-157.5 -232q-107 -106 -241.5 -162.5t-278.5 -56.5q-145 0 -277 55.5t-237 161.5q-105 104 -160 236t-55 278zM195 721q0 -130 50 -249.5 t144 -213.5t213.5 -144.5t249.5 -50.5t251.5 51t217.5 146q93 92 141.5 209.5t48.5 251.5q0 133 -49 252.5t-141 212.5q-95 95 -215 144.5t-254 49.5q-133 0 -251.5 -49t-209.5 -141q-95 -97 -145.5 -218t-50.5 -251zM569 309v846h305q180 0 264.5 -56.5t84.5 -176.5 q0 -89 -55.5 -149t-147.5 -71l190 -393h-131l-182 377h-213v-377h-115zM684 764h168q145 0 199.5 36t54.5 126q0 78 -61.5 114.5t-192.5 36.5h-168v-313z" />
<glyph unicode="&#xaf;" horiz-adv-x="1024" d="M256 1253v117h512v-117h-512z" />
<glyph unicode="&#xb0;" horiz-adv-x="674" d="M63 1176q0 114 80.5 194t194.5 80q112 0 192 -80.5t80 -193.5q0 -114 -80 -193.5t-194 -79.5q-115 0 -194 79t-79 194zM125 1176q0 -89 62.5 -151t150.5 -62t150.5 62t62.5 151q0 87 -63 150t-150 63q-89 0 -151 -62t-62 -151z" />
<glyph unicode="&#xb1;" horiz-adv-x="1706" d="M254 59v82h1198v-82h-1198zM254 727v80h559v354h80v-354h559v-80h-559v-352h-80v352h-559z" />
<glyph unicode="&#xb2;" horiz-adv-x="758" d="M80 569v76q253 242 344.5 363.5t91.5 201.5q0 66 -49 107t-129 41q-54 0 -107 -15.5t-102 -46.5l-18 82q64 28 124.5 42t116.5 14q120 0 189 -59.5t69 -162.5q0 -92 -85.5 -209.5t-340.5 -357.5h451v-76h-555z" />
<glyph unicode="&#xb3;" horiz-adv-x="758" d="M66 596l14 86q42 -22 92 -33.5t107 -11.5q118 0 190 50t72 130q0 77 -64.5 119.5t-181.5 42.5h-94v72l101 2q110 1 173.5 44t63.5 115q0 63 -60 104.5t-151 41.5q-51 0 -104.5 -11t-104.5 -32l-6 78q66 17 118 25.5t95 8.5q140 0 221.5 -58t81.5 -157q0 -73 -54.5 -125 t-148.5 -67q99 -14 155 -68.5t56 -138.5q0 -113 -93.5 -182.5t-246.5 -69.5q-66 0 -124.5 9t-106.5 26z" />
<glyph unicode="&#xb4;" horiz-adv-x="1024" d="M387 1155l209 348h152l-269 -348h-92z" />
<glyph unicode="&#xb5;" horiz-adv-x="1094" d="M-111 -424l316 1487h121l-123 -590q-9 -43 -13 -77t-4 -64q0 -126 60 -192t174 -66q127 0 219.5 109t136.5 313l125 567h121l-166 -786q-2 -9 -5 -24q-20 -92 -20 -112q0 -31 17.5 -47t50.5 -16q9 0 18.5 0.5t20.5 1.5l-18 -96q-3 -1 -8 -2q-49 -11 -68 -11 q-68 0 -100.5 31.5t-32.5 95.5q0 7 0.5 16t3.5 29q-43 -83 -123.5 -127.5t-188.5 -44.5q-97 0 -169.5 45.5t-104.5 126.5l-119 -567h-121z" />
<glyph unicode="&#xb6;" horiz-adv-x="1024" d="M90 1130q0 157 108.5 253t286.5 96h447v-64h-129v-1415h-70v1415h-192v-1415h-70v782q-175 8 -278 102.5t-103 245.5z" />
<glyph unicode="&#xb7;" horiz-adv-x="573" d="M195 711q0 39 26 65.5t66 26.5q39 0 65.5 -26.5t26.5 -65.5t-27 -66t-65 -27t-65 27.5t-27 65.5z" />
<glyph unicode="&#xb8;" horiz-adv-x="1024" d="M270 -342q75 -18 134 -26.5t104 -8.5q63 0 96 23.5t33 68.5q0 54 -33.5 78.5t-107.5 24.5q-19 0 -29 -0.5t-20 -1.5l-1 184h66v-111h20q103 0 160.5 -44t57.5 -124q0 -89 -58 -134.5t-170 -45.5q-55 0 -116 10t-136 31v76z" />
<glyph unicode="&#xb9;" horiz-adv-x="758" d="M164 1257l207 164h75v-852h-84v762l-147 -125z" />
<glyph unicode="&#xba;" horiz-adv-x="858" d="M74 1065q0 171 96 272t258 101q163 0 259.5 -101t96.5 -272t-96.5 -272t-259.5 -101q-161 0 -257.5 101.5t-96.5 271.5zM176 1067q0 -132 70 -213.5t182 -81.5q116 0 185 80.5t69 214.5q0 136 -69 215.5t-185 79.5q-113 0 -182.5 -81t-69.5 -214z" />
<glyph unicode="&#xbb;" horiz-adv-x="944" d="M72 113l274 417l-274 418h121l280 -418l-280 -417h-121zM461 113l272 417l-272 418h121l280 -418l-280 -417h-121z" />
<glyph unicode="&#xbc;" horiz-adv-x="1788" d="M154 1270l198 153h72v-796h-80v710l-141 -116zM461 -25l758 1471h108l-756 -1471h-110zM1102 188v76l403 533h109v-543h133v-66h-133v-188h-80v188h-432zM1182 254h352v465z" />
<glyph unicode="&#xbd;" horiz-adv-x="1788" d="M154 1270l198 153h72v-796h-80v710l-141 -116zM461 -25l758 1471h108l-756 -1471h-110zM1141 0v70q245 230 331.5 341.5t86.5 186.5q0 61 -47.5 99t-122.5 38q-53 0 -104.5 -14.5t-96.5 -42.5l-17 76q64 26 120.5 39.5t109.5 13.5q113 0 179.5 -56t66.5 -151 q0 -85 -80 -194t-326 -336h428v-70h-528z" />
<glyph unicode="&#xbe;" horiz-adv-x="1788" d="M61 651l15 82q41 -21 88.5 -32t101.5 -11q112 0 181 47t69 121q0 72 -62 112t-173 40h-91v67h96q107 2 167.5 42t60.5 108q0 59 -56.5 97t-146.5 38q-49 0 -100 -10.5t-98 -30.5l-4 74q56 16 107 24t95 8q133 0 211 -54.5t78 -145.5q0 -69 -52 -117t-142 -63 q94 -13 148 -64.5t54 -128.5q0 -104 -89.5 -168.5t-235.5 -64.5q-65 0 -120 7.5t-102 22.5zM461 -25l758 1471h108l-756 -1471h-110zM1102 188v76l403 533h109v-543h133v-66h-133v-188h-80v188h-432zM1182 254h352v465z" />
<glyph unicode="&#xbf;" horiz-adv-x="1020" d="M170 330q0 164 213 417q35 42 53 64q40 48 60 104.5t20 122.5q0 5 -1 17t-1 18h121q1 -10 1.5 -21t0.5 -32q0 -78 -22 -138.5t-83 -138.5q-22 -29 -67 -83q-162 -195 -162 -316q0 -107 78 -175.5t203 -68.5q54 0 116.5 16t145.5 50v-127q-74 -27 -140 -40t-124 -13 q-190 0 -301 93t-111 251zM492 1241v180h165v-180h-165z" />
<glyph unicode="&#xc0;" horiz-adv-x="1319" d="M25 0l577 1421h162l563 -1421h-143l-150 387h-725l-149 -387h-135zM362 506h625l-307 797zM436 1906h152l209 -348h-92z" />
<glyph unicode="&#xc1;" horiz-adv-x="1319" d="M25 0l577 1421h162l563 -1421h-143l-150 387h-725l-149 -387h-135zM362 506h625l-307 797zM547 1558l209 348h152l-269 -348h-92z" />
<glyph unicode="&#xc2;" horiz-adv-x="1319" d="M25 0l577 1421h162l563 -1421h-143l-150 387h-725l-149 -387h-135zM362 506h625l-307 797zM396 1558l200 348h152l200 -348h-92l-184 262l-184 -262h-92z" />
<glyph unicode="&#xc3;" horiz-adv-x="1319" d="M25 0l577 1421h162l563 -1421h-143l-150 387h-725l-149 -387h-135zM362 506h625l-307 797zM383 1615q22 89 71 136t122 47q17 0 30.5 -2t24.5 -7l96 -30q19 -6 31.5 -8t24.5 -2q34 0 57.5 17.5t38.5 53.5h82q-26 -90 -73.5 -135t-117.5 -45q-14 0 -30 2.5t-35 7.5l-96 29 q-13 4 -26 6t-28 2q-29 0 -53 -18.5t-39 -53.5h-80z" />
<glyph unicode="&#xc4;" horiz-adv-x="1319" d="M25 0l577 1421h162l563 -1421h-143l-150 387h-725l-149 -387h-135zM362 506h625l-307 797zM441 1634v164h141v-164h-141zM762 1634v164h141v-164h-141z" />
<glyph unicode="&#xc5;" horiz-adv-x="1319" d="M25 0l577 1421h162l563 -1421h-143l-150 387h-725l-149 -387h-135zM362 506h625l-307 797zM434 1729q0 101 70 171t172 70q101 0 171.5 -70t70.5 -171t-70 -170.5t-172 -69.5t-172 69.5t-70 170.5zM526 1729q0 -63 43.5 -106.5t106.5 -43.5t106 43.5t43 106.5t-43.5 107 t-105.5 44q-63 0 -106.5 -43.5t-43.5 -107.5z" />
<glyph unicode="&#xc6;" horiz-adv-x="1782" d="M-41 0l881 1421h786v-116h-559v-508h528v-119h-528v-555h575v-123h-708v393h-590l-235 -393h-150zM416 512h518v793h-31z" />
<glyph unicode="&#xc7;" horiz-adv-x="1194" d="M109 700q0 332 200 528.5t537 196.5q90 0 167.5 -12t139.5 -37v-129q-84 32 -160 47t-149 15q-277 0 -434.5 -162.5t-157.5 -448.5q0 -271 157.5 -426t434.5 -155q82 0 156.5 14t144.5 43v-133q-66 -23 -146 -34t-180 -11q-325 0 -517.5 191t-192.5 513zM528 -342 q75 -18 134 -26.5t104 -8.5q63 0 96 23.5t33 68.5q0 54 -33.5 78.5t-107.5 24.5q-19 0 -29 -0.5t-20 -1.5l-1 184h66v-111h20q103 0 160.5 -44t57.5 -124q0 -89 -58 -134.5t-170 -45.5q-55 0 -116 10t-136 31v76z" />
<glyph unicode="&#xc8;" horiz-adv-x="1038" d="M190 0v1421h693v-112h-561v-512h530v-119h-530v-555h573v-123h-705zM284 1906h152l209 -348h-92z" />
<glyph unicode="&#xc9;" horiz-adv-x="1038" d="M190 0v1421h693v-112h-561v-512h530v-119h-530v-555h573v-123h-705zM395 1558l209 348h152l-269 -348h-92z" />
<glyph unicode="&#xca;" horiz-adv-x="1038" d="M190 0v1421h693v-112h-561v-512h530v-119h-530v-555h573v-123h-705zM244 1558l200 348h152l200 -348h-92l-184 262l-184 -262h-92z" />
<glyph unicode="&#xcb;" horiz-adv-x="1038" d="M190 0v1421h693v-112h-561v-512h530v-119h-530v-555h573v-123h-705zM289 1634v164h141v-164h-141zM610 1634v164h141v-164h-141z" />
<glyph unicode="&#xcc;" horiz-adv-x="512" d="M20 1906h152l209 -348h-92zM190 0v1421h132v-1421h-132z" />
<glyph unicode="&#xcd;" horiz-adv-x="512" d="M131 1558l209 348h152l-269 -348h-92zM190 0v1421h132v-1421h-132z" />
<glyph unicode="&#xce;" horiz-adv-x="512" d="M-20 1558l200 348h152l200 -348h-92l-184 262l-184 -262h-92zM190 0v1421h132v-1421h-132z" />
<glyph unicode="&#xcf;" horiz-adv-x="512" d="M25 1634v164h141v-164h-141zM190 0v1421h132v-1421h-132zM346 1634v164h141v-164h-141z" />
<glyph unicode="&#xd0;" horiz-adv-x="1374" d="M29 686v105h188v630h272q384 0 583.5 -179t199.5 -523q0 -338 -204 -528.5t-566 -190.5h-285v686h-188zM348 123h164q292 0 454 155.5t162 436.5q0 290 -154 440t-454 150h-172v-514h354v-105h-354v-563z" />
<glyph unicode="&#xd1;" horiz-adv-x="1397" d="M190 0v1421h168l695 -1192q7 -11 18 -36t25 -62q-6 38 -9.5 70t-3.5 57v1163h123v-1421h-159l-705 1202q-12 21 -22 46t-19 59q6 -49 9 -81.5t3 -43.5v-1182h-123zM409 1615q22 89 71 136t122 47q17 0 30.5 -2t24.5 -7l96 -30q19 -6 31.5 -8t24.5 -2q34 0 57.5 17.5 t38.5 53.5h82q-26 -90 -73.5 -135t-117.5 -45q-14 0 -30 2.5t-35 7.5l-96 29q-13 4 -26 6t-28 2q-29 0 -53 -18.5t-39 -53.5h-80z" />
<glyph unicode="&#xd2;" horiz-adv-x="1470" d="M111 711q0 337 169 536t455 199q285 0 454 -198.5t169 -536.5t-169 -537t-454 -199q-286 0 -455 199.5t-169 536.5zM254 713q0 -281 131 -449t350 -168t350.5 168t131.5 449t-131.5 448.5t-350.5 167.5t-350 -167.5t-131 -448.5zM499 1906h152l209 -348h-92z" />
<glyph unicode="&#xd3;" horiz-adv-x="1470" d="M111 711q0 337 169 536t455 199q285 0 454 -198.5t169 -536.5t-169 -537t-454 -199q-286 0 -455 199.5t-169 536.5zM254 713q0 -281 131 -449t350 -168t350.5 168t131.5 449t-131.5 448.5t-350.5 167.5t-350 -167.5t-131 -448.5zM610 1558l209 348h152l-269 -348h-92z " />
<glyph unicode="&#xd4;" horiz-adv-x="1470" d="M111 711q0 337 169 536t455 199q285 0 454 -198.5t169 -536.5t-169 -537t-454 -199q-286 0 -455 199.5t-169 536.5zM254 713q0 -281 131 -449t350 -168t350.5 168t131.5 449t-131.5 448.5t-350.5 167.5t-350 -167.5t-131 -448.5zM459 1558l200 348h152l200 -348h-92 l-184 262l-184 -262h-92z" />
<glyph unicode="&#xd5;" horiz-adv-x="1470" d="M111 711q0 337 169 536t455 199q285 0 454 -198.5t169 -536.5t-169 -537t-454 -199q-286 0 -455 199.5t-169 536.5zM254 713q0 -281 131 -449t350 -168t350.5 168t131.5 449t-131.5 448.5t-350.5 167.5t-350 -167.5t-131 -448.5zM446 1615q22 89 71 136t122 47 q17 0 30.5 -2t24.5 -7l96 -30q19 -6 31.5 -8t24.5 -2q34 0 57.5 17.5t38.5 53.5h82q-26 -90 -73.5 -135t-117.5 -45q-14 0 -30 2.5t-35 7.5l-96 29q-13 4 -26 6t-28 2q-29 0 -53 -18.5t-39 -53.5h-80z" />
<glyph unicode="&#xd6;" horiz-adv-x="1470" d="M111 711q0 337 169 536t455 199q285 0 454 -198.5t169 -536.5t-169 -537t-454 -199q-286 0 -455 199.5t-169 536.5zM254 713q0 -281 131 -449t350 -168t350.5 168t131.5 449t-131.5 448.5t-350.5 167.5t-350 -167.5t-131 -448.5zM504 1634v164h141v-164h-141zM825 1634 v164h141v-164h-141z" />
<glyph unicode="&#xd7;" horiz-adv-x="1706" d="M309 123l488 487l-488 488l58 57l487 -487l487 487l58 -57l-488 -488l488 -487l-58 -57l-487 487l-487 -487z" />
<glyph unicode="&#xd8;" horiz-adv-x="1470" d="M59 10l185 217q-66 96 -99.5 218t-33.5 266q0 337 169 536t455 199q129 0 233.5 -42t192.5 -128l172 199l76 -64l-182 -213q67 -100 99 -218t32 -269q0 -339 -168.5 -537.5t-454.5 -198.5q-131 0 -238.5 43.5t-185.5 126.5l-176 -202zM252 729q0 -107 22.5 -208 t65.5 -187l733 842q-62 76 -147.5 114.5t-190.5 38.5q-215 0 -349 -165.5t-134 -434.5zM401 248q55 -72 143 -112t191 -40q219 0 350.5 168t131.5 449q0 113 -21.5 207.5t-62.5 166.5z" />
<glyph unicode="&#xd9;" horiz-adv-x="1389" d="M176 571v850h131v-839q0 -246 93 -367t282 -121q190 0 287.5 129.5t97.5 382.5v815h119v-823q0 -313 -127.5 -468t-384.5 -155q-246 0 -372 151t-126 445zM444 1906h152l209 -348h-92z" />
<glyph unicode="&#xda;" horiz-adv-x="1389" d="M176 571v850h131v-839q0 -246 93 -367t282 -121q190 0 287.5 129.5t97.5 382.5v815h119v-823q0 -313 -127.5 -468t-384.5 -155q-246 0 -372 151t-126 445zM555 1558l209 348h152l-269 -348h-92z" />
<glyph unicode="&#xdb;" horiz-adv-x="1389" d="M176 571v850h131v-839q0 -246 93 -367t282 -121q190 0 287.5 129.5t97.5 382.5v815h119v-823q0 -313 -127.5 -468t-384.5 -155q-246 0 -372 151t-126 445zM404 1558l200 348h152l200 -348h-92l-184 262l-184 -262h-92z" />
<glyph unicode="&#xdc;" horiz-adv-x="1389" d="M176 571v850h131v-839q0 -246 93 -367t282 -121q190 0 287.5 129.5t97.5 382.5v815h119v-823q0 -313 -127.5 -468t-384.5 -155q-246 0 -372 151t-126 445zM449 1634v164h141v-164h-141zM770 1634v164h141v-164h-141z" />
<glyph unicode="&#xdd;" horiz-adv-x="1139" d="M-25 1421h162l432 -700l445 700h147l-528 -813v-608h-131v604zM444 1558l209 348h152l-269 -348h-92z" />
<glyph unicode="&#xde;" horiz-adv-x="1014" d="M190 0v1421h132v-217h165q235 0 358.5 -103t123.5 -298q0 -194 -133 -303t-373 -109h-141v-391h-132zM322 510h141q173 0 267.5 77t94.5 218q0 132 -86 206t-239 74h-178v-575z" />
<glyph unicode="&#xdf;" horiz-adv-x="1151" d="M168 0v1028q0 258 102 387t305 129q174 0 278.5 -100.5t104.5 -267.5q0 -138 -69 -227t-201 -122q176 -26 263 -127t87 -278q0 -192 -118.5 -316t-301.5 -124q-47 0 -95 6t-97 18v131q37 -20 79.5 -30.5t88.5 -10.5q138 0 221.5 92.5t83.5 245.5q0 151 -95 231t-274 80 h-38v119h10q146 0 235.5 85t89.5 222q0 124 -70 194.5t-194 70.5q-72 0 -130 -37t-93 -105q-24 -45 -34.5 -121t-10.5 -215v-958h-127z" />
<glyph unicode="&#xe0;" horiz-adv-x="1022" d="M84 279q0 163 136 253.5t384 90.5h131q0 6 1 17t1 17q0 127 -63.5 199t-175.5 72q-78 0 -150 -21t-143 -65v125q76 37 153.5 56t153.5 19q175 0 262.5 -98t87.5 -293v-651h-114v176q-57 -94 -143.5 -142t-196.5 -48q-147 0 -235.5 80t-88.5 213zM219 287 q0 -88 56.5 -142.5t148.5 -54.5q142 0 226.5 90t84.5 244v94h-143q-180 0 -276.5 -60t-96.5 -171zM276 1503h152l209 -348h-92z" />
<glyph unicode="&#xe1;" horiz-adv-x="1022" d="M84 279q0 163 136 253.5t384 90.5h131q0 6 1 17t1 17q0 127 -63.5 199t-175.5 72q-78 0 -150 -21t-143 -65v125q76 37 153.5 56t153.5 19q175 0 262.5 -98t87.5 -293v-651h-114v176q-57 -94 -143.5 -142t-196.5 -48q-147 0 -235.5 80t-88.5 213zM219 287 q0 -88 56.5 -142.5t148.5 -54.5q142 0 226.5 90t84.5 244v94h-143q-180 0 -276.5 -60t-96.5 -171zM387 1155l209 348h152l-269 -348h-92z" />
<glyph unicode="&#xe2;" horiz-adv-x="1022" d="M84 279q0 163 136 253.5t384 90.5h131q0 6 1 17t1 17q0 127 -63.5 199t-175.5 72q-78 0 -150 -21t-143 -65v125q76 37 153.5 56t153.5 19q175 0 262.5 -98t87.5 -293v-651h-114v176q-57 -94 -143.5 -142t-196.5 -48q-147 0 -235.5 80t-88.5 213zM219 287 q0 -88 56.5 -142.5t148.5 -54.5q142 0 226.5 90t84.5 244v94h-143q-180 0 -276.5 -60t-96.5 -171zM236 1155l200 348h152l200 -348h-92l-184 262l-184 -262h-92z" />
<glyph unicode="&#xe3;" horiz-adv-x="1022" d="M84 279q0 163 136 253.5t384 90.5h131q0 6 1 17t1 17q0 127 -63.5 199t-175.5 72q-78 0 -150 -21t-143 -65v125q76 37 153.5 56t153.5 19q175 0 262.5 -98t87.5 -293v-651h-114v176q-57 -94 -143.5 -142t-196.5 -48q-147 0 -235.5 80t-88.5 213zM219 287 q0 -88 56.5 -142.5t148.5 -54.5q142 0 226.5 90t84.5 244v94h-143q-180 0 -276.5 -60t-96.5 -171zM223 1212q22 89 71 136t122 47q17 0 30.5 -2t24.5 -7l96 -30q19 -6 31.5 -8t24.5 -2q34 0 57.5 17.5t38.5 53.5h82q-26 -90 -73.5 -135t-117.5 -45q-14 0 -30 2.5t-35 7.5 l-96 29q-13 4 -26 6t-28 2q-29 0 -53 -18.5t-39 -53.5h-80z" />
<glyph unicode="&#xe4;" horiz-adv-x="1022" d="M84 279q0 163 136 253.5t384 90.5h131q0 6 1 17t1 17q0 127 -63.5 199t-175.5 72q-78 0 -150 -21t-143 -65v125q76 37 153.5 56t153.5 19q175 0 262.5 -98t87.5 -293v-651h-114v176q-57 -94 -143.5 -142t-196.5 -48q-147 0 -235.5 80t-88.5 213zM219 287 q0 -88 56.5 -142.5t148.5 -54.5q142 0 226.5 90t84.5 244v94h-143q-180 0 -276.5 -60t-96.5 -171zM281 1231v164h141v-164h-141zM602 1231v164h141v-164h-141z" />
<glyph unicode="&#xe5;" horiz-adv-x="1022" d="M84 279q0 163 136 253.5t384 90.5h131q0 6 1 17t1 17q0 127 -63.5 199t-175.5 72q-78 0 -150 -21t-143 -65v125q76 37 153.5 56t153.5 19q175 0 262.5 -98t87.5 -293v-651h-114v176q-57 -94 -143.5 -142t-196.5 -48q-147 0 -235.5 80t-88.5 213zM219 287 q0 -88 56.5 -142.5t148.5 -54.5q142 0 226.5 90t84.5 244v94h-143q-180 0 -276.5 -60t-96.5 -171zM272 1350q0 101 69.5 171t170.5 70t171.5 -70t70.5 -171t-70 -170.5t-172 -69.5q-101 0 -170.5 69t-69.5 171zM362 1350q0 -63 43.5 -106.5t106.5 -43.5t106.5 43.5 t43.5 106.5t-43.5 106t-106.5 43q-64 0 -107 -42.5t-43 -106.5z" />
<glyph unicode="&#xe6;" horiz-adv-x="1620" d="M84 279q0 163 136 253.5t384 90.5h131q0 6 1 17t1 17q0 127 -63.5 199t-175.5 72q-78 0 -150 -21t-143 -65v125q77 38 154 56.5t153 18.5q117 0 196 -44t119 -132q63 87 152 131.5t199 44.5q181 0 289 -129.5t108 -351.5v-43h-723v-12q0 -201 95.5 -308.5t275.5 -107.5 q72 0 139 17t133 53v-127q-67 -29 -138.5 -43.5t-150.5 -14.5q-146 0 -248 58t-167 178q-72 -113 -167.5 -169t-215.5 -56q-147 0 -235.5 80t-88.5 213zM219 287q0 -88 56.5 -142.5t148.5 -54.5q142 0 226.5 90t84.5 244v94h-143q-180 0 -276.5 -60t-96.5 -171zM858 623h590 q-11 156 -85 239.5t-202 83.5q-120 0 -204.5 -89.5t-98.5 -233.5z" />
<glyph unicode="&#xe7;" horiz-adv-x="909" d="M98 512q0 230 143 373t373 143q65 0 123 -9.5t113 -29.5l-10 -129q-50 27 -107 40t-125 13q-164 0 -268 -112t-104 -291q0 -186 98.5 -295t265.5 -109q58 0 118 14t124 42l12 -127q-61 -24 -127 -35.5t-135 -11.5q-223 0 -358.5 143t-135.5 381zM303 -342 q75 -18 134 -26.5t104 -8.5q63 0 96 23.5t33 68.5q0 54 -33.5 78.5t-107.5 24.5q-19 0 -29 -0.5t-20 -1.5l-1 184h66v-111h20q103 0 160.5 -44t57.5 -124q0 -89 -58 -134.5t-170 -45.5q-55 0 -116 10t-136 31v76z" />
<glyph unicode="&#xe8;" horiz-adv-x="991" d="M98 516q0 238 124 383t325 145q182 0 289.5 -130t107.5 -353v-74h-721q6 -194 101 -297.5t268 -103.5q68 0 136.5 18.5t137.5 55.5v-127q-67 -29 -138 -43.5t-148 -14.5q-226 0 -354 143t-128 398zM227 582h592q-11 171 -85 262.5t-202 91.5q-124 0 -207 -95.5 t-98 -258.5zM296 1503h152l209 -348h-92z" />
<glyph unicode="&#xe9;" horiz-adv-x="991" d="M98 516q0 238 124 383t325 145q182 0 289.5 -130t107.5 -353v-74h-721q6 -194 101 -297.5t268 -103.5q68 0 136.5 18.5t137.5 55.5v-127q-67 -29 -138 -43.5t-148 -14.5q-226 0 -354 143t-128 398zM227 582h592q-11 171 -85 262.5t-202 91.5q-124 0 -207 -95.5 t-98 -258.5zM407 1155l209 348h152l-269 -348h-92z" />
<glyph unicode="&#xea;" horiz-adv-x="991" d="M98 516q0 238 124 383t325 145q182 0 289.5 -130t107.5 -353v-74h-721q6 -194 101 -297.5t268 -103.5q68 0 136.5 18.5t137.5 55.5v-127q-67 -29 -138 -43.5t-148 -14.5q-226 0 -354 143t-128 398zM227 582h592q-11 171 -85 262.5t-202 91.5q-124 0 -207 -95.5 t-98 -258.5zM256 1155l200 348h152l200 -348h-92l-184 262l-184 -262h-92z" />
<glyph unicode="&#xeb;" horiz-adv-x="991" d="M98 516q0 238 124 383t325 145q182 0 289.5 -130t107.5 -353v-74h-721q6 -194 101 -297.5t268 -103.5q68 0 136.5 18.5t137.5 55.5v-127q-67 -29 -138 -43.5t-148 -14.5q-226 0 -354 143t-128 398zM227 582h592q-11 171 -85 262.5t-202 91.5q-124 0 -207 -95.5 t-98 -258.5zM301 1231v164h141v-164h-141zM622 1231v164h141v-164h-141z" />
<glyph unicode="&#xec;" horiz-adv-x="465" d="M-3 1503h152l209 -348h-92zM168 0v1020h129v-1020h-129z" />
<glyph unicode="&#xed;" horiz-adv-x="465" d="M108 1155l209 348h152l-269 -348h-92zM168 0v1020h129v-1020h-129z" />
<glyph unicode="&#xee;" horiz-adv-x="465" d="M-43 1155l200 348h152l200 -348h-92l-184 262l-184 -262h-92zM168 0v1020h129v-1020h-129z" />
<glyph unicode="&#xef;" horiz-adv-x="465" d="M2 1231v164h141v-164h-141zM168 0v1020h129v-1020h-129zM323 1231v164h141v-164h-141z" />
<glyph unicode="&#xf0;" horiz-adv-x="1143" d="M98 510q0 244 128.5 388t344.5 144q50 0 93 -8.5t81 -25.5q-32 56 -72.5 116t-88.5 123l-234 -127l-43 76l219 117q-36 50 -87 105t-113 114h161q38 -42 74 -83t72 -83l237 127l43 -74l-225 -123q178 -224 267 -425t89 -377q0 -233 -130.5 -376t-342.5 -143 q-215 0 -344 145t-129 390zM236 512q0 -189 93 -305.5t242 -116.5q154 0 246 115t92 307q0 193 -92 307.5t-246 114.5q-150 0 -242.5 -116t-92.5 -306z" />
<glyph unicode="&#xf1;" horiz-adv-x="1143" d="M180 0v1020h119v-193q56 108 142.5 161.5t205.5 53.5q165 0 251.5 -107.5t86.5 -311.5v-623h-129v592q0 172 -59.5 253t-186.5 81q-141 0 -221 -104.5t-80 -291.5v-530h-129zM303 1212q22 89 71 136t122 47q17 0 30.5 -2t24.5 -7l96 -30q19 -6 31.5 -8t24.5 -2 q34 0 57.5 17.5t38.5 53.5h82q-26 -90 -73.5 -135t-117.5 -45q-14 0 -30 2.5t-35 7.5l-96 29q-13 4 -26 6t-28 2q-29 0 -53 -18.5t-39 -53.5h-80z" />
<glyph unicode="&#xf2;" horiz-adv-x="1143" d="M98 510q0 244 128.5 388t344.5 144q217 0 345 -143.5t128 -388.5t-128.5 -390t-344.5 -145q-215 0 -344 145t-129 390zM236 512q0 -189 93 -305.5t242 -116.5q154 0 246 115t92 307q0 193 -92 307.5t-246 114.5q-150 0 -242.5 -116t-92.5 -306zM335 1503h152l209 -348 h-92z" />
<glyph unicode="&#xf3;" horiz-adv-x="1143" d="M98 510q0 244 128.5 388t344.5 144q217 0 345 -143.5t128 -388.5t-128.5 -390t-344.5 -145q-215 0 -344 145t-129 390zM236 512q0 -189 93 -305.5t242 -116.5q154 0 246 115t92 307q0 193 -92 307.5t-246 114.5q-150 0 -242.5 -116t-92.5 -306zM446 1155l209 348h152 l-269 -348h-92z" />
<glyph unicode="&#xf4;" horiz-adv-x="1143" d="M98 510q0 244 128.5 388t344.5 144q217 0 345 -143.5t128 -388.5t-128.5 -390t-344.5 -145q-215 0 -344 145t-129 390zM236 512q0 -189 93 -305.5t242 -116.5q154 0 246 115t92 307q0 193 -92 307.5t-246 114.5q-150 0 -242.5 -116t-92.5 -306zM295 1155l200 348h152 l200 -348h-92l-184 262l-184 -262h-92z" />
<glyph unicode="&#xf5;" horiz-adv-x="1143" d="M98 510q0 244 128.5 388t344.5 144q217 0 345 -143.5t128 -388.5t-128.5 -390t-344.5 -145q-215 0 -344 145t-129 390zM236 512q0 -189 93 -305.5t242 -116.5q154 0 246 115t92 307q0 193 -92 307.5t-246 114.5q-150 0 -242.5 -116t-92.5 -306zM282 1212q22 89 71 136 t122 47q17 0 30.5 -2t24.5 -7l96 -30q19 -6 31.5 -8t24.5 -2q34 0 57.5 17.5t38.5 53.5h82q-26 -90 -73.5 -135t-117.5 -45q-14 0 -30 2.5t-35 7.5l-96 29q-13 4 -26 6t-28 2q-29 0 -53 -18.5t-39 -53.5h-80z" />
<glyph unicode="&#xf6;" horiz-adv-x="1143" d="M98 510q0 244 128.5 388t344.5 144q217 0 345 -143.5t128 -388.5t-128.5 -390t-344.5 -145q-215 0 -344 145t-129 390zM236 512q0 -189 93 -305.5t242 -116.5q154 0 246 115t92 307q0 193 -92 307.5t-246 114.5q-150 0 -242.5 -116t-92.5 -306zM340 1231v164h141v-164 h-141zM661 1231v164h141v-164h-141z" />
<glyph unicode="&#xf7;" horiz-adv-x="1706" d="M254 569v82h1198v-82h-1198zM756 264q0 41 29 71t69 30q41 0 69.5 -29.5t28.5 -71.5q0 -40 -28.5 -69t-69.5 -29t-69.5 28.5t-28.5 69.5zM756 956q0 41 28.5 70t69.5 29t69.5 -28.5t28.5 -70.5q0 -40 -28.5 -70t-69.5 -30t-69.5 29.5t-28.5 70.5z" />
<glyph unicode="&#xf8;" horiz-adv-x="1143" d="M51 -25l150 177q-52 71 -77.5 160t-25.5 198q0 244 128.5 388t344.5 144q90 0 166.5 -26t139.5 -78l143 168l74 -62l-152 -178q51 -67 76.5 -157t25.5 -199q0 -245 -128.5 -390t-344.5 -145q-91 0 -167.5 27t-135.5 80l-143 -170zM236 512q0 -71 14 -133t43 -119l502 584 q-46 46 -101 68t-123 22q-151 0 -243 -115.5t-92 -306.5zM354 180q39 -43 95.5 -66.5t121.5 -23.5q154 0 246 115t92 307q0 75 -13.5 137t-41.5 115z" />
<glyph unicode="&#xf9;" horiz-adv-x="1143" d="M158 406v614h127v-584q0 -172 59.5 -253t185.5 -81q146 0 223.5 111.5t77.5 321.5v485h130v-1020h-119v201q-56 -108 -142.5 -161.5t-205.5 -53.5q-165 0 -250.5 106.5t-85.5 313.5zM335 1503h152l209 -348h-92z" />
<glyph unicode="&#xfa;" horiz-adv-x="1143" d="M158 406v614h127v-584q0 -172 59.5 -253t185.5 -81q146 0 223.5 111.5t77.5 321.5v485h130v-1020h-119v201q-56 -108 -142.5 -161.5t-205.5 -53.5q-165 0 -250.5 106.5t-85.5 313.5zM446 1155l209 348h152l-269 -348h-92z" />
<glyph unicode="&#xfb;" horiz-adv-x="1143" d="M158 406v614h127v-584q0 -172 59.5 -253t185.5 -81q146 0 223.5 111.5t77.5 321.5v485h130v-1020h-119v201q-56 -108 -142.5 -161.5t-205.5 -53.5q-165 0 -250.5 106.5t-85.5 313.5zM295 1155l200 348h152l200 -348h-92l-184 262l-184 -262h-92z" />
<glyph unicode="&#xfc;" horiz-adv-x="1143" d="M158 406v614h127v-584q0 -172 59.5 -253t185.5 -81q146 0 223.5 111.5t77.5 321.5v485h130v-1020h-119v201q-56 -108 -142.5 -161.5t-205.5 -53.5q-165 0 -250.5 106.5t-85.5 313.5zM340 1231v164h141v-164h-141zM661 1231v164h141v-164h-141z" />
<glyph unicode="&#xfd;" horiz-adv-x="883" d="M25 1020h137l295 -885l297 885h129l-408 -1172q-55 -157 -124 -224.5t-173 -67.5q-24 0 -50.5 3t-53.5 9l10 115l5 -1q63 -10 79 -10q73 0 122 61t103 226zM317 1155l209 348h152l-269 -348h-92z" />
<glyph unicode="&#xfe;" horiz-adv-x="1155" d="M180 -428v1954h129v-688q58 99 145.5 151.5t196.5 52.5q187 0 298.5 -140t111.5 -378q0 -246 -115 -391t-309 -145q-105 0 -189.5 48t-138.5 138v-602h-129zM309 518q0 -201 83.5 -313.5t232.5 -112.5q134 0 215.5 115t81.5 309q0 196 -78.5 306t-216.5 110 q-143 0 -230.5 -113t-87.5 -301z" />
<glyph unicode="&#xff;" horiz-adv-x="883" d="M25 1020h137l295 -885l297 885h129l-408 -1172q-55 -157 -124 -224.5t-173 -67.5q-24 0 -50.5 3t-53.5 9l10 115l5 -1q63 -10 79 -10q73 0 122 61t103 226zM211 1231v164h141v-164h-141zM532 1231v164h141v-164h-141z" />
<glyph unicode="&#x152;" horiz-adv-x="1821" d="M111 711q0 335 159.5 528t438.5 193q63 0 152 -5.5t114 -5.5h690v-112h-561v-512h530v-119h-530v-555h573v-123h-702q-39 0 -126.5 -4t-137.5 -4q-283 0 -441.5 190.5t-158.5 528.5zM254 713q0 -289 126.5 -446.5t358.5 -157.5q48 0 105.5 2.5t128.5 7.5v1190 q-53 4 -104 6t-99 2q-254 0 -385 -153.5t-131 -450.5z" />
<glyph unicode="&#x153;" horiz-adv-x="1802" d="M98 510q0 244 128.5 388t344.5 144q138 0 242 -59t162 -170q65 114 161.5 171.5t223.5 57.5q182 0 289.5 -129.5t107.5 -351.5v-74h-721q6 -193 101 -295t268 -102q72 0 139 17t133 53v-127q-67 -29 -138 -43.5t-148 -14.5q-150 0 -252.5 58.5t-161.5 177.5 q-68 -118 -169.5 -177t-236.5 -59q-215 0 -344 145t-129 390zM236 512q0 -189 93 -305.5t242 -116.5q154 0 246 115t92 307q0 193 -92 307.5t-246 114.5q-151 0 -243 -115.5t-92 -306.5zM1040 582h592q-10 170 -85 261t-204 91q-120 0 -204.5 -97.5t-98.5 -254.5z" />
<glyph unicode="&#x178;" horiz-adv-x="1139" d="M-25 1421h162l432 -700l445 700h147l-528 -813v-608h-131v604zM338 1634v164h141v-164h-141zM659 1634v164h141v-164h-141z" />
<glyph unicode="&#x2c6;" horiz-adv-x="1024" d="M236 1155l200 348h152l200 -348h-92l-184 262l-184 -262h-92z" />
<glyph unicode="&#x2dc;" horiz-adv-x="1024" d="M223 1212q22 89 71 136t122 47q17 0 30.5 -2t24.5 -7l96 -30q19 -6 31.5 -8t24.5 -2q34 0 57.5 17.5t38.5 53.5h82q-26 -90 -73.5 -135t-117.5 -45q-14 0 -30 2.5t-35 7.5l-96 29q-13 4 -26 6t-28 2q-29 0 -53 -18.5t-39 -53.5h-80z" />
<glyph unicode="&#x2000;" horiz-adv-x="985" />
<glyph unicode="&#x2001;" horiz-adv-x="1970" />
<glyph unicode="&#x2002;" horiz-adv-x="985" />
<glyph unicode="&#x2003;" horiz-adv-x="1970" />
<glyph unicode="&#x2004;" horiz-adv-x="656" />
<glyph unicode="&#x2005;" horiz-adv-x="492" />
<glyph unicode="&#x2006;" horiz-adv-x="328" />
<glyph unicode="&#x2007;" horiz-adv-x="328" />
<glyph unicode="&#x2008;" horiz-adv-x="246" />
<glyph unicode="&#x2009;" horiz-adv-x="394" />
<glyph unicode="&#x200a;" horiz-adv-x="109" />
<glyph unicode="&#x2010;" horiz-adv-x="692" d="M96 492v112h498v-112h-498z" />
<glyph unicode="&#x2011;" horiz-adv-x="692" d="M96 492v112h498v-112h-498z" />
<glyph unicode="&#x2012;" horiz-adv-x="692" d="M96 492v112h498v-112h-498z" />
<glyph unicode="&#x2013;" horiz-adv-x="1024" d="M0 506v86h1024v-86h-1024z" />
<glyph unicode="&#x2014;" horiz-adv-x="2048" d="M0 506v86h2048v-86h-2048z" />
<glyph unicode="&#x2018;" horiz-adv-x="573" d="M150 979l153 442h129l-125 -442h-157z" />
<glyph unicode="&#x2019;" horiz-adv-x="573" d="M150 979l122 442h160l-156 -442h-126z" />
<glyph unicode="&#x201a;" horiz-adv-x="573" d="M117 -266l125 444h157l-153 -444h-129z" />
<glyph unicode="&#x201c;" horiz-adv-x="948" d="M150 979l153 442h129l-125 -442h-157zM524 979l154 442h129l-125 -442h-158z" />
<glyph unicode="&#x201d;" horiz-adv-x="948" d="M150 979l122 442h160l-156 -442h-126zM524 979l123 442h160l-156 -442h-127z" />
<glyph unicode="&#x201e;" horiz-adv-x="948" d="M117 -266l125 444h157l-153 -444h-129zM492 -266l122 444h160l-153 -444h-129z" />
<glyph unicode="&#x2022;" horiz-adv-x="1208" d="M307 762q0 123 87 209t210 86q122 0 208.5 -86.5t86.5 -208.5t-87.5 -209.5t-209.5 -87.5q-123 0 -209 87t-86 210z" />
<glyph unicode="&#x2026;" horiz-adv-x="2048" d="M258 0v180h166v-180h-166zM940 0v180h166v-180h-166zM1624 0v180h166v-180h-166z" />
<glyph unicode="&#x202f;" horiz-adv-x="394" />
<glyph unicode="&#x2039;" horiz-adv-x="555" d="M82 530l280 418h121l-274 -418l274 -417h-121z" />
<glyph unicode="&#x203a;" horiz-adv-x="555" d="M72 113l274 417l-274 418h121l280 -418l-280 -417h-121z" />
<glyph unicode="&#x205f;" horiz-adv-x="492" />
<glyph unicode="&#x20ac;" d="M74 522l20 86h129q-2 31 -3 53t-1 39q0 20 1 44t3 69h-135l21 86h124q41 261 178.5 404t350.5 143q70 0 130.5 -12.5t108.5 -36.5v-129q-66 31 -125 46t-116 15q-154 0 -252.5 -111t-130.5 -319h536l-20 -86h-526q-3 -44 -4 -69t-1 -46q1 -17 1.5 -36.5t3.5 -53.5h489 l-20 -86h-463q26 -213 123 -319.5t264 -106.5q64 0 122.5 14.5t112.5 43.5v-134q-51 -22 -114 -33.5t-142 -11.5q-217 0 -347 140t-163 407h-155z" />
<glyph unicode="&#x2122;" horiz-adv-x="1706" d="M274 1403v51h420v-51h-174v-479h-67v479h-179zM825 924v530h101l174 -440l162 440h102v-530h-59v479l-181 -479h-49l-190 479v-479h-60z" />
<glyph unicode="&#x25fc;" horiz-adv-x="1020" d="M0 0v1020h1020v-1020h-1020z" />
</font>
</defs>
</svg>
