<?xml version="1.0" standalone="no"?>
<!DOCTYPE svg PUBLIC "-//W3C//DTD SVG 1.1//EN" "http://www.w3.org/Graphics/SVG/1.1/DTD/svg11.dtd" >
<svg xmlns="http://www.w3.org/2000/svg">
<metadata></metadata>
<defs>
<font id="humnst777_btbold" horiz-adv-x="1274" >
<font-face units-per-em="2048" ascent="1556" descent="-492" />
<missing-glyph horiz-adv-x="606" />
<glyph horiz-adv-x="2048" />
<glyph horiz-adv-x="2048" />
<glyph unicode="&#xd;" horiz-adv-x="606" />
<glyph unicode=" "  horiz-adv-x="606" />
<glyph unicode="&#x09;" horiz-adv-x="606" />
<glyph unicode="&#xa0;" horiz-adv-x="606" />
<glyph unicode="!" horiz-adv-x="846" d="M281 1421h286l-43 -995h-200zM289 0v262h268v-262h-268z" />
<glyph unicode="&#x22;" horiz-adv-x="678" d="M80 879v559h192v-559h-192zM406 879v559h192v-559h-192z" />
<glyph unicode="#" horiz-adv-x="1575" d="M45 406l76 200h282l86 242h-299l74 201h297l148 415h221l-146 -415h242l148 415h221l-148 -415h283l-74 -201h-280l-84 -242h290l-71 -200h-291l-148 -416h-221l148 416h-244l-149 -416h-220l146 416h-287zM621 604h251l86 244h-249z" />
<glyph unicode="$" horiz-adv-x="1214" d="M152 1042q0 163 108 262.5t307 120.5v177h107v-172q87 -2 173.5 -15t174.5 -37l-25 -209q-73 37 -153.5 54.5t-169.5 17.5v-387q224 -67 330 -171.5t106 -258.5q0 -171 -118.5 -283.5t-325.5 -138.5v-174h-107v172h-20q-96 0 -186.5 14.5t-178.5 42.5l23 232 q91 -43 182.5 -64.5t179.5 -21.5v436q-207 57 -307 156.5t-100 246.5zM399 1069q0 -66 41 -111t127 -75v352q-78 -17 -123 -61t-45 -105zM666 211q87 14 137.5 64.5t50.5 125.5q0 70 -46 121t-142 86v-397z" />
<glyph unicode="%" horiz-adv-x="1853" d="M76 1053q0 184 92.5 291.5t249.5 107.5t250.5 -108t93.5 -291q0 -182 -94 -291t-250 -109t-249 109t-93 291zM283 1053q0 -126 34 -189t101 -63t102 63.5t35 188.5q0 126 -34 189t-101 63t-102 -64.5t-35 -187.5zM467 -29l754 1481h172l-754 -1481h-172zM1096 371 q0 184 93 291.5t251 107.5t251 -107.5t93 -291.5q0 -182 -94 -291t-250 -109q-157 0 -250.5 108.5t-93.5 291.5zM1303 371q0 -123 35 -187.5t102 -64.5t102 63.5t35 188.5t-34.5 188.5t-102.5 63.5q-67 0 -102 -64.5t-35 -187.5z" />
<glyph unicode="&#x26;" horiz-adv-x="1491" d="M111 395q0 131 72.5 229.5t217.5 163.5q-87 88 -128.5 168t-41.5 162q0 149 118.5 240.5t314.5 91.5q190 0 300.5 -88.5t110.5 -239.5q0 -118 -81 -214t-240 -167l297 -313q55 70 85.5 158t35.5 188h226q-4 -141 -53 -267t-143 -235l262 -272h-309l-117 127 q-84 -75 -191 -113.5t-233 -38.5q-229 0 -366 115t-137 305zM369 401q0 -101 76.5 -169t193.5 -68q72 0 136.5 28t119.5 82l-354 373q-84 -46 -128 -109.5t-44 -136.5zM475 1110q0 -51 36 -108t116 -130q106 49 160.5 107.5t54.5 124.5q0 72 -50 116t-133 44 q-81 0 -132.5 -43.5t-51.5 -110.5z" />
<glyph unicode="'" horiz-adv-x="352" d="M80 879v559h192v-559h-192z" />
<glyph unicode="(" horiz-adv-x="723" d="M137 637q0 234 82.5 462t247.5 447h203q-147 -232 -218 -456t-71 -453q0 -228 71 -451.5t218 -455.5h-203q-165 219 -247.5 446t-82.5 461z" />
<glyph unicode=")" horiz-adv-x="723" d="M53 -270q147 235 218 457t71 450t-71 451.5t-218 457.5h201q165 -220 248.5 -448t83.5 -461q0 -232 -83 -459t-249 -448h-201z" />
<glyph unicode="*" horiz-adv-x="1024" d="M90 1141l64 200l309 -157l-53 342h204l-53 -342l307 157l66 -200l-342 -54l246 -243l-170 -125l-156 313l-156 -313l-170 125l246 243z" />
<glyph unicode="+" horiz-adv-x="1706" d="M254 512v199h498v510h202v-510h498v-199h-498v-512h-202v512h-498z" />
<glyph unicode="," horiz-adv-x="606" d="M76 -240l129 504h266l-182 -504h-213z" />
<glyph unicode="-" horiz-adv-x="692" d="M82 471v209h526v-209h-526z" />
<glyph unicode="." horiz-adv-x="606" d="M170 0v266h266v-266h-266z" />
<glyph unicode="/" horiz-adv-x="569" d="M-104 -190l540 1642h182l-544 -1642h-178z" />
<glyph unicode="0" horiz-adv-x="1214" d="M96 711q0 361 131 551t379 190q250 0 380 -189.5t130 -551.5q0 -363 -130 -551.5t-380 -188.5q-249 0 -379.5 188.5t-130.5 551.5zM367 715q0 -266 61.5 -404.5t179.5 -138.5q116 0 177 136t61 394q0 274 -60.5 413.5t-179.5 139.5q-118 0 -178.5 -137t-60.5 -403z" />
<glyph unicode="1" horiz-adv-x="1214" d="M174 1120l416 301h223v-1421h-258v1130l-248 -190z" />
<glyph unicode="2" horiz-adv-x="1214" d="M121 0v215q363 329 499 506.5t136 306.5q0 89 -67.5 144t-176.5 55q-77 0 -163.5 -26t-170.5 -75l-16 234q111 44 213.5 67t189.5 23q207 0 336 -111.5t129 -285.5q0 -172 -130.5 -365.5t-444.5 -478.5h610v-209h-944z" />
<glyph unicode="3" horiz-adv-x="1214" d="M96 41l21 233q67 -36 145 -54.5t166 -18.5q156 0 251 65.5t95 171.5q0 96 -73 145.5t-214 49.5h-161v198h157q129 0 206 53.5t77 141.5t-80.5 144.5t-210.5 56.5q-73 0 -151.5 -17t-155.5 -49l-14 221q31 7 92 22q203 48 295 48q224 0 359.5 -109.5t135.5 -285.5 q0 -116 -72 -199t-202 -115q141 -31 218 -116.5t77 -210.5q0 -195 -163 -311.5t-437 -116.5q-93 0 -183 13t-178 40z" />
<glyph unicode="4" horiz-adv-x="1214" d="M55 299v242l594 880h322v-921h200v-201h-200v-299h-260v299h-656zM262 500h449l12 704z" />
<glyph unicode="5" horiz-adv-x="1214" d="M164 41v238q71 -39 151 -58.5t166 -19.5q154 0 244 73t90 197q0 112 -93 182t-245 70q-54 0 -129 -11t-168 -32l10 741h844v-196h-594l-8 -326q48 8 85.5 12t66.5 4q238 0 373 -117.5t135 -324.5q0 -222 -161.5 -354.5t-434.5 -132.5q-82 0 -166 14t-166 41z" />
<glyph unicode="6" horiz-adv-x="1214" d="M123 662q0 372 166 576t469 204q76 0 153 -13t156 -38l-23 -220q-59 34 -127 51t-139 17q-190 0 -294.5 -129t-104.5 -367q57 81 139 122.5t182 41.5q186 0 307 -127t121 -321q0 -206 -139.5 -347t-345.5 -141q-249 0 -384.5 179.5t-135.5 511.5zM403 434 q0 -117 65 -190.5t167 -73.5t165.5 71t63.5 187q0 125 -64 201t-169 76q-99 0 -163.5 -76t-64.5 -195z" />
<glyph unicode="7" horiz-adv-x="1214" d="M102 1214v207h953v-231l-529 -1190h-301l555 1214h-678z" />
<glyph unicode="8" horiz-adv-x="1214" d="M92 383q0 127 82 221t227 133q-123 50 -191.5 142.5t-68.5 210.5q0 161 133 260.5t353 99.5q202 0 327 -97t125 -251q0 -113 -69 -205.5t-195 -146.5q152 -57 229.5 -151.5t77.5 -221.5q0 -183 -142.5 -294.5t-381.5 -111.5q-227 0 -366.5 114.5t-139.5 297.5zM354 395 q0 -95 72 -161t178 -66q108 0 178 65.5t70 165.5q0 78 -67.5 142.5t-196.5 109.5q-116 -45 -175 -110t-59 -146zM391 1065q0 -76 57.5 -135t174.5 -105q102 52 154 115.5t52 134.5q0 81 -58.5 135t-147.5 54q-103 0 -167.5 -56t-64.5 -143z" />
<glyph unicode="9" horiz-adv-x="1214" d="M106 965q0 206 140 346.5t346 140.5q250 0 385 -179.5t135 -512.5q0 -372 -166.5 -576t-468.5 -204q-76 0 -153.5 13t-155.5 40l22 217q59 -33 126.5 -49.5t140.5 -16.5q192 0 294.5 127t104.5 366q-56 -78 -138.5 -119.5t-182.5 -41.5q-186 0 -307.5 127t-121.5 322z M371 989q0 -122 62.5 -196t164.5 -74q106 0 169.5 75.5t63.5 202.5q0 110 -63.5 183t-157.5 73q-106 0 -172.5 -73t-66.5 -191z" />
<glyph unicode=":" horiz-adv-x="608" d="M170 0v266h266v-266h-266zM170 776v266h266v-266h-266z" />
<glyph unicode=";" horiz-adv-x="608" d="M72 -240l129 504h266l-182 -504h-213zM190 772v266h269v-266h-269z" />
<glyph unicode="&#x3c;" horiz-adv-x="1706" d="M264 512v199l1178 483v-219l-893 -365l893 -364v-219z" />
<glyph unicode="=" horiz-adv-x="1706" d="M254 297v199h1198v-199h-1198zM254 727v199h1198v-199h-1198z" />
<glyph unicode="&#x3e;" horiz-adv-x="1706" d="M264 27v219l895 364l-895 365v219l1178 -483v-199z" />
<glyph unicode="?" horiz-adv-x="1092" d="M121 1393q87 27 169.5 40t164.5 13q218 0 346.5 -97t128.5 -262q0 -76 -33 -148t-141 -204q-96 -113 -125 -172t-29 -119q0 -4 1 -12t1 -12h-225q-1 8 -1.5 18.5t-0.5 30.5q0 64 23 123.5t75 128.5q21 28 64 80q127 154 127 246q0 89 -69.5 142.5t-186.5 53.5 q-62 0 -132.5 -16.5t-150.5 -48.5zM352 0v262h269v-262h-269z" />
<glyph unicode="@" horiz-adv-x="2048" d="M90 520q0 167 52.5 318.5t154.5 275.5q148 181 356 274t463 93q169 0 317.5 -45.5t258.5 -128.5q135 -105 201.5 -239.5t66.5 -303.5q0 -165 -65.5 -304.5t-188.5 -238.5q-70 -56 -152.5 -85.5t-171.5 -29.5q-106 0 -159.5 42t-55.5 124q-55 -84 -127 -123.5t-170 -39.5 q-158 0 -240.5 86t-82.5 254q0 239 139.5 401t343.5 162q80 0 139 -33t97 -98l53 98h178l-147 -598q-3 -11 -5 -22.5t-2 -18.5q0 -35 24 -52.5t71 -17.5q39 0 81.5 20t79.5 56q86 80 130.5 187t44.5 235q0 240 -185.5 394.5t-478.5 154.5q-141 0 -262.5 -34t-220.5 -101 q-170 -114 -261.5 -285t-91.5 -375q0 -307 207 -490.5t553 -183.5q162 0 316.5 49t287.5 142l82 -117q-153 -115 -324.5 -173t-357.5 -58q-192 0 -353 48.5t-286 143.5q-155 121 -232 279t-77 358zM760 444q0 -92 40.5 -140t117.5 -48q83 0 151.5 63t93.5 164l54 217 q-13 81 -57.5 123.5t-117.5 42.5q-114 0 -198 -124t-84 -298z" />
<glyph unicode="A" horiz-adv-x="1395" d="M-10 0l553 1421h338l549 -1421h-302l-118 336h-619l-123 -336h-278zM469 545h467l-229 639z" />
<glyph unicode="B" horiz-adv-x="1260" d="M158 0v1421h471q245 0 372 -93.5t127 -274.5q0 -116 -69 -198t-195 -116q147 -30 225 -119t78 -225q0 -193 -139.5 -294t-409.5 -101h-460zM434 207h150q146 0 222.5 55t76.5 160q0 102 -71 155.5t-208 53.5h-170v-424zM434 829h133q138 0 209.5 50t71.5 145 q0 97 -67 147t-197 50h-150v-392z" />
<glyph unicode="C" horiz-adv-x="1317" d="M96 702q0 337 212.5 543.5t563.5 206.5q109 0 295 -54q55 -15 80 -22l-18 -225q-8 3 -21 8q-198 74 -309 74q-234 0 -374 -145t-140 -386q0 -228 144.5 -370t381.5 -142q79 0 238 55q56 19 84 27l24 -225q-26 -7 -77 -21q-193 -55 -293 -55q-367 0 -579 197t-212 534z " />
<glyph unicode="D" horiz-adv-x="1475" d="M158 0v1421h407q181 0 309.5 -25t210.5 -77q153 -97 229.5 -249t76.5 -357t-77.5 -356.5t-232.5 -247.5q-87 -56 -218.5 -82.5t-319.5 -26.5h-385zM440 219h162q236 0 367 131t131 367q0 240 -130.5 366.5t-375.5 126.5h-154v-991z" />
<glyph unicode="E" horiz-adv-x="1165" d="M158 0v1421h868v-204h-588v-377h557v-209h-557v-416h609v-215h-889z" />
<glyph unicode="F" horiz-adv-x="1051" d="M158 0v1421h827v-207h-545v-387h521v-209h-521v-618h-282z" />
<glyph unicode="G" horiz-adv-x="1513" d="M102 705q0 346 218 546.5t598 200.5q91 0 284 -48q79 -19 119 -28l-29 -223q-11 4 -32 11q-213 75 -332 75q-238 0 -387.5 -150.5t-149.5 -386.5q0 -226 143 -369t373 -143q52 0 152 33q22 7 32 10l1 363h-263v201h527v-734q-157 -52 -260 -72t-197 -20 q-370 0 -583.5 197t-213.5 537z" />
<glyph unicode="H" horiz-adv-x="1432" d="M158 0v1421h280v-575h553v575h281v-1421h-281v629h-553v-629h-280z" />
<glyph unicode="I" horiz-adv-x="598" d="M158 0v1421h280v-1421h-280z" />
<glyph unicode="J" horiz-adv-x="811" d="M18 244q36 -14 68 -20.5t61 -6.5q125 0 174.5 72.5t49.5 277.5v854h280v-919q0 -274 -104 -398t-332 -124q-45 0 -94.5 6.5t-101.5 19.5z" />
<glyph unicode="K" horiz-adv-x="1294" d="M158 0v1421h280v-620l523 620h321l-586 -659l641 -762h-354l-545 680v-680h-280z" />
<glyph unicode="L" horiz-adv-x="1032" d="M158 0v1421h280v-1204h570v-217h-850z" />
<glyph unicode="M" horiz-adv-x="1939" d="M158 0v1421h426l344 -987q14 -43 24.5 -103t16.5 -132q5 77 14.5 135.5t24.5 99.5l356 987h420v-1421h-268v1051q0 62 4.5 126t13.5 127q-16 -66 -31 -122t-24 -84l-398 -1098h-250l-389 1087q-15 46 -28.5 101t-24.5 116q10 -123 13 -177.5t4 -77.5v-1049h-248z" />
<glyph unicode="N" horiz-adv-x="1503" d="M158 0v1421h352l522 -993q20 -41 44.5 -107t49.5 -151q-17 101 -25.5 184t-8.5 142v925h254v-1421h-347l-538 1016q-21 38 -42 100t-42 146q16 -125 25.5 -214.5t9.5 -125.5v-922h-254z" />
<glyph unicode="O" horiz-adv-x="1538" d="M96 711q0 347 179.5 544t492.5 197t493.5 -198t180.5 -543q0 -346 -179.5 -543t-494.5 -197q-314 0 -493 197t-179 543zM381 715q0 -240 106 -384.5t281 -144.5t282 145t107 384q0 238 -107 382t-282 144q-174 0 -280.5 -143.5t-106.5 -382.5z" />
<glyph unicode="P" horiz-adv-x="1171" d="M160 0v1421h422q276 0 409 -108.5t133 -333.5q0 -208 -139 -323t-393 -115h-152v-541h-280zM440 741h115q137 0 210 61.5t73 176.5q0 116 -69.5 179t-197.5 63h-131v-480z" />
<glyph unicode="Q" horiz-adv-x="1538" d="M96 711q0 347 179.5 544t492.5 197t493.5 -198t180.5 -543q0 -245 -88.5 -411t-270.5 -261l318 -309h-324l-237 245q-10 0 -28 -1t-26 -1q-329 0 -509.5 193t-180.5 545zM381 715q0 -240 106 -384.5t281 -144.5t282 145t107 384q0 238 -107 382t-282 144 q-174 0 -280.5 -143.5t-106.5 -382.5z" />
<glyph unicode="R" horiz-adv-x="1249" d="M158 0v1421h465q260 0 390 -91.5t130 -274.5q0 -137 -77 -226.5t-220 -119.5q61 -20 98.5 -60t83.5 -155l197 -494h-295l-160 430q-34 93 -88 129.5t-160 36.5h-88v-596h-276zM434 795h144q136 0 210 56t74 159q0 110 -73.5 161.5t-231.5 51.5h-123v-428z" />
<glyph unicode="S" horiz-adv-x="1145" d="M121 52l26 243q120 -59 201 -84t148 -25q113 0 183.5 52.5t70.5 132.5q0 104 -228 228l-24 13q-9 5 -29 15q-169 90 -238 164q-49 52 -74.5 118t-25.5 140q0 181 141.5 292t378.5 111q92 0 268 -49q46 -13 68 -19l-24 -223q-80 36 -158.5 54t-155.5 18q-113 0 -176 -41.5 t-63 -116.5q0 -93 228 -208l34 -17q213 -108 290.5 -204.5t77.5 -231.5q0 -197 -150 -322t-394 -125q-100 0 -337 72q-25 8 -38 13z" />
<glyph unicode="T" horiz-adv-x="1077" d="M23 1202v219h1034v-219h-379v-1202h-281v1202h-374z" />
<glyph unicode="U" horiz-adv-x="1444" d="M150 584v837h280v-833q0 -207 69.5 -303.5t217.5 -96.5q149 0 225 103.5t76 306.5v823h264v-825q0 -312 -142.5 -468.5t-426.5 -156.5q-279 0 -421 155t-142 458z" />
<glyph unicode="V" horiz-adv-x="1358" d="M20 1421h297l373 -1173l377 1173h285l-506 -1421h-340z" />
<glyph unicode="W" horiz-adv-x="1974" d="M23 1421h284l223 -1065q4 -18 11.5 -78.5t15.5 -139.5q3 63 8.5 117t14.5 95l233 1071h358l238 -1069q6 -28 13 -85.5t14 -128.5q2 53 8.5 106t15.5 100l234 1077h262l-348 -1421h-357l-241 1093q-8 36 -14 86.5t-11 116.5q-4 -60 -10.5 -113t-13.5 -89l-238 -1094h-354z " />
<glyph unicode="X" horiz-adv-x="1346" d="M8 0l500 745l-449 676h328l303 -534l295 534h305l-446 -676l493 -745h-329l-342 590l-349 -590h-309z" />
<glyph unicode="Y" horiz-adv-x="1231" d="M-43 1421h322l346 -641l346 641h303l-520 -858v-563h-281v559z" />
<glyph unicode="Z" horiz-adv-x="1167" d="M78 0v246l721 964h-699v211h992v-233l-727 -973h735v-215h-1022z" />
<glyph unicode="[" horiz-adv-x="737" d="M193 -270v1814h434v-170h-213v-1474h213v-170h-434z" />
<glyph unicode="\" horiz-adv-x="569" d="M-49 1452h182l541 -1642h-180z" />
<glyph unicode="]" horiz-adv-x="737" d="M109 -100h215v1474h-215v170h436v-1814h-436v170z" />
<glyph unicode="^" horiz-adv-x="2048" d="M416 899l481 561h252l481 -561h-235l-371 371l-373 -371h-235z" />
<glyph unicode="_" horiz-adv-x="1024" d="M0 -279h1024v-204h-1024v204z" />
<glyph unicode="`" horiz-adv-x="1024" d="M233 1538h234l199 -360h-127z" />
<glyph unicode="a" horiz-adv-x="1153" d="M78 301q0 173 137 259.5t410 86.5h137v15q0 106 -67 164.5t-189 58.5q-69 0 -143.5 -21t-153.5 -63l-4 190q93 38 183 56t181 18q234 0 341.5 -113.5t107.5 -359.5v-592h-236l-4 168q-65 -96 -154 -145.5t-198 -49.5q-156 0 -252 91.5t-96 236.5zM340 315 q0 -68 47 -110.5t123 -42.5q110 0 181 77.5t71 200.5v56h-94q-163 0 -245.5 -45.5t-82.5 -135.5z" />
<glyph unicode="b" horiz-adv-x="1300" d="M152 0v1532h268v-649q59 89 145.5 135.5t196.5 46.5q201 0 322.5 -144t121.5 -384q0 -246 -124 -399.5t-320 -153.5q-121 0 -216 58t-153 167v-209h-241zM420 524q0 -154 70 -245t188 -91q113 0 181.5 90t68.5 240q0 158 -66.5 252t-175.5 94q-123 0 -194.5 -91 t-71.5 -249z" />
<glyph unicode="c" horiz-adv-x="1004" d="M86 528q0 233 156.5 385t398.5 152q89 0 236 -40q34 -9 51 -13l-21 -209q-71 28 -121 40.5t-88 12.5q-150 0 -241.5 -92t-91.5 -242t91.5 -245t237.5 -95q53 0 107.5 16t122.5 52l10 -213q-111 -38 -173.5 -51t-117.5 -13q-254 0 -405.5 151.5t-151.5 403.5z" />
<glyph unicode="d" horiz-adv-x="1300" d="M94 537q0 237 119.5 382.5t312.5 145.5q118 0 205.5 -45t149.5 -137v649h266v-1532h-240v209q-63 -113 -157 -169t-218 -56q-191 0 -314.5 154.5t-123.5 398.5zM371 524q0 -155 67 -245.5t183 -90.5q117 0 187.5 91t70.5 245q0 158 -71 249t-194 91q-108 0 -175.5 -93.5 t-67.5 -246.5z" />
<glyph unicode="e" horiz-adv-x="1128" d="M84 537q0 236 142.5 382t371.5 146q226 0 351.5 -140.5t125.5 -394.5v-84h-731q11 -131 101.5 -206.5t238.5 -75.5q81 0 157.5 19t147.5 57v-205q-76 -31 -164 -46.5t-188 -15.5q-260 0 -406.5 149.5t-146.5 414.5zM344 612h490q-11 132 -74 205.5t-164 73.5 q-103 0 -170 -73.5t-82 -205.5z" />
<glyph unicode="f" horiz-adv-x="799" d="M43 840v198h217v133q0 188 93.5 284.5t273.5 96.5q43 0 83 -5t76 -15l-14 -195q-29 11 -53 16t-43 5q-78 0 -115 -50.5t-37 -156.5v-113h246v-198h-246v-840h-264v840h-217z" />
<glyph unicode="g" horiz-adv-x="1286" d="M90 528q0 239 124 388t323 149q117 0 206 -50.5t154 -154.5v178h248v-911q0 -289 -143.5 -431t-434.5 -142q-93 0 -184.5 16.5t-179.5 48.5l16 215q83 -41 165 -62.5t159 -21.5q161 0 251.5 88.5t90.5 245.5v113q-70 -99 -155 -146t-191 -47q-202 0 -325.5 144 t-123.5 380zM373 541q0 -151 67.5 -240.5t180.5 -89.5q110 0 181.5 88.5t71.5 228.5q0 155 -69 244.5t-187 89.5q-110 0 -177.5 -88t-67.5 -233z" />
<glyph unicode="h" d="M156 0v1532h266v-649q55 90 142.5 136t203.5 46q183 0 277 -113.5t94 -333.5v-618h-269v561q0 144 -49.5 212.5t-154.5 68.5q-112 0 -178 -87.5t-66 -238.5v-516h-266z" />
<glyph unicode="i" horiz-adv-x="569" d="M152 0v1038h266v-1038h-266zM152 1245v258h266v-258h-266z" />
<glyph unicode="j" horiz-adv-x="569" d="M-70 -428l11 184q19 -3 34.5 -4.5t28.5 -1.5q81 0 114.5 52t33.5 186v1050h266v-1065q0 -213 -79 -315t-243 -102q-48 0 -89 4t-77 12zM152 1245v258h266v-258h-266z" />
<glyph unicode="k" horiz-adv-x="1116" d="M156 0v1532h266v-909l352 415h299l-409 -446l456 -592h-325l-373 545v-545h-266z" />
<glyph unicode="l" horiz-adv-x="569" d="M152 0v1532h266v-1532h-266z" />
<glyph unicode="m" horiz-adv-x="1917" d="M156 0v1038h241v-188q59 106 149 159.5t210 53.5q107 0 189.5 -58t125.5 -163q60 110 151.5 165.5t213.5 55.5q166 0 256 -115.5t90 -329.5v-618h-266v561q0 142 -44 209.5t-135 67.5q-109 0 -172 -85.5t-63 -236.5v-516h-266v561q0 141 -44.5 209t-136.5 68 q-109 0 -172 -85.5t-63 -236.5v-516h-264z" />
<glyph unicode="n" d="M156 0v1038h243v-188q59 106 152.5 160.5t216.5 54.5q183 0 277 -113.5t94 -333.5v-618h-269v561q0 144 -49.5 212.5t-154.5 68.5q-112 0 -178 -87.5t-66 -238.5v-516h-266z" />
<glyph unicode="o" d="M86 520q0 255 146.5 400t404.5 145t405.5 -145t147.5 -400q0 -254 -148 -400.5t-405 -146.5t-404 146t-147 401zM365 522q0 -156 75.5 -252t196.5 -96q123 0 197.5 95t74.5 253q0 159 -75 254.5t-197 95.5q-121 0 -196.5 -96.5t-75.5 -253.5z" />
<glyph unicode="p" horiz-adv-x="1300" d="M156 -428v1466h239v-198q60 110 156 167.5t219 57.5q198 0 319 -147t121 -392q0 -243 -124 -396t-318 -153q-113 0 -200.5 45.5t-145.5 135.5v-586h-266zM422 522q0 -154 70 -246t186 -92q118 0 187 92.5t69 251.5q0 151 -67 241.5t-177 90.5q-124 0 -196 -90.5 t-72 -247.5z" />
<glyph unicode="q" horiz-adv-x="1300" d="M88 524q0 246 123 393.5t326 147.5q118 0 213.5 -58.5t154.5 -166.5v198h240v-1466h-266v586q-59 -88 -146 -134.5t-194 -46.5q-202 0 -326.5 150.5t-124.5 396.5zM367 522q0 -154 70 -246t186 -92q115 0 184.5 90.5t69.5 241.5q0 161 -71.5 252.5t-195.5 91.5 q-111 0 -177 -91.5t-66 -246.5z" />
<glyph unicode="r" horiz-adv-x="809" d="M156 0v1038h239v-207q50 116 126.5 174t180.5 58q18 0 40 -2.5t52 -7.5l-10 -240q-21 7 -44 10.5t-48 3.5q-132 0 -201 -87.5t-69 -254.5v-485h-266z" />
<glyph unicode="s" horiz-adv-x="934" d="M98 43l15 205q74 -37 151.5 -55.5t153.5 -18.5q79 0 122.5 26.5t43.5 73.5q0 77 -206 180l-5 3q-154 76 -208 141t-54 158q0 137 115.5 223t303.5 86q50 0 111 -12t174 -47l-20 -197q-69 36 -136 54t-133 18q-72 0 -110.5 -24.5t-38.5 -70.5q0 -69 163 -141l27 -12 q167 -74 230 -145.5t63 -176.5q0 -148 -118 -234.5t-322 -86.5q-86 0 -167.5 13.5t-154.5 39.5z" />
<glyph unicode="t" horiz-adv-x="823" d="M39 842v196h217v252l256 86v-338h250v-196h-250v-455q0 -116 36 -166.5t118 -50.5q21 0 47 4.5t55 13.5l4 -187q-44 -12 -90.5 -17.5t-93.5 -6.5q-184 0 -264 91t-80 303v471h-205z" />
<glyph unicode="u" d="M133 430v608h268v-551q0 -144 50 -212t155 -68q119 0 181.5 94.5t62.5 273.5v463h268v-1038h-244v199q-58 -106 -151.5 -160.5t-216.5 -54.5q-183 0 -278 113.5t-95 332.5z" />
<glyph unicode="v" horiz-adv-x="1081" d="M25 1038h286l248 -798l254 798h266l-377 -1038h-307z" />
<glyph unicode="w" horiz-adv-x="1769" d="M31 1038h284l185 -737q5 -24 10.5 -68t9.5 -97q5 59 11 104.5t10 58.5l202 739h324l199 -744q4 -15 8.5 -55t9.5 -103q6 87 9 118t5 38l199 746h260l-330 -1038h-305l-209 776q-7 28 -12 65.5t-6 77.5q-6 -59 -10.5 -94t-7.5 -44l-213 -781h-310z" />
<glyph unicode="x" horiz-adv-x="1049" d="M6 0l365 543l-328 495h313l191 -348l196 348h291l-329 -489l352 -549h-314l-215 391l-225 -391h-297z" />
<glyph unicode="y" horiz-adv-x="1087" d="M25 1038h288l258 -794l252 794h269l-410 -1085q-84 -225 -182.5 -312t-259.5 -87q-27 0 -64.5 4t-87.5 12l23 209q22 -7 43.5 -10.5t42.5 -4.5q78 0 132.5 46t104.5 153z" />
<glyph unicode="z" horiz-adv-x="991" d="M78 0v227l545 611h-527v200h824v-213l-558 -624h558v-201h-842z" />
<glyph unicode="{" horiz-adv-x="1024" d="M158 426v209q7 0 21 -1t20 -1q120 0 171.5 58t51.5 196v250q0 143 23.5 201t80.5 92q47 25 114 37t167 12q12 0 37 -1t39 -1v-209q-9 0 -25 1t-22 1q-101 0 -136.5 -38.5t-35.5 -162.5v-240q0 -148 -45 -210t-162 -89q117 -27 162 -88t45 -209v-241q0 -123 35 -161 t137 -38q6 0 22 1t25 1v-209q-14 0 -39 -1t-37 -1q-100 0 -167 12t-114 37q-57 34 -80.5 91.5t-23.5 199.5v252q0 137 -51 194.5t-172 57.5q-6 0 -20 -1t-21 -1z" />
<glyph unicode="|" horiz-adv-x="1024" d="M410 -483v2048h206v-2048h-206z" />
<glyph unicode="}" horiz-adv-x="1024" d="M143 -205q9 0 25 -1t22 -1q101 0 136.5 38.5t35.5 160.5v239q0 150 45 211.5t162 87.5q-117 27 -162 89t-45 210v242q0 122 -35.5 160.5t-136.5 38.5q-6 0 -22 -1t-25 -1v209h68q110 0 177 -12t112 -38q57 -32 80.5 -91.5t23.5 -198.5v-252q0 -137 51 -194.5t172 -57.5 q6 0 20 1t21 1v-209h-37q-125 0 -176 -56t-51 -194v-252q0 -143 -23.5 -201t-80.5 -90q-47 -25 -114 -37t-167 -12q-12 0 -37 1t-39 1v209z" />
<glyph unicode="~" horiz-adv-x="1706" d="M178 418v221q107 72 204 107.5t183 35.5q117 0 291 -58l4 -1q18 -6 55 -19q155 -55 240 -55t175 37t200 117v-221q-104 -71 -196.5 -104.5t-182.5 -33.5q-46 0 -92 8t-92 23q-24 8 -71 25q-219 75 -333 75q-85 0 -177.5 -37.5t-207.5 -119.5z" />
<glyph unicode="&#xa1;" horiz-adv-x="846" d="M279 0l43 995h200l43 -995h-286zM289 1161v260h268v-260h-268z" />
<glyph unicode="&#xa2;" horiz-adv-x="1214" d="M176 551q0 239 157.5 389t409.5 150q37 0 56.5 -1t38.5 -4l77 248h109l-84 -268q23 -6 43.5 -12t38.5 -13l-23 -217q-28 16 -57.5 27.5t-60.5 19.5l-199 -637q30 -9 56.5 -13.5t49.5 -4.5q58 0 115 15t113 44l6 -223q-57 -24 -125.5 -36.5t-148.5 -12.5q-36 0 -69.5 3 t-66.5 9l-86 -282h-108l96 313q-161 52 -249.5 184.5t-88.5 321.5zM457 543q0 -85 32.5 -151t96.5 -109l190 597q-144 -3 -231.5 -96t-87.5 -241z" />
<glyph unicode="&#xa3;" horiz-adv-x="1214" d="M160 0v209h200v475h-172v154h172v51q0 280 131 421.5t390 141.5q47 0 104.5 -9.5t128.5 -29.5l-14 -209q-44 21 -89 31t-91 10q-149 0 -224 -94.5t-75 -282.5v-30h317v-154h-317v-475h469v-209h-930z" />
<glyph unicode="&#xa4;" horiz-adv-x="1214" d="M92 496l29 118l145 1q-1 15 -1.5 32.5t-0.5 54.5q0 42 0.5 62t1.5 36l-157 1l28 119h144q42 256 181 394t357 138q64 0 142 -20.5t149 -55.5l-14 -225q-66 39 -132 60.5t-124 21.5q-125 0 -196 -76t-95 -237h520l-31 -119h-501q-1 -16 -1.5 -36t-0.5 -63q0 -37 0.5 -55 t1.5 -33h473l-29 -118h-432q24 -155 98.5 -230.5t202.5 -75.5q86 0 233 75q10 5 15 7l20 -225q-95 -42 -162.5 -59t-126.5 -17q-228 0 -369 134.5t-181 390.5h-187z" />
<glyph unicode="&#xa5;" horiz-adv-x="1217" d="M-37 1421h293l358 -673l363 673h272l-305 -501h197v-119h-271l-110 -187h381v-118h-412v-496h-250v496h-413v118h380l-112 187h-268v119h196z" />
<glyph unicode="&#xa6;" horiz-adv-x="1024" d="M410 -350v758h206v-758h-206zM410 674v758h206v-758h-206z" />
<glyph unicode="&#xa7;" horiz-adv-x="1024" d="M84 625q0 92 44 160t140 124q-66 48 -98.5 105t-32.5 125q0 144 113.5 228.5t308.5 84.5q44 0 101.5 -7.5t121.5 -21.5q26 -6 54 -13.5t56 -16.5l-28 -191q-73 32 -143.5 48t-134.5 16q-87 0 -141 -35.5t-54 -91.5q0 -76 185 -170q34 -17 53 -27q214 -110 282 -189 t68 -186q0 -82 -43 -153t-127 -127q60 -52 89.5 -109t29.5 -121q0 -146 -121 -234.5t-326 -88.5q-81 0 -176.5 17t-195.5 50l30 199q81 -37 160 -56.5t152 -19.5q95 0 155 39t60 100q0 77 -170 164q-34 17 -52 27q-216 115 -288 193t-72 178zM303 674q0 -71 70 -133 t295 -170q48 45 69 82t21 77q0 117 -338 301l-13 6q-51 -34 -77.5 -75.5t-26.5 -87.5z" />
<glyph unicode="&#xa8;" horiz-adv-x="1024" d="M236 1237v227h206v-227h-206zM582 1237v227h206v-227h-206z" />
<glyph unicode="&#xa9;" horiz-adv-x="1706" d="M111 733q0 149 56 284.5t163 244.5q105 106 238 161.5t284 55.5q152 0 287.5 -56t242.5 -163q105 -105 160 -240.5t55 -286.5q0 -152 -54.5 -284t-160.5 -236q-111 -108 -248 -165.5t-282 -57.5q-147 0 -280.5 56.5t-241.5 164.5q-107 106 -163 240.5t-56 281.5zM233 735 q0 -125 47 -237t136 -201q88 -88 201 -135t237 -47t237.5 47t204.5 137q88 86 133.5 197t45.5 239q0 126 -46.5 238.5t-134.5 200.5q-89 89 -201 135.5t-239 46.5q-128 0 -239.5 -46t-198.5 -134q-89 -90 -136 -203.5t-47 -237.5zM453 729q0 206 109.5 328.5t293.5 122.5 q152 0 250.5 -78t105.5 -205h-188q-8 70 -53 108.5t-119 38.5q-91 0 -143 -81.5t-52 -227.5q0 -147 52 -224t151 -77q73 0 117 42t53 119l193 1q-8 -139 -109 -223t-260 -84q-186 0 -293.5 118t-107.5 322z" />
<glyph unicode="&#xaa;" horiz-adv-x="864" d="M59 905q0 121 103 181.5t307 60.5h102v10q0 75 -50 115.5t-142 40.5q-52 0 -107.5 -14.5t-113.5 -43.5l-4 134q68 25 136 38t138 13q175 0 255.5 -79.5t80.5 -252.5v-414h-176l-4 117q-49 -67 -116 -101t-149 -34q-116 0 -188 64t-72 165zM256 915q0 -47 35 -77.5 t92 -30.5q83 0 135.5 54.5t52.5 142.5v36h-69q-123 0 -184.5 -31t-61.5 -94z" />
<glyph unicode="&#xab;" horiz-adv-x="1098" d="M68 537l254 417h225l-238 -417l238 -416h-228zM545 537l256 417h229l-239 -417l235 -416h-225z" />
<glyph unicode="&#xac;" horiz-adv-x="1706" d="M254 668v196h1198v-502h-199v306h-999z" />
<glyph unicode="&#xad;" horiz-adv-x="692" d="M82 471v209h526v-209h-526z" />
<glyph unicode="&#xae;" horiz-adv-x="1706" d="M111 733q0 102 27 198.5t81 188.5q101 170 267 264.5t366 94.5q154 0 290.5 -57.5t243.5 -166.5q103 -104 157 -238t54 -284q0 -152 -56 -287.5t-163 -238.5q-107 -105 -243.5 -161t-282.5 -56q-149 0 -285 58t-243 167q-104 105 -158.5 238.5t-54.5 279.5zM233 735 q0 -124 46 -235.5t133 -198.5q89 -91 203 -139.5t237 -48.5q120 0 233.5 47t206.5 135q87 84 135 196t48 232q0 133 -44.5 245t-132.5 201q-90 93 -202.5 140t-241.5 47q-127 0 -236 -44.5t-196 -131.5q-91 -91 -140 -206.5t-49 -238.5zM545 336v825h323q176 0 264.5 -59.5 t88.5 -177.5q0 -82 -48 -140t-133 -79l185 -369h-224l-157 338h-99v-338h-200zM745 795h99q88 0 129 28t41 88q0 63 -44 93t-136 30h-89v-239z" />
<glyph unicode="&#xaf;" horiz-adv-x="1024" d="M225 1278v147h574v-147h-574z" />
<glyph unicode="&#xb0;" horiz-adv-x="674" d="M35 1159q0 127 88.5 216t214.5 89t214.5 -89.5t88.5 -215.5q0 -125 -89 -214t-216 -89q-126 0 -213.5 88t-87.5 215zM162 1161q0 -74 51 -125t125 -51q72 0 123 52t51 124t-51 123t-123 51q-73 0 -124.5 -51t-51.5 -123z" />
<glyph unicode="&#xb1;" horiz-adv-x="1706" d="M254 -2v199h1198v-199h-1198zM254 698v199h498v326h202v-326h498v-199h-498v-325h-202v325h-498z" />
<glyph unicode="&#xb2;" horiz-adv-x="801" d="M80 569v129q238 196 329 303t91 185q0 53 -44.5 86t-117.5 33q-53 0 -109.5 -15.5t-111.5 -44.5l-11 139q77 28 144 42t123 14q137 0 222 -67t85 -173q0 -101 -86 -217t-293 -289h401v-125h-622z" />
<glyph unicode="&#xb3;" horiz-adv-x="801" d="M63 594l15 139q45 -21 95.5 -32t109.5 -11q102 0 164.5 39.5t62.5 101.5q0 58 -48 87.5t-140 29.5h-107v121h104q86 0 136.5 31.5t50.5 85.5q0 52 -53.5 85.5t-139.5 33.5q-48 0 -99.5 -10t-102.5 -29l-9 133q17 3 53 11q139 30 201 30q149 0 238.5 -65.5t89.5 -170.5 q0 -70 -48 -120t-132 -68q94 -20 144 -71t50 -126q0 -116 -108 -187t-289 -71q-58 0 -117.5 8.5t-120.5 24.5z" />
<glyph unicode="&#xb4;" horiz-adv-x="1024" d="M358 1178l199 360h234l-306 -360h-127z" />
<glyph unicode="&#xb5;" horiz-adv-x="1249" d="M-63 -438l268 1530h289l-76 -435q-15 -80 -23 -151.5t-8 -116.5q0 -93 42 -138.5t128 -45.5q100 0 155.5 82t92.5 291l90 514h289l-193 -1092h-268l18 117q-42 -78 -93.5 -114t-121.5 -36q-67 0 -119 29.5t-94 91.5l-90 -526h-286z" />
<glyph unicode="&#xb6;" horiz-adv-x="1024" d="M41 1130q0 158 107 253.5t284 95.5h551v-111h-113v-1368h-151v1368h-158v-1368h-153v784q-167 6 -267 101t-100 245z" />
<glyph unicode="&#xb7;" horiz-adv-x="606" d="M164 711q0 57 41 99t98 42q59 0 100 -41t41 -100q0 -58 -41.5 -99t-99.5 -41q-57 0 -98 41.5t-41 98.5z" />
<glyph unicode="&#xb8;" horiz-adv-x="1024" d="M248 -317q72 -20 137.5 -29.5t118.5 -9.5t78.5 18.5t25.5 56.5q0 43 -29 61.5t-98 18.5q-21 0 -32.5 -0.5t-20.5 -0.5v202h94v-94h15q113 0 171 -47.5t58 -141.5q0 -93 -65 -141.5t-191 -48.5q-51 0 -117 11t-145 32v113z" />
<glyph unicode="&#xb9;" horiz-adv-x="801" d="M115 1241l274 180h148v-852h-170v678l-164 -114z" />
<glyph unicode="&#xba;" horiz-adv-x="956" d="M66 1059q0 178 109 279.5t302 101.5q194 0 305 -101.5t111 -279.5t-111 -280.5t-305 -102.5q-192 0 -301.5 102.5t-109.5 280.5zM274 1061q0 -109 56.5 -176.5t146.5 -67.5q93 0 149 66.5t56 177.5q0 110 -56.5 177t-148.5 67q-89 0 -146 -68t-57 -176z" />
<glyph unicode="&#xbb;" horiz-adv-x="1098" d="M68 121l239 416l-237 417h227l252 -417l-254 -416h-227zM547 121l239 416l-239 417h229l252 -417l-254 -416h-227z" />
<glyph unicode="&#xbc;" horiz-adv-x="1872" d="M109 1253l262 170h141v-796h-164v633l-155 -107zM471 -29l756 1481h170l-752 -1481h-174zM1141 168v135l375 494h202v-516h125v-113h-125v-168h-164v168h-413zM1272 281h282l7 393z" />
<glyph unicode="&#xbd;" horiz-adv-x="1872" d="M109 1253l262 170h141v-796h-164v633l-155 -107zM471 -29l756 1481h170l-752 -1481h-174zM1182 0v121q227 182 313 282t86 172q0 49 -42 80t-109 31q-49 0 -103 -14t-108 -41l-11 131q68 24 132 36.5t122 12.5q131 0 212 -62t81 -159q0 -96 -82.5 -204.5t-279.5 -268.5 h385v-117h-596z" />
<glyph unicode="&#xbe;" horiz-adv-x="1872" d="M61 649l13 131q44 -20 93 -30.5t103 -10.5q98 0 157.5 37t59.5 96q0 54 -45.5 81.5t-134.5 27.5h-102v111h100q82 0 130 30t48 80q0 49 -51 80t-133 31q-47 0 -96.5 -9t-96.5 -26l-10 123q23 4 69 14q121 25 175 25q142 0 227.5 -61.5t85.5 -159.5q0 -65 -46 -112 t-128 -65q89 -16 138 -64t49 -118q0 -109 -102.5 -174t-276.5 -65q-57 0 -113.5 7t-112.5 21zM473 -29l756 1481h170l-752 -1481h-174zM1143 168v135l375 494h202v-516h125v-113h-125v-168h-164v168h-413zM1274 281h282l7 393z" />
<glyph unicode="&#xbf;" horiz-adv-x="1092" d="M152 334q0 76 33.5 149t140.5 203q96 114 125.5 174t29.5 119q0 4 -1 11t-1 11h226q1 -9 1.5 -18t0.5 -27q0 -64 -23 -124t-76 -132q-22 -29 -66 -82q-126 -153 -126 -243q0 -87 71 -142t185 -55q62 0 133.5 16.5t150.5 49.5l7 -213q-90 -28 -173.5 -42t-162.5 -14 q-219 0 -347 97.5t-128 261.5zM463 1161v260h266v-260h-266z" />
<glyph unicode="&#xc0;" horiz-adv-x="1395" d="M-10 0l553 1421h338l549 -1421h-302l-118 336h-619l-123 -336h-278zM419 1923h234l199 -360h-127zM469 545h467l-229 639z" />
<glyph unicode="&#xc1;" horiz-adv-x="1395" d="M-10 0l553 1421h338l549 -1421h-302l-118 336h-619l-123 -336h-278zM469 545h467l-229 639zM544 1563l199 360h234l-306 -360h-127z" />
<glyph unicode="&#xc2;" horiz-adv-x="1395" d="M-10 0l553 1421h338l549 -1421h-302l-118 336h-619l-123 -336h-278zM395 1563l197 360h212l197 -360h-129l-174 223l-174 -223h-129zM469 545h467l-229 639z" />
<glyph unicode="&#xc3;" horiz-adv-x="1395" d="M-10 0l553 1421h338l549 -1421h-302l-118 336h-619l-123 -336h-278zM385 1612q26 111 76.5 165t127.5 54q22 0 40.5 -2.5t35.5 -7.5l97 -29q17 -6 29 -8t26 -2q34 0 57 20.5t35 61.5h102q-30 -118 -79 -172t-128 -54q-21 0 -38 2.5t-34 8.5l-91 28q-16 5 -31 7.5t-27 3.5 q-36 0 -59 -18.5t-37 -57.5h-102zM469 545h467l-229 639z" />
<glyph unicode="&#xc4;" horiz-adv-x="1395" d="M-10 0l553 1421h338l549 -1421h-302l-118 336h-619l-123 -336h-278zM422 1622v227h206v-227h-206zM469 545h467l-229 639zM768 1622v227h206v-227h-206z" />
<glyph unicode="&#xc5;" horiz-adv-x="1395" d="M-10 0l553 1421h338l549 -1421h-302l-118 336h-619l-123 -336h-278zM451 1747q0 109 74.5 184.5t183.5 75.5q108 0 184 -76t76 -184q0 -109 -75.5 -183.5t-184.5 -74.5t-183.5 74.5t-74.5 183.5zM469 545h467l-229 639zM582 1747q0 -54 37 -90.5t92 -36.5q54 0 90.5 36.5 t36.5 90.5t-37 91.5t-90 37.5q-54 0 -91.5 -37.5t-37.5 -91.5z" />
<glyph unicode="&#xc6;" horiz-adv-x="1921" d="M-49 0l805 1421h1028v-207h-574v-374h539v-209h-539v-416h594v-215h-864v334h-518l-180 -334h-291zM530 543h410v690h-35z" />
<glyph unicode="&#xc7;" horiz-adv-x="1317" d="M96 702q0 337 212.5 543.5t563.5 206.5q109 0 295 -54q55 -15 80 -22l-18 -225q-8 3 -21 8q-198 74 -309 74q-234 0 -374 -145t-140 -386q0 -228 144.5 -370t381.5 -142q79 0 238 55q56 19 84 27l24 -225q-26 -7 -77 -21q-193 -55 -293 -55q-367 0 -579 197t-212 534z M541 -317q72 -20 137.5 -29.5t118.5 -9.5t78.5 18.5t25.5 56.5q0 43 -29 61.5t-98 18.5q-21 0 -32.5 -0.5t-20.5 -0.5v202h94v-94h15q113 0 171 -47.5t58 -141.5q0 -93 -65 -141.5t-191 -48.5q-51 0 -117 11t-145 32v113z" />
<glyph unicode="&#xc8;" horiz-adv-x="1165" d="M158 0v1421h868v-204h-588v-377h557v-209h-557v-416h609v-215h-889zM305 1923h234l199 -360h-127z" />
<glyph unicode="&#xc9;" horiz-adv-x="1165" d="M158 0v1421h868v-204h-588v-377h557v-209h-557v-416h609v-215h-889zM430 1563l199 360h234l-306 -360h-127z" />
<glyph unicode="&#xca;" horiz-adv-x="1165" d="M158 0v1421h868v-204h-588v-377h557v-209h-557v-416h609v-215h-889zM281 1563l197 360h212l197 -360h-129l-174 223l-174 -223h-129z" />
<glyph unicode="&#xcb;" horiz-adv-x="1165" d="M158 0v1421h868v-204h-588v-377h557v-209h-557v-416h609v-215h-889zM308 1622v227h206v-227h-206zM654 1622v227h206v-227h-206z" />
<glyph unicode="&#xcc;" horiz-adv-x="598" d="M20 1923h234l199 -360h-127zM158 0v1421h280v-1421h-280z" />
<glyph unicode="&#xcd;" horiz-adv-x="598" d="M145 1563l199 360h234l-306 -360h-127zM158 0v1421h280v-1421h-280z" />
<glyph unicode="&#xce;" horiz-adv-x="598" d="M-4 1563l197 360h212l197 -360h-129l-174 223l-174 -223h-129zM158 0v1421h280v-1421h-280z" />
<glyph unicode="&#xcf;" horiz-adv-x="598" d="M23 1622v227h206v-227h-206zM158 0v1421h280v-1421h-280zM369 1622v227h206v-227h-206z" />
<glyph unicode="&#xd0;" horiz-adv-x="1513" d="M39 653v164h160v604h407q180 0 308 -25t210 -77q153 -97 229.5 -249t76.5 -357t-77.5 -356.5t-232.5 -247.5q-87 -56 -218.5 -82.5t-319.5 -26.5h-383v653h-160zM479 219h164q236 0 366 131t130 367q0 240 -130.5 366.5t-375.5 126.5h-154v-393h287v-164h-287v-434z" />
<glyph unicode="&#xd1;" horiz-adv-x="1503" d="M158 0v1421h352l522 -993q20 -41 44.5 -107t49.5 -151q-17 101 -25.5 184t-8.5 142v925h254v-1421h-347l-538 1016q-21 38 -42 100t-42 146q16 -125 25.5 -214.5t9.5 -125.5v-922h-254zM439 1612q26 111 76.5 165t127.5 54q22 0 40.5 -2.5t35.5 -7.5l97 -29q17 -6 29 -8 t26 -2q34 0 57 20.5t35 61.5h102q-30 -118 -79 -172t-128 -54q-21 0 -38 2.5t-34 8.5l-91 28q-16 5 -31 7.5t-27 3.5q-36 0 -59 -18.5t-37 -57.5h-102z" />
<glyph unicode="&#xd2;" horiz-adv-x="1538" d="M96 711q0 347 179.5 544t492.5 197t493.5 -198t180.5 -543q0 -346 -179.5 -543t-494.5 -197q-314 0 -493 197t-179 543zM381 715q0 -240 106 -384.5t281 -144.5t282 145t107 384q0 238 -107 382t-282 144q-174 0 -280.5 -143.5t-106.5 -382.5zM491 1923h234l199 -360 h-127z" />
<glyph unicode="&#xd3;" horiz-adv-x="1538" d="M96 711q0 347 179.5 544t492.5 197t493.5 -198t180.5 -543q0 -346 -179.5 -543t-494.5 -197q-314 0 -493 197t-179 543zM381 715q0 -240 106 -384.5t281 -144.5t282 145t107 384q0 238 -107 382t-282 144q-174 0 -280.5 -143.5t-106.5 -382.5zM616 1563l199 360h234 l-306 -360h-127z" />
<glyph unicode="&#xd4;" horiz-adv-x="1538" d="M96 711q0 347 179.5 544t492.5 197t493.5 -198t180.5 -543q0 -346 -179.5 -543t-494.5 -197q-314 0 -493 197t-179 543zM381 715q0 -240 106 -384.5t281 -144.5t282 145t107 384q0 238 -107 382t-282 144q-174 0 -280.5 -143.5t-106.5 -382.5zM467 1563l197 360h212 l197 -360h-129l-174 223l-174 -223h-129z" />
<glyph unicode="&#xd5;" horiz-adv-x="1538" d="M96 711q0 347 179.5 544t492.5 197t493.5 -198t180.5 -543q0 -346 -179.5 -543t-494.5 -197q-314 0 -493 197t-179 543zM381 715q0 -240 106 -384.5t281 -144.5t282 145t107 384q0 238 -107 382t-282 144q-174 0 -280.5 -143.5t-106.5 -382.5zM457 1612q26 111 76.5 165 t127.5 54q22 0 40.5 -2.5t35.5 -7.5l97 -29q17 -6 29 -8t26 -2q34 0 57 20.5t35 61.5h102q-30 -118 -79 -172t-128 -54q-21 0 -38 2.5t-34 8.5l-91 28q-16 5 -31 7.5t-27 3.5q-36 0 -59 -18.5t-37 -57.5h-102z" />
<glyph unicode="&#xd6;" horiz-adv-x="1538" d="M96 711q0 347 179.5 544t492.5 197t493.5 -198t180.5 -543q0 -346 -179.5 -543t-494.5 -197q-314 0 -493 197t-179 543zM381 715q0 -240 106 -384.5t281 -144.5t282 145t107 384q0 238 -107 382t-282 144q-174 0 -280.5 -143.5t-106.5 -382.5zM494 1622v227h206v-227 h-206zM840 1622v227h206v-227h-206z" />
<glyph unicode="&#xd7;" horiz-adv-x="1706" d="M276 160l451 450l-451 453l140 139l450 -450l451 450l141 -139l-450 -453l450 -450l-141 -140l-451 451l-450 -451z" />
<glyph unicode="&#xd8;" horiz-adv-x="1538" d="M41 31l184 211q-63 93 -96 215t-33 268q0 330 180.5 528.5t477.5 198.5q134 0 244 -34.5t198 -104.5l178 196l123 -112l-184 -209q63 -95 96 -218t33 -265q0 -335 -179.5 -534.5t-478.5 -199.5q-146 0 -255 34.5t-187 105.5l-178 -197zM369 715q0 -74 11 -142t34 -129 l620 691q-53 56 -121 84t-151 28q-177 0 -285 -145t-108 -387zM508 291q45 -53 114 -82t150 -29q182 0 289.5 146t107.5 397q0 76 -11 139.5t-34 118.5z" />
<glyph unicode="&#xd9;" horiz-adv-x="1444" d="M150 584v837h280v-833q0 -207 69.5 -303.5t217.5 -96.5q149 0 225 103.5t76 306.5v823h264v-825q0 -312 -142.5 -468.5t-426.5 -156.5q-279 0 -421 155t-142 458zM444 1923h234l199 -360h-127z" />
<glyph unicode="&#xda;" horiz-adv-x="1444" d="M150 584v837h280v-833q0 -207 69.5 -303.5t217.5 -96.5q149 0 225 103.5t76 306.5v823h264v-825q0 -312 -142.5 -468.5t-426.5 -156.5q-279 0 -421 155t-142 458zM569 1563l199 360h234l-306 -360h-127z" />
<glyph unicode="&#xdb;" horiz-adv-x="1444" d="M150 584v837h280v-833q0 -207 69.5 -303.5t217.5 -96.5q149 0 225 103.5t76 306.5v823h264v-825q0 -312 -142.5 -468.5t-426.5 -156.5q-279 0 -421 155t-142 458zM420 1563l197 360h212l197 -360h-129l-174 223l-174 -223h-129z" />
<glyph unicode="&#xdc;" horiz-adv-x="1444" d="M150 584v837h280v-833q0 -207 69.5 -303.5t217.5 -96.5q149 0 225 103.5t76 306.5v823h264v-825q0 -312 -142.5 -468.5t-426.5 -156.5q-279 0 -421 155t-142 458zM447 1622v227h206v-227h-206zM793 1622v227h206v-227h-206z" />
<glyph unicode="&#xdd;" horiz-adv-x="1231" d="M-43 1421h322l346 -641l346 641h303l-520 -858v-563h-281v559zM462 1563l199 360h234l-306 -360h-127z" />
<glyph unicode="&#xde;" horiz-adv-x="1171" d="M160 0v1421h280v-190h142q275 0 408.5 -109.5t133.5 -335.5q0 -208 -138.5 -322t-393.5 -114h-152v-350h-280zM440 551h115q137 0 210 61.5t73 175.5q0 116 -69 178t-198 62h-131v-477z" />
<glyph unicode="&#xdf;" horiz-adv-x="1268" d="M150 0v1020q0 266 124 399t371 133q221 0 350 -110.5t129 -298.5q0 -127 -71 -213t-201 -117q162 -23 249 -119t87 -252q0 -207 -127.5 -331.5t-339.5 -124.5q-48 0 -97 4.5t-99 13.5l7 205q30 -10 61.5 -15.5t65.5 -5.5q116 0 185 72t69 191q0 120 -76.5 182.5 t-224.5 62.5h-26v203q132 0 204 65t72 183q0 98 -58 157.5t-155 59.5q-122 0 -176.5 -89t-54.5 -290v-985h-268z" />
<glyph unicode="&#xe0;" horiz-adv-x="1153" d="M78 301q0 173 137 259.5t410 86.5h137v15q0 106 -67 164.5t-189 58.5q-69 0 -143.5 -21t-153.5 -63l-4 190q93 38 183 56t181 18q234 0 341.5 -113.5t107.5 -359.5v-592h-236l-4 168q-65 -96 -154 -145.5t-198 -49.5q-156 0 -252 91.5t-96 236.5zM299 1538h234l199 -360 h-127zM340 315q0 -68 47 -110.5t123 -42.5q110 0 181 77.5t71 200.5v56h-94q-163 0 -245.5 -45.5t-82.5 -135.5z" />
<glyph unicode="&#xe1;" horiz-adv-x="1153" d="M78 301q0 173 137 259.5t410 86.5h137v15q0 106 -67 164.5t-189 58.5q-69 0 -143.5 -21t-153.5 -63l-4 190q93 38 183 56t181 18q234 0 341.5 -113.5t107.5 -359.5v-592h-236l-4 168q-65 -96 -154 -145.5t-198 -49.5q-156 0 -252 91.5t-96 236.5zM340 315 q0 -68 47 -110.5t123 -42.5q110 0 181 77.5t71 200.5v56h-94q-163 0 -245.5 -45.5t-82.5 -135.5zM424 1178l199 360h234l-306 -360h-127z" />
<glyph unicode="&#xe2;" horiz-adv-x="1153" d="M78 301q0 173 137 259.5t410 86.5h137v15q0 106 -67 164.5t-189 58.5q-69 0 -143.5 -21t-153.5 -63l-4 190q93 38 183 56t181 18q234 0 341.5 -113.5t107.5 -359.5v-592h-236l-4 168q-65 -96 -154 -145.5t-198 -49.5q-156 0 -252 91.5t-96 236.5zM275 1178l197 360h212 l197 -360h-129l-174 223l-174 -223h-129zM340 315q0 -68 47 -110.5t123 -42.5q110 0 181 77.5t71 200.5v56h-94q-163 0 -245.5 -45.5t-82.5 -135.5z" />
<glyph unicode="&#xe3;" horiz-adv-x="1153" d="M78 301q0 173 137 259.5t410 86.5h137v15q0 106 -67 164.5t-189 58.5q-69 0 -143.5 -21t-153.5 -63l-4 190q93 38 183 56t181 18q234 0 341.5 -113.5t107.5 -359.5v-592h-236l-4 168q-65 -96 -154 -145.5t-198 -49.5q-156 0 -252 91.5t-96 236.5zM265 1227 q26 111 76.5 165t127.5 54q22 0 40.5 -2.5t35.5 -7.5l97 -29q17 -6 29 -8t26 -2q34 0 57 20.5t35 61.5h102q-30 -118 -79 -172t-128 -54q-21 0 -38 2.5t-34 8.5l-91 28q-16 5 -31 7.5t-27 3.5q-36 0 -59 -18.5t-37 -57.5h-102zM340 315q0 -68 47 -110.5t123 -42.5 q110 0 181 77.5t71 200.5v56h-94q-163 0 -245.5 -45.5t-82.5 -135.5z" />
<glyph unicode="&#xe4;" horiz-adv-x="1153" d="M78 301q0 173 137 259.5t410 86.5h137v15q0 106 -67 164.5t-189 58.5q-69 0 -143.5 -21t-153.5 -63l-4 190q93 38 183 56t181 18q234 0 341.5 -113.5t107.5 -359.5v-592h-236l-4 168q-65 -96 -154 -145.5t-198 -49.5q-156 0 -252 91.5t-96 236.5zM302 1237v227h206v-227 h-206zM340 315q0 -68 47 -110.5t123 -42.5q110 0 181 77.5t71 200.5v56h-94q-163 0 -245.5 -45.5t-82.5 -135.5zM648 1237v227h206v-227h-206z" />
<glyph unicode="&#xe5;" horiz-adv-x="1153" d="M78 301q0 173 137 259.5t410 86.5h137v15q0 106 -67 164.5t-189 58.5q-69 0 -143.5 -21t-153.5 -63l-4 190q93 38 183 56t181 18q234 0 341.5 -113.5t107.5 -359.5v-592h-236l-4 168q-61 -91 -149 -135.5t-203 -44.5q-158 0 -253 85.5t-95 227.5zM315 1391 q0 109 75 184.5t183 75.5q109 0 185 -76t76 -184q0 -109 -75.5 -183.5t-185.5 -74.5q-109 0 -183.5 74.5t-74.5 183.5zM340 315q0 -68 47 -110.5t123 -42.5q110 0 181 77.5t71 200.5v56h-94q-163 0 -245.5 -45.5t-82.5 -135.5zM446 1391q0 -54 38 -91.5t91 -37.5 q54 0 90.5 37.5t36.5 91.5t-36.5 91.5t-90.5 37.5q-53 0 -91 -38t-38 -91z" />
<glyph unicode="&#xe6;" horiz-adv-x="1808" d="M80 307q0 169 136.5 254.5t408.5 85.5h137v10q0 111 -64 170.5t-182 59.5q-72 0 -149 -21.5t-158 -64.5l-4 190q83 37 170.5 55.5t175.5 18.5q125 0 217 -39t145 -115q67 77 160.5 115.5t210.5 38.5q223 0 347 -141t124 -394v-71h-731q11 -136 104 -216.5t238 -80.5 q78 0 154 19.5t149 58.5v-205q-75 -30 -163 -46t-185 -16q-169 0 -282.5 61.5t-172.5 184.5q-71 -115 -179.5 -175t-244.5 -60q-168 0 -265 87t-97 236zM336 315q0 -67 49.5 -110t128.5 -43q109 0 178.5 77t69.5 201v56h-111q-151 0 -233 -47t-82 -134zM1024 629h489 q-9 124 -72.5 195t-164.5 71q-102 0 -170 -72t-82 -194z" />
<glyph unicode="&#xe7;" horiz-adv-x="1004" d="M86 528q0 233 156.5 385t398.5 152q89 0 236 -40q34 -9 51 -13l-21 -209q-71 28 -121 40.5t-88 12.5q-150 0 -241.5 -92t-91.5 -242t91.5 -245t237.5 -95q53 0 107.5 16t122.5 52l10 -213q-111 -38 -173.5 -51t-117.5 -13q-254 0 -405.5 151.5t-151.5 403.5zM320 -317 q72 -20 137.5 -29.5t118.5 -9.5t78.5 18.5t25.5 56.5q0 43 -29 61.5t-98 18.5q-21 0 -32.5 -0.5t-20.5 -0.5v202h94v-94h15q113 0 171 -47.5t58 -141.5q0 -93 -65 -141.5t-191 -48.5q-51 0 -117 11t-145 32v113z" />
<glyph unicode="&#xe8;" horiz-adv-x="1128" d="M84 537q0 236 142.5 382t371.5 146q226 0 351.5 -140.5t125.5 -394.5v-84h-731q11 -131 101.5 -206.5t238.5 -75.5q81 0 157.5 19t147.5 57v-205q-76 -31 -164 -46.5t-188 -15.5q-260 0 -406.5 149.5t-146.5 414.5zM315 1538h234l199 -360h-127zM344 612h490 q-11 132 -74 205.5t-164 73.5q-103 0 -170 -73.5t-82 -205.5z" />
<glyph unicode="&#xe9;" horiz-adv-x="1128" d="M84 537q0 236 142.5 382t371.5 146q226 0 351.5 -140.5t125.5 -394.5v-84h-731q11 -131 101.5 -206.5t238.5 -75.5q81 0 157.5 19t147.5 57v-205q-76 -31 -164 -46.5t-188 -15.5q-260 0 -406.5 149.5t-146.5 414.5zM344 612h490q-11 132 -74 205.5t-164 73.5 q-103 0 -170 -73.5t-82 -205.5zM440 1178l199 360h234l-306 -360h-127z" />
<glyph unicode="&#xea;" horiz-adv-x="1128" d="M84 537q0 236 142.5 382t371.5 146q226 0 351.5 -140.5t125.5 -394.5v-84h-731q11 -131 101.5 -206.5t238.5 -75.5q81 0 157.5 19t147.5 57v-205q-76 -31 -164 -46.5t-188 -15.5q-260 0 -406.5 149.5t-146.5 414.5zM291 1178l197 360h212l197 -360h-129l-174 223 l-174 -223h-129zM344 612h490q-11 132 -74 205.5t-164 73.5q-103 0 -170 -73.5t-82 -205.5z" />
<glyph unicode="&#xeb;" horiz-adv-x="1128" d="M84 537q0 236 142.5 382t371.5 146q226 0 351.5 -140.5t125.5 -394.5v-84h-731q11 -131 101.5 -206.5t238.5 -75.5q81 0 157.5 19t147.5 57v-205q-76 -31 -164 -46.5t-188 -15.5q-260 0 -406.5 149.5t-146.5 414.5zM318 1237v227h206v-227h-206zM344 612h490 q-11 132 -74 205.5t-164 73.5q-103 0 -170 -73.5t-82 -205.5zM664 1237v227h206v-227h-206z" />
<glyph unicode="&#xec;" horiz-adv-x="569" d="M6 1538h234l199 -360h-127zM152 0v1038h266v-1038h-266z" />
<glyph unicode="&#xed;" horiz-adv-x="569" d="M131 1178l199 360h234l-306 -360h-127zM152 0v1038h266v-1038h-266z" />
<glyph unicode="&#xee;" horiz-adv-x="569" d="M-18 1178l197 360h212l197 -360h-129l-174 223l-174 -223h-129zM152 0v1038h266v-1038h-266z" />
<glyph unicode="&#xef;" horiz-adv-x="569" d="M9 1237v227h206v-227h-206zM152 0v1038h266v-1038h-266zM355 1237v227h206v-227h-206z" />
<glyph unicode="&#xf0;" d="M104 502q0 242 140.5 386t376.5 144q44 0 85.5 -6.5t79.5 -19.5q-34 57 -71 110t-76 101l-227 -113l-60 117l205 104q-40 49 -90.5 100t-114.5 107h240q28 -32 58.5 -65t62.5 -66l227 115l66 -115l-201 -103q185 -222 275.5 -419.5t90.5 -376.5q0 -246 -143 -387.5 t-391 -141.5q-247 0 -390 141.5t-143 387.5zM373 504q0 -152 73 -245t191 -93q120 0 193 92.5t73 245.5q0 155 -73 248.5t-193 93.5q-119 0 -191.5 -94t-72.5 -248z" />
<glyph unicode="&#xf1;" d="M156 0v1038h243v-188q59 106 152.5 160.5t216.5 54.5q183 0 277 -113.5t94 -333.5v-618h-269v561q0 144 -49.5 212.5t-154.5 68.5q-112 0 -178 -87.5t-66 -238.5v-516h-266zM346 1227q26 111 76.5 165t127.5 54q22 0 40.5 -2.5t35.5 -7.5l97 -29q17 -6 29 -8t26 -2 q34 0 57 20.5t35 61.5h102q-30 -118 -79 -172t-128 -54q-21 0 -38 2.5t-34 8.5l-91 28q-16 5 -31 7.5t-27 3.5q-36 0 -59 -18.5t-37 -57.5h-102z" />
<glyph unicode="&#xf2;" d="M86 520q0 255 146.5 400t404.5 145t405.5 -145t147.5 -400q0 -254 -148 -400.5t-405 -146.5t-404 146t-147 401zM358 1538h234l199 -360h-127zM365 522q0 -156 75.5 -252t196.5 -96q123 0 197.5 95t74.5 253q0 159 -75 254.5t-197 95.5q-121 0 -196.5 -96.5t-75.5 -253.5 z" />
<glyph unicode="&#xf3;" d="M86 520q0 255 146.5 400t404.5 145t405.5 -145t147.5 -400q0 -254 -148 -400.5t-405 -146.5t-404 146t-147 401zM365 522q0 -156 75.5 -252t196.5 -96q123 0 197.5 95t74.5 253q0 159 -75 254.5t-197 95.5q-121 0 -196.5 -96.5t-75.5 -253.5zM483 1178l199 360h234 l-306 -360h-127z" />
<glyph unicode="&#xf4;" d="M86 520q0 255 146.5 400t404.5 145t405.5 -145t147.5 -400q0 -254 -148 -400.5t-405 -146.5t-404 146t-147 401zM334 1178l197 360h212l197 -360h-129l-174 223l-174 -223h-129zM365 522q0 -156 75.5 -252t196.5 -96q123 0 197.5 95t74.5 253q0 159 -75 254.5t-197 95.5 q-121 0 -196.5 -96.5t-75.5 -253.5z" />
<glyph unicode="&#xf5;" d="M86 520q0 255 146.5 400t404.5 145t405.5 -145t147.5 -400q0 -254 -148 -400.5t-405 -146.5t-404 146t-147 401zM324 1227q26 111 76.5 165t127.5 54q22 0 40.5 -2.5t35.5 -7.5l97 -29q17 -6 29 -8t26 -2q34 0 57 20.5t35 61.5h102q-30 -118 -79 -172t-128 -54 q-21 0 -38 2.5t-34 8.5l-91 28q-16 5 -31 7.5t-27 3.5q-36 0 -59 -18.5t-37 -57.5h-102zM365 522q0 -156 75.5 -252t196.5 -96q123 0 197.5 95t74.5 253q0 159 -75 254.5t-197 95.5q-121 0 -196.5 -96.5t-75.5 -253.5z" />
<glyph unicode="&#xf6;" d="M86 520q0 255 146.5 400t404.5 145t405.5 -145t147.5 -400q0 -254 -148 -400.5t-405 -146.5t-404 146t-147 401zM361 1237v227h206v-227h-206zM365 522q0 -156 75.5 -252t196.5 -96q123 0 197.5 95t74.5 253q0 159 -75 254.5t-197 95.5q-121 0 -196.5 -96.5t-75.5 -253.5 zM707 1237v227h206v-227h-206z" />
<glyph unicode="&#xf7;" horiz-adv-x="1706" d="M254 512v199h1198v-199h-1198zM702 217q0 63 44.5 107.5t107.5 44.5q62 0 107 -45t45 -107q0 -61 -45 -105t-107 -44q-63 0 -107.5 43t-44.5 106zM702 1004q0 63 44.5 107t107.5 44q62 0 107 -44.5t45 -106.5q0 -63 -44.5 -107.5t-107.5 -44.5t-107.5 44.5t-44.5 107.5z " />
<glyph unicode="&#xf8;" d="M53 8l142 156q-55 78 -82 166t-27 190q0 252 148.5 398.5t406.5 146.5q92 0 170 -20t145 -62l150 162l117 -109l-144 -157q54 -68 81.5 -157t27.5 -198q0 -251 -146 -400t-393 -149q-105 0 -186 20.5t-144 61.5l-147 -159zM352 522q0 -42 7.5 -82.5t23.5 -81.5l424 461 q-36 32 -78.5 47t-95.5 15q-124 0 -202.5 -100t-78.5 -259zM469 227q33 -30 77 -45.5t97 -15.5q127 0 204 100t77 266q0 46 -7 84.5t-22 73.5z" />
<glyph unicode="&#xf9;" d="M133 430v608h268v-551q0 -144 50 -212t155 -68q119 0 181.5 94.5t62.5 273.5v463h268v-1038h-244v199q-58 -106 -151.5 -160.5t-216.5 -54.5q-183 0 -278 113.5t-95 332.5zM358 1538h234l199 -360h-127z" />
<glyph unicode="&#xfa;" d="M133 430v608h268v-551q0 -144 50 -212t155 -68q119 0 181.5 94.5t62.5 273.5v463h268v-1038h-244v199q-58 -106 -151.5 -160.5t-216.5 -54.5q-183 0 -278 113.5t-95 332.5zM483 1178l199 360h234l-306 -360h-127z" />
<glyph unicode="&#xfb;" d="M133 430v608h268v-551q0 -144 50 -212t155 -68q119 0 181.5 94.5t62.5 273.5v463h268v-1038h-244v199q-58 -106 -151.5 -160.5t-216.5 -54.5q-183 0 -278 113.5t-95 332.5zM334 1178l197 360h212l197 -360h-129l-174 223l-174 -223h-129z" />
<glyph unicode="&#xfc;" d="M133 430v608h268v-551q0 -144 50 -212t155 -68q119 0 181.5 94.5t62.5 273.5v463h268v-1038h-244v199q-58 -106 -151.5 -160.5t-216.5 -54.5q-183 0 -278 113.5t-95 332.5zM361 1237v227h206v-227h-206zM707 1237v227h206v-227h-206z" />
<glyph unicode="&#xfd;" horiz-adv-x="1087" d="M25 1038h288l258 -794l252 794h269l-410 -1085q-84 -225 -182.5 -312t-259.5 -87q-27 0 -64.5 4t-87.5 12l23 209q22 -7 43.5 -10.5t42.5 -4.5q78 0 132.5 46t104.5 153zM391 1178l199 360h234l-306 -360h-127z" />
<glyph unicode="&#xfe;" horiz-adv-x="1300" d="M156 -428v1960h266v-655q58 91 146.5 139.5t197.5 48.5q202 0 323 -145t121 -390q0 -246 -123.5 -399.5t-318.5 -153.5q-113 0 -200.5 45.5t-145.5 135.5v-586h-266zM422 522q0 -154 70 -246t186 -92q118 0 187 92.5t69 251.5q0 151 -67 241.5t-177 90.5 q-124 0 -196 -90.5t-72 -247.5z" />
<glyph unicode="&#xff;" horiz-adv-x="1087" d="M25 1038h288l258 -794l252 794h269l-410 -1085q-84 -225 -182.5 -312t-259.5 -87q-27 0 -64.5 4t-87.5 12l23 209q22 -7 43.5 -10.5t42.5 -4.5q78 0 132.5 46t104.5 153zM269 1237v227h206v-227h-206zM615 1237v227h206v-227h-206z" />
<glyph unicode="&#x152;" horiz-adv-x="2003" d="M96 709q0 352 186.5 540.5t534.5 188.5q57 0 179.5 -8.5t187.5 -8.5h682v-204h-574v-377h539v-209h-539v-416h594v-215h-739q-74 0 -197 -7t-172 -7q-327 0 -504.5 188t-177.5 535zM381 715q0 -255 109.5 -390t318.5 -135q35 0 83 5t123 16l1 1003q-52 11 -102.5 16 t-96.5 5q-213 0 -324.5 -132.5t-111.5 -387.5z" />
<glyph unicode="&#x153;" horiz-adv-x="1952" d="M86 518q0 254 144 400.5t393 146.5q137 0 243.5 -44.5t175.5 -131.5q70 86 168.5 131t219.5 45q221 0 346 -141.5t125 -393.5v-84h-734q11 -131 102.5 -206.5t239.5 -75.5q81 0 156.5 19t146.5 57v-205q-73 -29 -158.5 -44.5t-176.5 -15.5q-151 0 -263 47.5t-174 137.5 q-80 -93 -184.5 -139t-234.5 -46q-247 0 -391 146t-144 397zM365 522q0 -154 75 -251t193 -97q126 0 201 94t75 254q0 157 -74.5 253.5t-193.5 96.5q-125 0 -200.5 -95.5t-75.5 -254.5zM1167 612h490q-11 132 -73.5 205.5t-164.5 73.5t-170 -75t-82 -204z" />
<glyph unicode="&#x178;" horiz-adv-x="1231" d="M-43 1421h322l346 -641l346 641h303l-520 -858v-563h-281v559zM340 1622v227h206v-227h-206zM686 1622v227h206v-227h-206z" />
<glyph unicode="&#x2c6;" horiz-adv-x="1024" d="M209 1178l197 360h212l197 -360h-129l-174 223l-174 -223h-129z" />
<glyph unicode="&#x2dc;" horiz-adv-x="1024" d="M199 1227q26 111 76.5 165t127.5 54q22 0 40.5 -2.5t35.5 -7.5l97 -29q17 -6 29 -8t26 -2q34 0 57 20.5t35 61.5h102q-30 -118 -79 -172t-128 -54q-21 0 -38 2.5t-34 8.5l-91 28q-16 5 -31 7.5t-27 3.5q-36 0 -59 -18.5t-37 -57.5h-102z" />
<glyph unicode="&#x2000;" horiz-adv-x="1003" />
<glyph unicode="&#x2001;" horiz-adv-x="2007" />
<glyph unicode="&#x2002;" horiz-adv-x="1003" />
<glyph unicode="&#x2003;" horiz-adv-x="2007" />
<glyph unicode="&#x2004;" horiz-adv-x="669" />
<glyph unicode="&#x2005;" horiz-adv-x="501" />
<glyph unicode="&#x2006;" horiz-adv-x="334" />
<glyph unicode="&#x2007;" horiz-adv-x="334" />
<glyph unicode="&#x2008;" horiz-adv-x="250" />
<glyph unicode="&#x2009;" horiz-adv-x="401" />
<glyph unicode="&#x200a;" horiz-adv-x="111" />
<glyph unicode="&#x2010;" horiz-adv-x="692" d="M82 471v209h526v-209h-526z" />
<glyph unicode="&#x2011;" horiz-adv-x="692" d="M82 471v209h526v-209h-526z" />
<glyph unicode="&#x2012;" horiz-adv-x="692" d="M82 471v209h526v-209h-526z" />
<glyph unicode="&#x2013;" horiz-adv-x="1024" d="M0 500v153h1024v-153h-1024z" />
<glyph unicode="&#x2014;" horiz-adv-x="2048" d="M0 500v153h2048v-153h-2048z" />
<glyph unicode="&#x2018;" horiz-adv-x="608" d="M115 915l182 506h213l-129 -506h-266z" />
<glyph unicode="&#x2019;" horiz-adv-x="608" d="M123 918l129 503h266l-182 -503h-213z" />
<glyph unicode="&#x201a;" horiz-adv-x="608" d="M78 -240l129 504h266l-182 -504h-213z" />
<glyph unicode="&#x201c;" horiz-adv-x="1067" d="M115 915l182 506h213l-129 -506h-266zM573 915l183 506h213l-127 -506h-269z" />
<glyph unicode="&#x201d;" horiz-adv-x="1067" d="M123 918l129 503h266l-182 -503h-213zM584 918l129 503h266l-182 -503h-213z" />
<glyph unicode="&#x201e;" horiz-adv-x="1067" d="M78 -240l129 504h266l-182 -504h-213zM537 -240l129 504h268l-182 -504h-215z" />
<glyph unicode="&#x2022;" horiz-adv-x="1208" d="M307 762q0 123 87 209t210 86q122 0 208.5 -86.5t86.5 -208.5t-87.5 -209.5t-209.5 -87.5q-123 0 -209 87t-86 210z" />
<glyph unicode="&#x2026;" horiz-adv-x="2048" d="M209 0v266h266v-266h-266zM891 0v266h266v-266h-266zM1575 0v266h266v-266h-266z" />
<glyph unicode="&#x202f;" horiz-adv-x="401" />
<glyph unicode="&#x2039;" horiz-adv-x="616" d="M68 537l254 417h227l-240 -417l238 -416h-228z" />
<glyph unicode="&#x203a;" horiz-adv-x="616" d="M68 121l239 416l-237 417h227l252 -417l-254 -416h-227z" />
<glyph unicode="&#x205f;" horiz-adv-x="501" />
<glyph unicode="&#x20ac;" horiz-adv-x="1214" d="M92 496l29 118l145 1q-1 15 -1.5 32.5t-0.5 54.5q0 42 0.5 62t1.5 36l-157 1l28 119h144q42 256 181 394t357 138q64 0 142 -20.5t149 -55.5l-14 -225q-66 39 -132 60.5t-124 21.5q-125 0 -196 -76t-95 -237h520l-31 -119h-501q-1 -16 -1.5 -36t-0.5 -63q0 -37 0.5 -55 t1.5 -33h473l-29 -118h-432q24 -155 98.5 -230.5t202.5 -75.5q86 0 233 75q10 5 15 7l20 -225q-95 -42 -162.5 -59t-126.5 -17q-228 0 -369 134.5t-181 390.5h-187z" />
<glyph unicode="&#x2122;" horiz-adv-x="1706" d="M207 1350v112h485v-112h-168v-435h-149v435h-168zM803 915v547h196l127 -332l123 332h197v-547h-135v410l-154 -410h-61l-158 410v-410h-135z" />
<glyph unicode="&#x25fc;" horiz-adv-x="1040" d="M0 0v1040h1040v-1040h-1040z" />
</font>
</defs>
</svg>
