<?xml version="1.0" standalone="no"?>
<!DOCTYPE svg PUBLIC "-//W3C//DTD SVG 1.1//EN" "http://www.w3.org/Graphics/SVG/1.1/DTD/svg11.dtd" >
<svg xmlns="http://www.w3.org/2000/svg">
<metadata></metadata>
<defs>
<font id="humnst777_lt_btlight_italic" horiz-adv-x="1024" >
<font-face units-per-em="2048" ascent="1556" descent="-492" />
<missing-glyph horiz-adv-x="573" />
<glyph horiz-adv-x="2048" />
<glyph horiz-adv-x="2048" />
<glyph unicode="&#xd;" horiz-adv-x="573" />
<glyph unicode=" "  horiz-adv-x="573" />
<glyph unicode="&#x09;" horiz-adv-x="573" />
<glyph unicode="&#xa0;" horiz-adv-x="573" />
<glyph unicode="!" horiz-adv-x="793" d="M160 0l41 170h168l-41 -170h-168zM262 350l207 1071h162l-248 -1071h-121z" />
<glyph unicode="&#x22;" horiz-adv-x="551" d="M100 881v553h86v-553h-86zM365 881v553h86v-553h-86z" />
<glyph unicode="#" horiz-adv-x="1575" d="M129 494l31 90h336l100 282h-360l28 90h365l176 498h110l-174 -498h271l176 498h110l-174 -498h322l-31 -90h-323l-101 -282h348l-30 -90h-351l-174 -494h-112l176 494h-270l-179 -494h-110l174 494h-334zM610 584h269l100 282h-270z" />
<glyph unicode="$" horiz-adv-x="1147" d="M55 72l41 129q62 -37 134 -58.5t157 -27.5l127 594q-134 80 -193 161t-59 183q0 158 117.5 262.5t304.5 108.5l39 178h92l-38 -181q70 -3 140.5 -18t141.5 -43l-43 -123q-62 34 -127 54t-135 26l-109 -512q145 -86 215 -179.5t70 -201.5q0 -182 -132.5 -303t-338.5 -121 h-4l-41 -197h-92l40 195q-86 2 -162.5 20t-144.5 54zM393 1063q0 -67 39.5 -121t126.5 -104l107 481q-128 -15 -200.5 -83.5t-72.5 -172.5zM477 113q138 6 221.5 87.5t83.5 209.5q0 77 -41 137t-143 129z" />
<glyph unicode="%" horiz-adv-x="1716" d="M78 1073q0 172 87 272.5t234 100.5t233.5 -101t86.5 -272t-86.5 -272t-233.5 -101t-234 101t-87 272zM207 1075q0 -121 54 -195.5t140 -74.5q88 0 141.5 74t53.5 196q0 123 -53.5 197t-141.5 74q-86 0 -140 -75t-54 -196zM434 -25l756 1471h110l-755 -1471h-111z M1014 348q0 172 87 273.5t234 101.5q146 0 233 -101.5t87 -273.5q0 -171 -86.5 -272t-233.5 -101t-234 101t-87 272zM1141 350q0 -121 54.5 -195.5t141.5 -74.5t140 73.5t53 196.5q0 124 -53 198.5t-140 74.5q-86 0 -141 -76t-55 -197z" />
<glyph unicode="&#x26;" horiz-adv-x="1346" d="M45 346q0 163 119.5 285t333.5 174q-70 91 -103 169.5t-33 151.5q0 141 108 231.5t278 90.5q143 0 233 -80.5t90 -208.5q0 -132 -99.5 -229.5t-305.5 -167.5l278 -418q68 80 117 188t86 261h121q-40 -178 -105 -313t-155 -228l168 -252h-148l-102 168 q-106 -98 -223.5 -144.5t-260.5 -46.5q-176 0 -286.5 103t-110.5 266zM184 371q0 -128 78.5 -205.5t208.5 -77.5q107 0 205.5 42t193.5 128l-317 473q-188 -60 -278.5 -148.5t-90.5 -211.5zM483 1120q0 -51 33 -121.5t100 -164.5q191 77 261.5 145.5t70.5 167.5 q0 85 -57 137.5t-152 52.5q-114 0 -185 -60.5t-71 -156.5z" />
<glyph unicode="'" horiz-adv-x="285" d="M100 881v553h86v-553h-86z" />
<glyph unicode="(" horiz-adv-x="569" d="M111 451q0 270 129.5 535.5t406.5 559.5h103q-278 -339 -398.5 -601.5t-120.5 -518.5q0 -175 34 -349t102 -343h-93q-88 236 -125.5 403t-37.5 314z" />
<glyph unicode=")" horiz-adv-x="569" d="M-213 -266q279 342 399.5 603.5t120.5 516.5q0 172 -34.5 346t-102.5 346h94q89 -233 126.5 -405t37.5 -330q0 -255 -132.5 -520t-406.5 -557h-102z" />
<glyph unicode="*" d="M207 1176l45 143l305 -148l-33 340h129l-32 -337l307 145l45 -143l-328 -66l229 -246l-122 -90l-162 301l-164 -301l-123 90l234 248z" />
<glyph unicode="+" horiz-adv-x="1706" d="M254 569v82h559v570h80v-570h559v-82h-559v-569h-80v569h-559z" />
<glyph unicode="," horiz-adv-x="573" d="M-90 -270l203 440h163l-243 -440h-123z" />
<glyph unicode="-" horiz-adv-x="678" d="M39 506l22 108h504l-22 -108h-504z" />
<glyph unicode="." horiz-adv-x="573" d="M66 0l36 170h160l-37 -170h-159z" />
<glyph unicode="/" horiz-adv-x="569" d="M-53 -20l590 1499h84l-590 -1499h-84z" />
<glyph unicode="0" horiz-adv-x="1147" d="M74 449q0 189 48 376t130 322q95 154 202.5 226.5t241.5 72.5q181 0 279 -117t98 -334q0 -191 -48 -380t-132 -334q-90 -156 -202.5 -230t-258.5 -74q-168 0 -263 125t-95 347zM211 424q0 -162 64 -251t180 -89q91 0 171.5 63.5t147.5 188.5q32 60 60.5 142t56.5 194 q22 91 33.5 176t11.5 158q0 156 -65 244.5t-179 88.5q-85 0 -166 -61t-147 -176q-35 -61 -64 -141t-59 -195q-22 -87 -33.5 -174.5t-11.5 -167.5z" />
<glyph unicode="1" horiz-adv-x="1147" d="M317 1171l414 250h88l-301 -1421h-123l273 1266l-279 -183z" />
<glyph unicode="2" horiz-adv-x="1147" d="M0 0l25 113l512 458q199 177 280.5 294t81.5 220q0 108 -70.5 171t-191.5 63q-74 0 -156 -29t-178 -90l8 150q95 45 180.5 68.5t159.5 23.5q182 0 285.5 -90.5t103.5 -247.5q0 -129 -75 -250.5t-260 -284.5l-508 -444h690l-27 -125h-860z" />
<glyph unicode="3" horiz-adv-x="1147" d="M-18 53l34 123q90 -37 171 -55.5t155 -18.5q189 0 306.5 95.5t117.5 246.5q0 128 -99 195.5t-286 67.5q-25 0 -37.5 -0.5t-23.5 -1.5l20 116q34 -3 64.5 -4.5t56.5 -1.5q201 0 320.5 76t119.5 201q0 104 -78 167.5t-209 63.5q-94 0 -174.5 -18.5t-158.5 -57.5l8 133 q79 32 158 48t161 16q202 0 317 -90t115 -246q0 -135 -91 -228.5t-259 -129.5q107 -42 165 -122.5t58 -187.5q0 -87 -42.5 -172t-120.5 -153q-82 -70 -181.5 -102.5t-232.5 -32.5q-81 0 -169 18t-185 55z" />
<glyph unicode="4" horiz-adv-x="1147" d="M12 342l27 125l850 954h164l-205 -966h203l-23 -113h-205l-71 -342h-127l73 342h-686zM166 455h555l182 841z" />
<glyph unicode="5" horiz-adv-x="1147" d="M47 31l27 133q78 -30 150.5 -45t140.5 -15q210 0 337 108.5t127 287.5q0 128 -91 203t-246 75q-57 0 -125 -12t-150 -37l154 692h757l-22 -112h-637l-98 -447q58 14 108 21.5t90 7.5q179 0 291.5 -111t112.5 -288q0 -229 -166.5 -369.5t-439.5 -140.5q-79 0 -158.5 12 t-161.5 37z" />
<glyph unicode="6" horiz-adv-x="1147" d="M102 492q0 183 48 355t137 308q90 138 223 210.5t297 72.5q71 0 149 -15.5t164 -46.5l-43 -116q-70 35 -137 53t-131 18q-208 0 -354 -158t-197 -440q77 88 168.5 129t208.5 41q168 0 276.5 -113t108.5 -290q0 -90 -28.5 -176t-82.5 -156q-75 -100 -169.5 -147.5 t-217.5 -47.5q-203 0 -311.5 133.5t-108.5 385.5zM240 412q0 -140 81.5 -231t206.5 -91q148 0 251.5 115t103.5 280q0 140 -81.5 226t-211.5 86q-148 0 -249 -111.5t-101 -273.5z" />
<glyph unicode="7" horiz-adv-x="1147" d="M145 0l850 1305h-712l24 116h854l-20 -116l-836 -1305h-160z" />
<glyph unicode="8" horiz-adv-x="1147" d="M66 362q0 155 107 260t302 140q-108 69 -159.5 146t-51.5 169q0 155 125.5 261t315.5 106q174 0 284.5 -88t110.5 -223q0 -139 -98 -235t-291 -148q142 -62 216 -153.5t74 -205.5q0 -78 -35 -154.5t-100 -136.5q-69 -63 -154.5 -91.5t-207.5 -28.5q-199 0 -318.5 105 t-119.5 277zM203 371q0 -120 90 -197.5t231 -77.5q146 0 238 81t92 208q0 103 -60.5 176t-213.5 150q-180 -34 -278.5 -123t-98.5 -217zM408 1087q0 -77 48.5 -153.5t139.5 -140.5q193 71 281 146t88 169q0 96 -76.5 160.5t-192.5 64.5q-120 0 -204 -72.5t-84 -173.5z" />
<glyph unicode="9" horiz-adv-x="1147" d="M33 51l41 117q66 -38 131 -57t133 -19q212 0 354 154.5t197 445.5q-91 -87 -175.5 -127.5t-176.5 -40.5q-177 0 -294.5 116t-117.5 292q0 111 47.5 214t134.5 179q66 58 147.5 88.5t172.5 30.5q198 0 307.5 -128.5t109.5 -361.5q0 -186 -47 -366t-129 -307 q-95 -149 -230 -227.5t-294 -78.5q-79 0 -157.5 19t-153.5 57zM266 938q0 -135 79 -218t208 -83q158 0 255 106.5t97 278.5q0 132 -82.5 219.5t-206.5 87.5q-147 0 -248.5 -112.5t-101.5 -278.5z" />
<glyph unicode=":" horiz-adv-x="793" d="M178 0l37 170h160l-35 -170h-162zM352 848l35 172h160l-35 -172h-160z" />
<glyph unicode=";" horiz-adv-x="793" d="M2 -270l203 440h164l-244 -440h-123zM352 848l35 172h160l-35 -172h-160z" />
<glyph unicode="&#x3c;" horiz-adv-x="1706" d="M264 580v61l1178 483v-90l-1045 -424l1045 -424v-88z" />
<glyph unicode="=" horiz-adv-x="1706" d="M254 387v82h1198v-82h-1198zM254 752v79h1198v-79h-1198z" />
<glyph unicode="&#x3e;" horiz-adv-x="1706" d="M264 98v88l1045 424l-1045 424v90l1178 -483v-61z" />
<glyph unicode="?" d="M184 0l39 172h164l-35 -172h-168zM285 356q19 109 63 188t160 183q21 18 60 52q235 202 235 335q0 103 -74 159t-211 56q-54 0 -111 -13t-116 -40l28 119q73 22 136.5 33.5t119.5 11.5q164 0 261.5 -83.5t97.5 -221.5q0 -102 -55 -190.5t-201 -209.5q-13 -11 -39 -32 q-208 -169 -238 -347h-116z" />
<glyph unicode="@" horiz-adv-x="2048" d="M121 522q0 162 50.5 307t147.5 265q144 175 345.5 265.5t449.5 90.5q160 0 304.5 -44t248.5 -124q128 -98 194 -226.5t66 -277.5q0 -169 -63 -308t-181 -232q-67 -54 -145.5 -82.5t-159.5 -28.5q-95 0 -143.5 36.5t-48.5 108.5q0 12 3 34q1 3 1 5q-49 -88 -125 -136 t-166 -48q-154 0 -233.5 83t-79.5 243q0 228 134.5 386t326.5 158q95 0 160 -43t96 -127l61 129h80l-137 -553q-10 -36 -15.5 -64.5t-5.5 -43.5q0 -44 30.5 -68t86.5 -24q48 0 100 19.5t103 56.5q101 74 162 207t61 282q0 273 -199.5 439.5t-525.5 166.5q-168 0 -310.5 -48 t-258.5 -144q-154 -128 -232 -297t-78 -375q0 -327 221.5 -522t591.5 -195q161 0 324 50.5t299 142.5l29 -45q-146 -110 -308.5 -165t-339.5 -55q-187 0 -343 46.5t-277 138.5q-152 115 -226.5 267.5t-74.5 348.5zM690 446q0 -115 57.5 -180t159.5 -65q111 0 196 72.5 t116 193.5l63 254q-22 99 -81.5 151t-151.5 52q-152 0 -255.5 -138t-103.5 -340z" />
<glyph unicode="A" horiz-adv-x="1346" d="M-102 0l884 1421h156l274 -1421h-135l-76 383h-716l-240 -383h-147zM354 508h621l-141 795z" />
<glyph unicode="B" horiz-adv-x="1120" d="M39 0l301 1421h272q211 0 324 -81t113 -232q0 -135 -88.5 -230t-249.5 -133q123 -27 182 -100t59 -196q0 -203 -150 -326t-403 -123h-360zM197 123h227q172 0 279.5 93.5t107.5 240.5q0 110 -81.5 170.5t-231.5 60.5h-183zM340 801h139q199 0 315.5 81.5t116.5 217.5 q0 98 -70.5 148t-209.5 50h-185z" />
<glyph unicode="C" horiz-adv-x="1241" d="M86 612q0 183 74.5 350.5t210.5 288.5q98 87 241 139t287 52q99 0 198 -17.5t201 -52.5l-36 -127q-92 43 -177 63.5t-167 20.5q-119 0 -227 -35.5t-197 -103.5q-122 -92 -193.5 -246t-71.5 -326q0 -230 138 -375t356 -145q60 0 134.5 14.5t168.5 43.5l-12 -133 q-80 -23 -154 -34.5t-143 -11.5q-285 0 -458 175t-173 460z" />
<glyph unicode="D" horiz-adv-x="1356" d="M39 0l301 1421h287q306 0 470.5 -151.5t164.5 -433.5q0 -216 -95 -404.5t-256 -294.5q-108 -71 -237.5 -104t-304.5 -33h-330zM205 123h174q162 0 279.5 31.5t199.5 97.5q120 95 191 256.5t71 339.5q0 220 -124.5 337.5t-358.5 117.5h-186z" />
<glyph unicode="E" horiz-adv-x="1010" d="M35 0l303 1421h698l-26 -116h-561l-107 -498h532l-24 -125h-535l-118 -563h591l-26 -119h-727z" />
<glyph unicode="F" horiz-adv-x="901" d="M35 0l303 1421h670l-25 -116h-534l-107 -498h512l-27 -125h-510l-145 -682h-137z" />
<glyph unicode="G" horiz-adv-x="1442" d="M100 612q0 176 72 343t199 284q106 99 262.5 152t341.5 53q104 0 204 -19t197 -57l-45 -129q-90 44 -180.5 66t-183.5 22q-323 0 -521 -192.5t-198 -505.5q0 -240 139 -385.5t369 -145.5q61 0 127 9.5t135 27.5l108 512h-348l29 121h483l-153 -727q-86 -31 -182 -46 t-207 -15q-299 0 -473.5 171t-174.5 461z" />
<glyph unicode="H" horiz-adv-x="1386" d="M39 0l301 1421h135l-131 -616h737l131 616h136l-301 -1421h-138l146 686h-736l-145 -686h-135z" />
<glyph unicode="I" horiz-adv-x="502" d="M33 0l301 1421h133l-303 -1421h-131z" />
<glyph unicode="J" horiz-adv-x="678" d="M-141 8l34 116q37 -12 71.5 -19t64.5 -7q95 0 161 64t91 180l229 1079h137l-225 -1056q-43 -204 -139 -293.5t-269 -89.5q-38 0 -76.5 6.5t-78.5 19.5z" />
<glyph unicode="K" horiz-adv-x="1212" d="M39 0l301 1421h135l-129 -618l756 618h188l-833 -661l606 -760h-160l-577 719l-152 -719h-135z" />
<glyph unicode="L" horiz-adv-x="901" d="M35 0l303 1421h137l-274 -1302h585l-22 -119h-729z" />
<glyph unicode="M" horiz-adv-x="1802" d="M27 0l301 1421h198l258 -1245l785 1245h209l-301 -1421h-131l272 1298l-813 -1298h-109l-272 1292l-266 -1292h-131z" />
<glyph unicode="N" horiz-adv-x="1415" d="M41 0l301 1421h168l465 -1255l266 1255h131l-303 -1421h-168l-463 1262l-266 -1262h-131z" />
<glyph unicode="O" horiz-adv-x="1479" d="M94 567q0 189 71 369.5t193 304.5q97 98 224.5 152.5t261.5 54.5q247 0 392.5 -153t145.5 -412q0 -151 -39 -293.5t-112 -259.5q-108 -171 -261.5 -263t-330.5 -92q-251 0 -398 159.5t-147 432.5zM238 565q0 -217 107 -344t290 -127q133 0 238 56.5t196 177.5 q80 103 126 249t46 295q0 214 -110.5 339.5t-299.5 125.5q-111 0 -215 -53.5t-184 -150.5q-92 -115 -143 -263.5t-51 -304.5z" />
<glyph unicode="P" horiz-adv-x="1028" d="M20 0l302 1421h311q190 0 296.5 -94.5t106.5 -261.5q0 -212 -160 -331.5t-448 -119.5q-17 0 -51 1.5t-88 4.5l-131 -620h-138zM315 745q19 -2 39.5 -3t61.5 -1q149 0 221 14.5t123 49.5q62 41 97.5 110.5t35.5 151.5q0 120 -75.5 178t-233.5 58h-152z" />
<glyph unicode="Q" horiz-adv-x="1479" d="M94 567q0 189 71 369.5t193 304.5q97 98 225 151.5t265 53.5q246 0 390 -152t144 -411q0 -306 -141 -537.5t-389 -335.5l235 -280h-149l-216 249q-13 -1 -27 -1.5t-42 -0.5q-261 0 -410 157t-149 433zM238 565q0 -217 107 -344t290 -127q133 0 238 56.5t196 177.5 q80 103 126 249t46 295q0 214 -110.5 339.5t-299.5 125.5q-111 0 -215 -53.5t-184 -150.5q-92 -115 -143 -263.5t-51 -304.5z" />
<glyph unicode="R" horiz-adv-x="1128" d="M39 0l299 1421h324q187 0 287 -81.5t100 -233.5q0 -164 -105.5 -266t-302.5 -131q70 -19 108.5 -66t59.5 -141l115 -502h-136l-114 498q-22 94 -78 127.5t-213 33.5h-70l-137 -659h-137zM340 780q19 -2 42 -3t67 -1q216 0 333 81t117 230q0 106 -69 162t-199 56h-180z " />
<glyph unicode="S" horiz-adv-x="1010" d="M-16 63l41 132q75 -48 152.5 -71.5t158.5 -23.5q161 0 261.5 84.5t100.5 218.5q0 74 -37.5 130.5t-171.5 148.5q-22 16 -64 43q-78 50 -101 74q-64 64 -93.5 123t-29.5 122q0 184 124 291t339 107q97 0 177.5 -17.5t151.5 -54.5l-43 -125q-61 39 -127.5 58.5t-138.5 19.5 q-153 0 -247.5 -70.5t-94.5 -183.5t187 -242l6 -4q206 -143 259.5 -222t53.5 -183q0 -188 -147 -314.5t-373 -126.5q-98 0 -183 21.5t-161 64.5z" />
<glyph unicode="T" horiz-adv-x="1020" d="M154 1305l24 116h979l-24 -116h-422l-277 -1305h-135l276 1305h-421z" />
<glyph unicode="U" horiz-adv-x="1389" d="M135 412q0 52 8 116.5t27 155.5l158 737h135l-180 -848q-9 -39 -13 -75t-4 -68q0 -151 89 -246.5t229 -95.5q183 0 296.5 122.5t168.5 381.5l176 829h135l-172 -807q-70 -329 -218 -485t-390 -156q-199 0 -322 122.5t-123 316.5z" />
<glyph unicode="V" horiz-adv-x="1241" d="M178 1421h133l193 -1296l743 1296h139l-837 -1421h-143z" />
<glyph unicode="W" horiz-adv-x="1911" d="M156 1421h133l100 -1304l629 1304h162l82 -1308l634 1308h146l-725 -1421h-158l-88 1305l-627 -1305h-159z" />
<glyph unicode="X" horiz-adv-x="1233" d="M-125 0l688 752l-352 669h145l297 -573l525 573h161l-614 -667l352 -754h-143l-301 655l-586 -655h-172z" />
<glyph unicode="Y" horiz-adv-x="1247" d="M170 1421h147l297 -704l600 704h158l-708 -817l-123 -604h-138l129 612z" />
<glyph unicode="Z" horiz-adv-x="1014" d="M-98 0l24 119l996 1186h-723l26 116h887l-25 -116l-1005 -1186h774l-25 -119h-929z" />
<glyph unicode="[" horiz-adv-x="569" d="M-33 -266l387 1820h316l-19 -86h-194l-351 -1648h195l-18 -86h-316z" />
<glyph unicode="\" horiz-adv-x="569" d="M-53 1479h84l590 -1499h-84z" />
<glyph unicode="]" horiz-adv-x="569" d="M-121 -266l19 86h194l350 1648h-194l18 86h316l-387 -1820h-316z" />
<glyph unicode="^" horiz-adv-x="2048" d="M424 901l539 557h118l541 -557h-125l-473 469l-475 -469h-125z" />
<glyph unicode="_" d="M0 -403h1024v-80h-1024v80z" />
<glyph unicode="`" d="M381 1503h147l224 -348h-90z" />
<glyph unicode="a" horiz-adv-x="1014" d="M0 266q0 177 144 273t411 96q29 0 71 -2.5t105 -7.5q6 38 8 61.5t2 38.5q0 101 -57.5 156t-165.5 55q-55 0 -130.5 -18t-176.5 -56l14 133q97 27 172 40.5t131 13.5q158 0 247 -82t89 -226q0 -32 -4 -69t-12 -80l-62 -316q-26 -130 -35 -183.5t-14 -92.5h-112l24 162 q-74 -91 -156 -134.5t-180 -43.5q-140 0 -226.5 78.5t-86.5 203.5zM137 272q0 -81 54.5 -130.5t144.5 -49.5q154 0 253.5 114.5t125.5 321.5q-19 1 -41.5 1.5t-65.5 0.5q-248 0 -359.5 -61.5t-111.5 -196.5z" />
<glyph unicode="b" horiz-adv-x="1165" d="M31 0l323 1526h125l-139 -645q66 82 146 122.5t178 40.5q170 0 264 -110.5t94 -312.5q0 -135 -48.5 -268t-129.5 -222q-67 -74 -149.5 -112.5t-174.5 -38.5q-131 0 -214 59.5t-101 167.5l-43 -207h-131zM242 408q0 -141 72.5 -227.5t189.5 -86.5q158 0 268.5 156.5 t110.5 388.5q0 137 -67.5 216t-182.5 79q-85 0 -162 -49.5t-137 -143.5q-43 -66 -67.5 -155t-24.5 -178z" />
<glyph unicode="c" horiz-adv-x="909" d="M41 449q0 120 43.5 230.5t122.5 192.5q81 86 190 126t262 40q72 0 135 -10.5t119 -32.5l-34 -121q-72 25 -135 37.5t-115 12.5q-195 0 -323 -134.5t-128 -338.5q0 -161 86 -256t232 -95q46 0 105.5 12t135.5 35l-14 -133q-64 -16 -129.5 -24t-130.5 -8q-190 0 -306 128.5 t-116 338.5z" />
<glyph unicode="d" horiz-adv-x="1128" d="M41 387q0 110 29.5 215.5t87.5 200.5q68 114 168 175.5t217 61.5q129 0 213.5 -56.5t124.5 -170.5l147 713h125l-315 -1526h-119l35 170q-73 -97 -161.5 -146t-191.5 -49q-167 0 -263.5 110t-96.5 302zM178 381q0 -136 67.5 -215.5t182.5 -79.5q87 0 163.5 49t137.5 144 q43 66 67.5 155.5t24.5 179.5q0 141 -73 227.5t-191 86.5q-57 0 -112 -24.5t-101 -69.5q-77 -76 -121.5 -196.5t-44.5 -256.5z" />
<glyph unicode="e" d="M35 428q0 114 35 222t102 198q74 99 171.5 149t215.5 50q168 0 267.5 -104.5t99.5 -280.5q0 -40 -6.5 -85t-18.5 -96h-727q0 -3 -2 -13q-6 -51 -6 -73q0 -143 83.5 -224t231.5 -81q70 0 138 17.5t137 52.5l-6 -127q-73 -30 -144 -45t-141 -15q-203 0 -316.5 120 t-113.5 335zM190 590h602q4 20 5.5 39.5t1.5 38.5q0 128 -65 202t-177 74q-126 0 -228.5 -98.5t-138.5 -255.5z" />
<glyph unicode="f" horiz-adv-x="674" d="M84 920l20 100h218l45 205q33 155 120 238t215 83q31 0 63.5 -4.5t67.5 -13.5l-30 -116q-31 6 -59 9.5t-52 3.5q-80 0 -129 -58.5t-78 -192.5l-30 -154h256l-21 -100h-258l-194 -920h-132l195 920h-217z" />
<glyph unicode="g" horiz-adv-x="1128" d="M-33 -362l45 120q81 -45 161 -67.5t159 -22.5q181 0 281 118.5t141 383.5q-73 -97 -161.5 -146t-191.5 -49q-167 0 -263.5 110t-96.5 302q0 110 29.5 215.5t87.5 200.5q68 114 168 175.5t217 61.5q129 0 213.5 -56.5t124.5 -170.5l41 207h127l-218 -1047 q-43 -207 -169.5 -312t-333.5 -105q-85 0 -174.5 20t-186.5 62zM178 381q0 -136 67.5 -215.5t182.5 -79.5q87 0 163.5 49t137.5 144q43 66 67.5 155.5t24.5 179.5q0 141 -73 227.5t-191 86.5q-57 0 -112 -24.5t-101 -69.5q-77 -76 -121.5 -196.5t-44.5 -256.5z" />
<glyph unicode="h" horiz-adv-x="1139" d="M31 0l323 1526h127l-149 -680q67 98 155 148t191 50q141 0 226 -83t85 -222q0 -39 -5 -83t-15 -89l-119 -567h-131l123 578q7 34 10.5 68.5t3.5 68.5q0 101 -56 157t-159 56q-130 0 -228 -107t-139 -295l-112 -526h-131z" />
<glyph unicode="i" horiz-adv-x="451" d="M31 0l217 1024h127l-219 -1024h-125zM299 1327l35 166h149l-34 -166h-150z" />
<glyph unicode="j" horiz-adv-x="451" d="M-294 -410l40 113q25 -5 47 -7.5t39 -2.5q69 0 106 45.5t64 173.5l236 1112h127l-246 -1157q-33 -155 -99 -223t-182 -68q-33 0 -67.5 3.5t-64.5 10.5zM289 1327l35 166h141l-35 -166h-141z" />
<glyph unicode="k" horiz-adv-x="1014" d="M31 0l325 1526h125l-192 -903l540 401h172l-608 -446l459 -578h-147l-433 539l-114 -539h-127z" />
<glyph unicode="l" horiz-adv-x="451" d="M31 0l323 1526h127l-319 -1526h-131z" />
<glyph unicode="m" horiz-adv-x="1688" d="M23 0l215 1024h116l-35 -158q74 92 155 135t181 43q107 0 171.5 -55.5t88.5 -169.5q67 118 152.5 171.5t204.5 53.5q132 0 206 -76.5t74 -213.5q0 -29 -3 -55.5t-9 -51.5l-137 -647h-131l137 639q5 28 7.5 50.5t2.5 43.5q0 95 -48 147t-136 52q-127 0 -214 -98.5 t-128 -288.5l-117 -545h-125l135 630q7 30 11 58.5t4 52.5q0 91 -48 142t-132 51q-128 0 -222.5 -104.5t-134.5 -290.5l-114 -539h-127z" />
<glyph unicode="n" horiz-adv-x="1139" d="M31 0l219 1028h121l-39 -182q67 98 155 148t191 50q141 0 226 -83t85 -222q0 -39 -5 -83t-15 -89l-119 -567h-131l123 578q7 34 10.5 68.5t3.5 68.5q0 101 -56 157t-159 56q-130 0 -228 -107t-139 -295l-112 -526h-131z" />
<glyph unicode="o" horiz-adv-x="1139" d="M41 412q0 130 41.5 244.5t126.5 213.5q67 80 172.5 127t218.5 47q192 0 304 -116.5t112 -319.5q0 -87 -20.5 -170.5t-59.5 -156.5q-78 -147 -202.5 -226.5t-276.5 -79.5q-188 0 -302 119.5t-114 317.5zM180 428q0 -153 80 -245.5t213 -92.5q71 0 135 28.5t115 82.5 q73 78 113.5 183.5t40.5 221.5q0 153 -78 241.5t-211 88.5q-64 0 -124.5 -25t-113.5 -73q-81 -75 -125.5 -182t-44.5 -228z" />
<glyph unicode="p" horiz-adv-x="1165" d="M-61 -428l309 1456h119l-35 -178q71 96 160.5 145t191.5 49q171 0 265.5 -111t94.5 -312q0 -134 -48 -266.5t-130 -223.5q-67 -75 -148.5 -113t-172.5 -38q-130 0 -215 57t-125 170l-135 -635h-131zM264 408q0 -141 72.5 -227.5t189.5 -86.5q159 0 269 156.5t110 388.5 q0 137 -67 216t-183 79q-84 0 -161 -49.5t-138 -143.5q-43 -66 -67.5 -155t-24.5 -178z" />
<glyph unicode="q" horiz-adv-x="1128" d="M51 389q0 110 30 215.5t87 200.5q68 114 168.5 175.5t216.5 61.5q131 0 213 -59t102 -168l45 209h131l-311 -1450h-123l125 569q-66 -82 -146 -122.5t-177 -40.5q-168 0 -264.5 109t-96.5 300zM190 383q0 -136 67 -214.5t181 -78.5q88 0 164.5 48.5t136.5 142.5 q44 68 69.5 157t25.5 178q0 141 -73 227.5t-192 86.5q-58 0 -113.5 -24.5t-101.5 -69.5q-76 -76 -120 -196t-44 -257z" />
<glyph unicode="r" horiz-adv-x="678" d="M29 0l215 1024h118l-34 -154q73 91 147.5 134t159.5 43q20 0 43.5 -3.5t56.5 -11.5l-28 -128q-23 6 -45 9.5t-46 4.5q-131 0 -214 -94t-126 -292l-112 -532h-135z" />
<glyph unicode="s" horiz-adv-x="793" d="M-57 31l43 127q63 -34 129.5 -51t138.5 -17q118 0 187 51t69 138q0 55 -31 99t-139 118l-14 9q-205 142 -205 255q0 132 100.5 210.5t274.5 78.5q59 0 122 -13.5t132 -40.5l-41 -125q-56 34 -111 50t-113 16q-107 0 -171 -41t-64 -109q0 -78 163 -187q55 -37 84 -58 q75 -54 113.5 -119t38.5 -137q0 -145 -110.5 -228.5t-305.5 -83.5q-76 0 -149 14.5t-141 43.5z" />
<glyph unicode="t" horiz-adv-x="678" d="M49 915l23 109h207l53 254l139 49l-63 -303h262l-25 -109h-262l-121 -571q-7 -33 -10.5 -60.5t-3.5 -50.5q0 -61 31.5 -96t87.5 -35q19 0 47.5 5.5t62.5 15.5l-25 -115q-30 -9 -57.5 -13.5t-52.5 -4.5q-108 0 -167.5 57.5t-59.5 161.5q0 33 14 107q1 7 2 12l125 587h-207 z" />
<glyph unicode="u" horiz-adv-x="1139" d="M78 281q0 35 5 77t15 95l119 567h131l-123 -578q-7 -34 -10.5 -69.5t-3.5 -69.5q0 -101 56 -156t159 -55q131 0 228.5 106t138.5 294l112 528h131l-219 -1020h-121l39 172q-67 -97 -154.5 -147t-191.5 -50q-141 0 -226 83.5t-85 222.5z" />
<glyph unicode="v" horiz-adv-x="905" d="M80 1024h131l115 -905l487 905h135l-577 -1038h-148z" />
<glyph unicode="w" horiz-adv-x="1579" d="M70 1024h125l79 -907l490 907h151l101 -909l461 909h143l-555 -1038h-150l-100 923l-487 -923h-158z" />
<glyph unicode="x" horiz-adv-x="909" d="M-111 0l469 541l-233 483h139l176 -387l338 387h158l-430 -477l244 -547h-142l-188 436l-387 -436h-144z" />
<glyph unicode="y" horiz-adv-x="901" d="M-178 -426l31 111q29 -9 50 -13t38 -4q64 0 109.5 33.5t92.5 120.5l82 149l-141 1053h125l113 -909l477 909h141l-676 -1227q-73 -133 -146.5 -188t-172.5 -55q-26 0 -56 4.5t-67 15.5z" />
<glyph unicode="z" horiz-adv-x="901" d="M-68 0l25 117l793 803h-592l20 104h748l-25 -119l-790 -801h628l-22 -104h-785z" />
<glyph unicode="{" d="M176 485v90q10 -1 20.5 -1.5t28.5 -0.5q139 0 196.5 64.5t57.5 222.5v240q0 227 68.5 302t257.5 75h43v-88h-37q-135 0 -182 -51.5t-47 -213.5v-241q0 -175 -43 -248t-152 -105q109 -32 152 -104t43 -248v-241q0 -162 46.5 -212.5t180.5 -50.5h39v-88h-43 q-189 0 -257.5 74.5t-68.5 300.5v240q0 158 -58 222t-200 64q-7 0 -21.5 -1t-23.5 -1z" />
<glyph unicode="|" d="M467 -483v2048h90v-2048h-90z" />
<glyph unicode="}" d="M176 -326h39q134 0 180.5 50.5t46.5 212.5v241q0 174 43.5 247t153.5 105q-110 32 -153.5 105t-43.5 248v241q0 162 -47 213.5t-182 51.5h-37v88h43q189 0 257.5 -75t68.5 -302v-240q0 -158 58 -222.5t200 -64.5q7 0 21.5 1t23.5 1v-90q-9 0 -23.5 1t-21.5 1 q-142 0 -200 -64t-58 -222v-240q0 -226 -68.5 -300.5t-257.5 -74.5h-43v88z" />
<glyph unicode="~" horiz-adv-x="1706" d="M178 481v92q105 74 201 110t186 36q100 0 271 -61q12 -5 19 -7q8 -3 27 -10q168 -61 261 -61q83 0 175 37.5t212 121.5v-92q-106 -74 -202 -110.5t-185 -36.5q-99 0 -266 61q-16 6 -22 8q-12 4 -33 12q-167 60 -257 60q-83 0 -175 -37.5t-212 -122.5z" />
<glyph unicode="&#xa1;" horiz-adv-x="793" d="M160 0l248 1071h120l-206 -1071h-162zM422 1251l41 170h168l-41 -170h-168z" />
<glyph unicode="&#xa2;" horiz-adv-x="1147" d="M133 461q0 259 166 424.5t428 165.5h29l71 239l84 -6l-73 -237q42 -5 84.5 -15t83.5 -24l-35 -121q-50 16 -91 26t-77 15l-250 -813q6 -1 14 -1.5t23 -0.5q46 0 105 11t134 34l-14 -133q-69 -17 -129 -25t-108 -8q-22 0 -36 0.5t-25 1.5l-85 -275h-84l88 287 q-141 42 -222 164t-81 291zM270 461q0 -127 52.5 -212.5t150.5 -119.5l248 807q-202 -8 -326.5 -139t-124.5 -336z" />
<glyph unicode="&#xa3;" horiz-adv-x="1147" d="M12 0l27 123h207l125 594h-181l23 102h180q50 318 181 467.5t358 149.5q49 0 109 -12t151 -40l-41 -118q-72 26 -126.5 38.5t-96.5 12.5q-166 0 -260.5 -117.5t-137.5 -380.5h340l-22 -102h-340l-127 -594h512l-27 -123h-854z" />
<glyph unicode="&#xa4;" horiz-adv-x="1147" d="M0 551l43 102h141q4 63 10 107.5t14 83.5h-147l43 102h132q73 228 232.5 362t360.5 134q80 0 160 -17.5t162 -52.5l-31 -127q-74 43 -142 63.5t-134 20.5q-158 0 -276.5 -98.5t-186.5 -284.5h592l-43 -102h-578q-10 -46 -16.5 -94t-7.5 -96l555 -1l-43 -102h-510 q13 -212 107.5 -332.5t250.5 -120.5q48 0 107.5 14t136.5 44l-10 -133q-66 -23 -125 -34.5t-115 -11.5q-221 0 -352 152t-144 422h-186z" />
<glyph unicode="&#xa5;" horiz-adv-x="1139" d="M4 584l21 98h405l-76 190h-288l20 101h231l-176 448h133l269 -716l538 716h144l-351 -448h254l-20 -101h-307l-142 -190h408l-20 -98h-459l-119 -584h-139l125 584h-451z" />
<glyph unicode="&#xa6;" d="M467 -350v758h90v-758h-90zM467 674v758h90v-758h-90z" />
<glyph unicode="&#xa7;" d="M-35 -172l47 119q77 -46 153.5 -69t151.5 -23q136 0 216.5 62t80.5 167q0 28 -10.5 56.5t-30.5 54.5q-31 38 -163 100q-70 33 -109 53q-86 46 -132 109.5t-46 138.5q0 112 68.5 196t197.5 132q-64 39 -95.5 93.5t-31.5 127.5q0 133 107 217t280 84q87 0 165.5 -18 t150.5 -54l-39 -102q-77 35 -142.5 52t-121.5 17q-122 0 -195.5 -54.5t-73.5 -143.5q0 -27 7 -51t20 -42q30 -43 186 -116q58 -27 90 -43q89 -44 135 -106t46 -138q0 -94 -69.5 -182t-191.5 -146q66 -42 100 -102.5t34 -134.5q0 -145 -123.5 -241.5t-313.5 -96.5 q-82 0 -166.5 20.5t-181.5 63.5zM252 629q0 -75 64 -132.5t237 -129.5q103 82 149 145t46 119q0 101 -213 211q-48 24 -74 39q-103 -57 -156 -120.5t-53 -131.5z" />
<glyph unicode="&#xa8;" d="M408 1233l34 162h142l-35 -162h-141zM729 1233l35 162h141l-35 -162h-141z" />
<glyph unicode="&#xa9;" horiz-adv-x="1706" d="M123 721q0 145 56 279t161 241q101 103 232 157t280 54t282.5 -55t237.5 -160q103 -102 157 -235t54 -281q0 -150 -53.5 -280t-157.5 -232q-107 -106 -241.5 -162.5t-278.5 -56.5q-145 0 -277 55.5t-237 161.5q-105 104 -160 236t-55 278zM195 721q0 -130 50 -249.5 t144 -213.5t213.5 -144.5t249.5 -50.5t251.5 51t217.5 146q93 92 141.5 209.5t48.5 251.5q0 133 -49 252.5t-141 212.5q-95 95 -215 144.5t-254 49.5q-133 0 -251.5 -49t-209.5 -141q-95 -97 -145.5 -218t-50.5 -251zM471 725q0 205 107 328t282 123q132 0 222.5 -72 t103.5 -186h-105q-20 81 -79.5 126.5t-147.5 45.5q-126 0 -196 -97.5t-70 -273.5q0 -169 71.5 -267t194.5 -98q91 0 156 52.5t84 140.5h102q-11 -123 -108 -201t-240 -78q-173 0 -275 123.5t-102 333.5z" />
<glyph unicode="&#xaa;" horiz-adv-x="760" d="M0 891q0 123 108 190.5t308 67.5q26 0 59.5 -1.5t73.5 -4.5q1 5 2 14q6 42 6 55q0 71 -44 109.5t-124 38.5q-42 0 -98 -12.5t-133 -38.5l12 92q69 18 126 27.5t101 9.5q119 0 185.5 -57t66.5 -158q0 -29 -9 -88q-2 -11 -3 -17l-47 -218q-3 -16 -10 -46q-22 -108 -27 -149 h-84l18 112q-56 -64 -117.5 -94.5t-133.5 -30.5q-106 0 -171 55.5t-65 143.5zM102 895q0 -57 41 -91t109 -34q116 0 190.5 79.5t94.5 225.5h-80q-187 0 -271 -42.5t-84 -137.5z" />
<glyph unicode="&#xab;" d="M90 512l377 418h139l-391 -422l301 -420h-121zM442 512l375 418h139l-391 -422l303 -420h-123z" />
<glyph unicode="&#xac;" horiz-adv-x="1706" d="M254 774v82h1198v-502h-78v420h-1120z" />
<glyph unicode="&#xad;" horiz-adv-x="678" d="M39 506l22 108h504l-22 -108h-504z" />
<glyph unicode="&#xae;" horiz-adv-x="1706" d="M123 721q0 145 56 279t161 241q101 103 232 157t280 54t282.5 -55t237.5 -160q103 -102 157 -235t54 -281q0 -150 -53.5 -280t-157.5 -232q-107 -106 -241.5 -162.5t-278.5 -56.5q-145 0 -277 55.5t-237 161.5q-105 104 -160 236t-55 278zM195 721q0 -130 50 -249.5 t144 -213.5t213.5 -144.5t249.5 -50.5t251.5 51t217.5 146q93 92 141.5 209.5t48.5 251.5q0 133 -49 252.5t-141 212.5q-95 95 -215 144.5t-254 49.5q-133 0 -251.5 -49t-209.5 -141q-95 -97 -145.5 -218t-50.5 -251zM569 309v846h305q180 0 264.5 -56.5t84.5 -176.5 q0 -89 -55.5 -149t-147.5 -71l190 -393h-131l-182 377h-213v-377h-115zM684 764h168q145 0 199.5 36t54.5 126q0 78 -61.5 114.5t-192.5 36.5h-168v-313z" />
<glyph unicode="&#xaf;" d="M389 1255l25 117h510l-25 -117h-510z" />
<glyph unicode="&#xb0;" horiz-adv-x="674" d="M63 1176q0 114 80.5 194t194.5 80q112 0 192 -80.5t80 -193.5q0 -114 -80 -193.5t-194 -79.5q-115 0 -194 79t-79 194zM125 1176q0 -89 62.5 -151t150.5 -62t150.5 62t62.5 151q0 87 -63 150t-150 63q-89 0 -151 -62t-62 -151z" />
<glyph unicode="&#xb1;" horiz-adv-x="1706" d="M254 59v82h1198v-82h-1198zM254 727v80h559v354h80v-354h559v-80h-559v-352h-80v352h-559z" />
<glyph unicode="&#xb2;" horiz-adv-x="758" d="M0 569l16 68l338 274q132 108 186 178.5t54 131.5q0 64 -47 101.5t-127 37.5q-49 0 -103 -17t-116 -53l4 88q62 28 119 42t106 14q120 0 188 -54t68 -149q0 -77 -49 -149t-172 -171l-336 -266h457l-19 -76h-567z" />
<glyph unicode="&#xb3;" horiz-adv-x="758" d="M-12 602l22 74q60 -23 113 -34t102 -11q125 0 203 57t78 148q0 76 -65.5 116.5t-188.5 40.5q-17 0 -25.5 -0.5t-15.5 -1.5l14 72q15 -2 32 -3t48 -1q132 0 210.5 45.5t78.5 120.5q0 62 -51.5 100.5t-136.5 38.5q-64 0 -117 -11.5t-105 -35.5l6 80q52 19 104 29t107 10 q133 0 209 -54t76 -147q0 -82 -60 -138t-171 -77q71 -26 109 -74t38 -112q0 -54 -27.5 -104t-78.5 -91q-55 -43 -120 -62.5t-155 -19.5q-54 0 -111.5 11t-121.5 34z" />
<glyph unicode="&#xb4;" d="M504 1155l246 348h145l-299 -348h-92z" />
<glyph unicode="&#xb5;" horiz-adv-x="1094" d="M-111 -424l316 1487h121l-123 -590q-9 -43 -13 -77t-4 -64q0 -126 60 -192t174 -66q127 0 219.5 109t136.5 313l125 567h121l-166 -786q-2 -9 -5 -24q-20 -92 -20 -112q0 -31 17.5 -47t50.5 -16q9 0 18.5 0.5t20.5 1.5l-18 -96q-3 -1 -8 -2q-49 -11 -68 -11 q-68 0 -100.5 31.5t-32.5 95.5q0 7 0.5 16t3.5 29q-43 -83 -123.5 -127.5t-188.5 -44.5q-97 0 -169.5 45.5t-104.5 126.5l-119 -567h-121z" />
<glyph unicode="&#xb6;" d="M90 1130q0 157 108.5 253t286.5 96h447v-64h-129v-1415h-70v1415h-192v-1415h-70v782q-175 8 -278 102.5t-103 245.5z" />
<glyph unicode="&#xb7;" horiz-adv-x="573" d="M197 711q0 39 26 65.5t66 26.5q39 0 65.5 -26.5t26.5 -65.5t-27 -66t-65 -27t-65 27.5t-27 65.5z" />
<glyph unicode="&#xb8;" d="M90 -416l27 78q74 -20 126.5 -29.5t90.5 -9.5q65 0 100 29t35 82q0 47 -38.5 67.5t-129.5 20.5h-33l62 178h63l-37 -111h23q99 0 151 -39.5t52 -115.5q0 -90 -60.5 -142.5t-165.5 -52.5q-63 0 -128.5 11t-137.5 34z" />
<glyph unicode="&#xb9;" horiz-adv-x="758" d="M211 1272l272 149h58l-199 -852h-80l180 760l-184 -110z" />
<glyph unicode="&#xba;" horiz-adv-x="854" d="M31 993q0 92 31.5 172t95.5 150q50 55 129.5 88t163.5 33q144 0 227.5 -82t83.5 -224q0 -62 -15 -120t-45 -109q-57 -102 -151 -157.5t-209 -55.5q-141 0 -226 83.5t-85 221.5zM135 1004q0 -107 60 -171.5t159 -64.5q54 0 102.5 20t86.5 58q55 55 84.5 128t29.5 154 q0 107 -58 169.5t-159 62.5q-47 0 -92 -18t-86 -52q-60 -51 -93.5 -126t-33.5 -160z" />
<glyph unicode="&#xbb;" d="M-16 88l391 422l-301 418h123l303 -422l-377 -418h-139zM336 88l391 422l-303 418h123l303 -422l-377 -418h-137z" />
<glyph unicode="&#xbc;" horiz-adv-x="1788" d="M199 1282l262 141h55l-190 -796h-78l172 708l-176 -102zM461 -25l758 1471h108l-756 -1471h-110zM1073 193l17 69l534 535h105l-130 -543h127l-14 -61h-129l-45 -193h-80l47 193h-432zM1169 254h351l114 471z" />
<glyph unicode="&#xbd;" horiz-adv-x="1788" d="M199 1282l262 141h55l-190 -796h-78l172 708l-176 -102zM461 -25l758 1471h108l-756 -1471h-110zM1065 0l16 63l322 256q128 102 178.5 167t50.5 122q0 60 -44.5 95.5t-121.5 35.5q-45 0 -96 -16t-115 -51l7 84q58 25 111.5 38t101.5 13q114 0 179.5 -50.5t65.5 -138.5 q0 -72 -47 -140t-164 -159l-321 -249h436l-16 -70h-543z" />
<glyph unicode="&#xbe;" horiz-adv-x="1788" d="M-12 657l22 68q60 -21 110 -31t95 -10q120 0 194 53.5t74 139.5q0 70 -62.5 107.5t-180.5 37.5h-39l14 65q14 -2 30 -3t46 -1q126 0 201 42.5t75 111.5q0 59 -49 95t-131 36q-59 0 -109.5 -10.5t-101.5 -32.5l6 74q52 18 101.5 27.5t99.5 9.5q127 0 199.5 -51t72.5 -138 q0 -75 -58 -128t-163 -72q68 -23 104.5 -69t36.5 -106q0 -47 -26.5 -94.5t-75.5 -87.5q-53 -39 -116 -57.5t-146 -18.5q-51 0 -106.5 11t-116.5 32zM461 -25l758 1471h108l-756 -1471h-110zM1073 193l17 69l534 535h105l-130 -543h127l-14 -61h-129l-45 -193h-80l47 193 h-432zM1169 254h351l114 471z" />
<glyph unicode="&#xbf;" d="M82 287q0 102 55 190.5t201 208.5l36 30q211 172 240 351h117q-20 -111 -64.5 -191.5t-156.5 -181.5q-21 -18 -60 -52q-235 -202 -235 -335q0 -101 72.5 -158t201.5 -57q62 0 120.5 13.5t115.5 39.5l-27 -118q-72 -23 -136.5 -34t-121.5 -11q-163 0 -260.5 83t-97.5 222z M629 1249l35 172h167l-38 -172h-164z" />
<glyph unicode="&#xc0;" horiz-adv-x="1346" d="M-102 0l884 1421h156l274 -1421h-135l-76 383h-716l-240 -383h-147zM354 508h621l-141 795zM578 1882h147l224 -348h-90z" />
<glyph unicode="&#xc1;" horiz-adv-x="1346" d="M-102 0l884 1421h156l274 -1421h-135l-76 383h-716l-240 -383h-147zM354 508h621l-141 795zM701 1534l246 348h145l-299 -348h-92z" />
<glyph unicode="&#xc2;" horiz-adv-x="1346" d="M-102 0l884 1421h156l274 -1421h-135l-76 383h-716l-240 -383h-147zM354 508h621l-141 795zM549 1534l266 348h134l153 -348h-80l-147 248l-234 -248h-92z" />
<glyph unicode="&#xc3;" horiz-adv-x="1346" d="M-102 0l884 1421h156l274 -1421h-135l-76 383h-716l-240 -383h-147zM354 508h621l-141 795zM570 1585q36 101 78.5 143t107.5 42q17 0 31 -2t26 -7l92 -26q26 -8 37.5 -10t20.5 -3q34 0 56 17.5t36 54.5h80q-36 -99 -79.5 -140.5t-108.5 -41.5q-13 0 -27 2.5t-41 9.5 l-94 29q-11 3 -23 4.5t-22 1.5q-31 0 -54 -18.5t-36 -55.5h-80z" />
<glyph unicode="&#xc4;" horiz-adv-x="1346" d="M-102 0l884 1421h156l274 -1421h-135l-76 383h-716l-240 -383h-147zM354 508h621l-141 795zM605 1612l34 162h142l-35 -162h-141zM926 1612l35 162h141l-35 -162h-141z" />
<glyph unicode="&#xc5;" horiz-adv-x="1346" d="M-102 0l884 1421h156l274 -1421h-135l-76 383h-716l-240 -383h-147zM354 508h621l-141 795zM633 1733q0 101 70 170t171 69q102 0 171 -69t69 -170q0 -102 -69.5 -172t-170.5 -70t-171 70t-70 172zM719 1731q0 -66 45 -111t110 -45t109.5 45.5t44.5 110.5t-44.5 110 t-109.5 45q-66 0 -110.5 -44.5t-44.5 -110.5z" />
<glyph unicode="&#xc6;" horiz-adv-x="1802" d="M-121 0l1082 1421h845l-24 -116h-606l-58 -498h529l-25 -125h-518l-74 -563h531l-27 -119h-655l47 377h-602l-283 -377h-162zM412 504h530l102 821h-10z" />
<glyph unicode="&#xc7;" horiz-adv-x="1241" d="M86 612q0 183 74.5 350.5t210.5 288.5q98 87 241 139t287 52q99 0 198 -17.5t201 -52.5l-36 -127q-92 43 -177 63.5t-167 20.5q-119 0 -227 -35.5t-197 -103.5q-122 -92 -193.5 -246t-71.5 -326q0 -230 138 -375t356 -145q60 0 134.5 14.5t168.5 43.5l-12 -133 q-80 -23 -154 -34.5t-143 -11.5q-285 0 -458 175t-173 460zM344 -416l27 78q74 -20 126.5 -29.5t90.5 -9.5q65 0 100 29t35 82q0 47 -38.5 67.5t-129.5 20.5h-33l62 178h63l-37 -111h23q99 0 151 -39.5t52 -115.5q0 -90 -60.5 -142.5t-165.5 -52.5q-63 0 -128.5 11 t-137.5 34z" />
<glyph unicode="&#xc8;" horiz-adv-x="1010" d="M35 0l303 1421h698l-26 -116h-561l-107 -498h532l-24 -125h-535l-118 -563h591l-26 -119h-727zM438 1882h147l224 -348h-90z" />
<glyph unicode="&#xc9;" horiz-adv-x="1010" d="M35 0l303 1421h698l-26 -116h-561l-107 -498h532l-24 -125h-535l-118 -563h591l-26 -119h-727zM561 1534l246 348h145l-299 -348h-92z" />
<glyph unicode="&#xca;" horiz-adv-x="1010" d="M35 0l303 1421h698l-26 -116h-561l-107 -498h532l-24 -125h-535l-118 -563h591l-26 -119h-727zM409 1534l266 348h134l153 -348h-80l-147 248l-234 -248h-92z" />
<glyph unicode="&#xcb;" horiz-adv-x="1010" d="M35 0l303 1421h698l-26 -116h-561l-107 -498h532l-24 -125h-535l-118 -563h591l-26 -119h-727zM465 1612l34 162h142l-35 -162h-141zM786 1612l35 162h141l-35 -162h-141z" />
<glyph unicode="&#xcc;" horiz-adv-x="502" d="M33 0l301 1421h133l-303 -1421h-131zM156 1882h147l224 -348h-90z" />
<glyph unicode="&#xcd;" horiz-adv-x="502" d="M33 0l301 1421h133l-303 -1421h-131zM279 1534l246 348h145l-299 -348h-92z" />
<glyph unicode="&#xce;" horiz-adv-x="502" d="M33 0l301 1421h133l-303 -1421h-131zM127 1534l266 348h134l153 -348h-80l-147 248l-234 -248h-92z" />
<glyph unicode="&#xcf;" horiz-adv-x="502" d="M33 0l301 1421h133l-303 -1421h-131zM183 1612l34 162h142l-35 -162h-141zM504 1612l35 162h141l-35 -162h-141z" />
<glyph unicode="&#xd0;" horiz-adv-x="1356" d="M-10 686l22 105h195l133 630h287q306 0 470.5 -151.5t164.5 -433.5q0 -216 -95 -404.5t-256 -294.5q-108 -71 -237.5 -104t-304.5 -33h-330l147 686h-196zM205 123h174q162 0 279.5 31.5t199.5 97.5q120 95 191 256.5t71 339.5q0 220 -124.5 337.5t-358.5 117.5h-186 l-107 -512h346l-22 -105h-346z" />
<glyph unicode="&#xd1;" horiz-adv-x="1415" d="M41 0l301 1421h168l465 -1255l266 1255h131l-303 -1421h-168l-463 1262l-266 -1262h-131zM572 1585q36 101 78.5 143t107.5 42q17 0 31 -2t26 -7l92 -26q26 -8 37.5 -10t20.5 -3q34 0 56 17.5t36 54.5h80q-36 -99 -79.5 -140.5t-108.5 -41.5q-13 0 -27 2.5t-41 9.5 l-94 29q-11 3 -23 4.5t-22 1.5q-31 0 -54 -18.5t-36 -55.5h-80z" />
<glyph unicode="&#xd2;" horiz-adv-x="1479" d="M94 567q0 189 71 369.5t193 304.5q97 98 224.5 152.5t261.5 54.5q247 0 392.5 -153t145.5 -412q0 -151 -39 -293.5t-112 -259.5q-108 -171 -261.5 -263t-330.5 -92q-251 0 -398 159.5t-147 432.5zM238 565q0 -217 107 -344t290 -127q133 0 238 56.5t196 177.5 q80 103 126 249t46 295q0 214 -110.5 339.5t-299.5 125.5q-111 0 -215 -53.5t-184 -150.5q-92 -115 -143 -263.5t-51 -304.5zM614 1882h147l224 -348h-90z" />
<glyph unicode="&#xd3;" horiz-adv-x="1479" d="M94 567q0 189 71 369.5t193 304.5q97 98 224.5 152.5t261.5 54.5q247 0 392.5 -153t145.5 -412q0 -151 -39 -293.5t-112 -259.5q-108 -171 -261.5 -263t-330.5 -92q-251 0 -398 159.5t-147 432.5zM238 565q0 -217 107 -344t290 -127q133 0 238 56.5t196 177.5 q80 103 126 249t46 295q0 214 -110.5 339.5t-299.5 125.5q-111 0 -215 -53.5t-184 -150.5q-92 -115 -143 -263.5t-51 -304.5zM737 1534l246 348h145l-299 -348h-92z" />
<glyph unicode="&#xd4;" horiz-adv-x="1479" d="M94 567q0 189 71 369.5t193 304.5q97 98 224.5 152.5t261.5 54.5q247 0 392.5 -153t145.5 -412q0 -151 -39 -293.5t-112 -259.5q-108 -171 -261.5 -263t-330.5 -92q-251 0 -398 159.5t-147 432.5zM238 565q0 -217 107 -344t290 -127q133 0 238 56.5t196 177.5 q80 103 126 249t46 295q0 214 -110.5 339.5t-299.5 125.5q-111 0 -215 -53.5t-184 -150.5q-92 -115 -143 -263.5t-51 -304.5zM585 1534l266 348h134l153 -348h-80l-147 248l-234 -248h-92z" />
<glyph unicode="&#xd5;" horiz-adv-x="1479" d="M94 567q0 189 71 369.5t193 304.5q97 98 224.5 152.5t261.5 54.5q247 0 392.5 -153t145.5 -412q0 -151 -39 -293.5t-112 -259.5q-108 -171 -261.5 -263t-330.5 -92q-251 0 -398 159.5t-147 432.5zM238 565q0 -217 107 -344t290 -127q133 0 238 56.5t196 177.5 q80 103 126 249t46 295q0 214 -110.5 339.5t-299.5 125.5q-111 0 -215 -53.5t-184 -150.5q-92 -115 -143 -263.5t-51 -304.5zM606 1585q36 101 78.5 143t107.5 42q17 0 31 -2t26 -7l92 -26q26 -8 37.5 -10t20.5 -3q34 0 56 17.5t36 54.5h80q-36 -99 -79.5 -140.5 t-108.5 -41.5q-13 0 -27 2.5t-41 9.5l-94 29q-11 3 -23 4.5t-22 1.5q-31 0 -54 -18.5t-36 -55.5h-80z" />
<glyph unicode="&#xd6;" horiz-adv-x="1479" d="M94 567q0 189 71 369.5t193 304.5q97 98 224.5 152.5t261.5 54.5q247 0 392.5 -153t145.5 -412q0 -151 -39 -293.5t-112 -259.5q-108 -171 -261.5 -263t-330.5 -92q-251 0 -398 159.5t-147 432.5zM238 565q0 -217 107 -344t290 -127q133 0 238 56.5t196 177.5 q80 103 126 249t46 295q0 214 -110.5 339.5t-299.5 125.5q-111 0 -215 -53.5t-184 -150.5q-92 -115 -143 -263.5t-51 -304.5zM641 1612l34 162h142l-35 -162h-141zM962 1612l35 162h141l-35 -162h-141z" />
<glyph unicode="&#xd7;" horiz-adv-x="1706" d="M309 123l488 487l-488 488l58 57l487 -487l487 487l58 -57l-488 -488l488 -487l-58 -57l-487 487l-487 -487z" />
<glyph unicode="&#xd8;" horiz-adv-x="1479" d="M49 -100l182 247q-68 81 -102.5 186.5t-34.5 233.5q0 190 71 370t193 304q98 99 226 153t266 54q70 0 134 -15t126 -47l143 197l76 -55l-135 -193q95 -79 141.5 -192.5t46.5 -263.5t-39 -291t-112 -258q-108 -171 -261.5 -263t-330.5 -92q-100 0 -182.5 26t-153.5 79 l-180 -242zM238 565q0 -85 18 -159.5t55 -143.5l725 1020q-40 27 -88 40t-106 13q-120 0 -225.5 -52t-184.5 -150q-93 -115 -143.5 -263t-50.5 -305zM379 186q53 -47 118 -70.5t144 -23.5q126 0 231 58t197 178q79 103 125.5 249t46.5 295q0 121 -31.5 209t-95.5 144z" />
<glyph unicode="&#xd9;" horiz-adv-x="1389" d="M135 412q0 52 8 116.5t27 155.5l158 737h135l-180 -848q-9 -39 -13 -75t-4 -68q0 -151 89 -246.5t229 -95.5q183 0 296.5 122.5t168.5 381.5l176 829h135l-172 -807q-70 -329 -218 -485t-390 -156q-199 0 -322 122.5t-123 316.5zM600 1882h147l224 -348h-90z" />
<glyph unicode="&#xda;" horiz-adv-x="1389" d="M135 412q0 52 8 116.5t27 155.5l158 737h135l-180 -848q-9 -39 -13 -75t-4 -68q0 -151 89 -246.5t229 -95.5q183 0 296.5 122.5t168.5 381.5l176 829h135l-172 -807q-70 -329 -218 -485t-390 -156q-199 0 -322 122.5t-123 316.5zM723 1534l246 348h145l-299 -348h-92z " />
<glyph unicode="&#xdb;" horiz-adv-x="1389" d="M135 412q0 52 8 116.5t27 155.5l158 737h135l-180 -848q-9 -39 -13 -75t-4 -68q0 -151 89 -246.5t229 -95.5q183 0 296.5 122.5t168.5 381.5l176 829h135l-172 -807q-70 -329 -218 -485t-390 -156q-199 0 -322 122.5t-123 316.5zM571 1534l266 348h134l153 -348h-80 l-147 248l-234 -248h-92z" />
<glyph unicode="&#xdc;" horiz-adv-x="1389" d="M135 412q0 52 8 116.5t27 155.5l158 737h135l-180 -848q-9 -39 -13 -75t-4 -68q0 -151 89 -246.5t229 -95.5q183 0 296.5 122.5t168.5 381.5l176 829h135l-172 -807q-70 -329 -218 -485t-390 -156q-199 0 -322 122.5t-123 316.5zM627 1612l34 162h142l-35 -162h-141z M948 1612l35 162h141l-35 -162h-141z" />
<glyph unicode="&#xdd;" horiz-adv-x="1247" d="M170 1421h147l297 -704l600 704h158l-708 -817l-123 -604h-138l129 612zM651 1534l246 348h145l-299 -348h-92z" />
<glyph unicode="&#xde;" horiz-adv-x="1028" d="M20 0l302 1421h133l-62 -307h174q190 0 296 -94t106 -262q0 -213 -159.5 -332t-447.5 -119q-17 0 -52.5 1.5t-88.5 4.5l-63 -313h-138zM248 439q26 -4 52 -5.5t50 -1.5q144 0 218 15t126 51q63 41 98 110.5t35 151.5q0 120 -76 177.5t-235 57.5h-149z" />
<glyph unicode="&#xdf;" horiz-adv-x="1128" d="M16 0l228 1071q52 244 167.5 356.5t311.5 112.5q152 0 243 -88.5t91 -234.5q0 -166 -91 -270.5t-261 -133.5q140 -28 210 -108t70 -213q0 -220 -131.5 -362t-335.5 -142q-58 0 -118 9.5t-121 29.5l38 112q48 -19 94.5 -29t90.5 -10q155 0 247.5 101t92.5 270 q0 137 -74.5 207t-218.5 70q-19 0 -28.5 -0.5t-18.5 -1.5l24 116q186 6 292 97t106 243q0 105 -61.5 167.5t-164.5 62.5q-132 0 -209.5 -95.5t-126.5 -328.5l-215 -1008h-131z" />
<glyph unicode="&#xe0;" horiz-adv-x="1014" d="M0 266q0 177 144 273t411 96q29 0 71 -2.5t105 -7.5q6 38 8 61.5t2 38.5q0 101 -57.5 156t-165.5 55q-55 0 -130.5 -18t-176.5 -56l14 133q97 27 172 40.5t131 13.5q158 0 247 -82t89 -226q0 -32 -4 -69t-12 -80l-62 -316q-26 -130 -35 -183.5t-14 -92.5h-112l24 162 q-74 -91 -156 -134.5t-180 -43.5q-140 0 -226.5 78.5t-86.5 203.5zM137 272q0 -81 54.5 -130.5t144.5 -49.5q154 0 253.5 114.5t125.5 321.5q-19 1 -41.5 1.5t-65.5 0.5q-248 0 -359.5 -61.5t-111.5 -196.5zM307 1503h147l224 -348h-90z" />
<glyph unicode="&#xe1;" horiz-adv-x="1014" d="M0 266q0 177 144 273t411 96q29 0 71 -2.5t105 -7.5q6 38 8 61.5t2 38.5q0 101 -57.5 156t-165.5 55q-55 0 -130.5 -18t-176.5 -56l14 133q97 27 172 40.5t131 13.5q158 0 247 -82t89 -226q0 -32 -4 -69t-12 -80l-62 -316q-26 -130 -35 -183.5t-14 -92.5h-112l24 162 q-74 -91 -156 -134.5t-180 -43.5q-140 0 -226.5 78.5t-86.5 203.5zM137 272q0 -81 54.5 -130.5t144.5 -49.5q154 0 253.5 114.5t125.5 321.5q-19 1 -41.5 1.5t-65.5 0.5q-248 0 -359.5 -61.5t-111.5 -196.5zM430 1155l246 348h145l-299 -348h-92z" />
<glyph unicode="&#xe2;" horiz-adv-x="1014" d="M0 266q0 177 144 273t411 96q29 0 71 -2.5t105 -7.5q6 38 8 61.5t2 38.5q0 101 -57.5 156t-165.5 55q-55 0 -130.5 -18t-176.5 -56l14 133q97 27 172 40.5t131 13.5q158 0 247 -82t89 -226q0 -32 -4 -69t-12 -80l-62 -316q-26 -130 -35 -183.5t-14 -92.5h-112l24 162 q-74 -91 -156 -134.5t-180 -43.5q-140 0 -226.5 78.5t-86.5 203.5zM137 272q0 -81 54.5 -130.5t144.5 -49.5q154 0 253.5 114.5t125.5 321.5q-19 1 -41.5 1.5t-65.5 0.5q-248 0 -359.5 -61.5t-111.5 -196.5zM278 1155l266 348h134l153 -348h-80l-147 248l-234 -248h-92z" />
<glyph unicode="&#xe3;" horiz-adv-x="1014" d="M0 266q0 177 144 273t411 96q29 0 71 -2.5t105 -7.5q6 38 8 61.5t2 38.5q0 101 -57.5 156t-165.5 55q-55 0 -130.5 -18t-176.5 -56l14 133q97 27 172 40.5t131 13.5q158 0 247 -82t89 -226q0 -32 -4 -69t-12 -80l-62 -316q-26 -130 -35 -183.5t-14 -92.5h-112l24 162 q-74 -91 -156 -134.5t-180 -43.5q-140 0 -226.5 78.5t-86.5 203.5zM137 272q0 -81 54.5 -130.5t144.5 -49.5q154 0 253.5 114.5t125.5 321.5q-19 1 -41.5 1.5t-65.5 0.5q-248 0 -359.5 -61.5t-111.5 -196.5zM299 1206q36 101 78.5 143t107.5 42q17 0 31 -2t26 -7l92 -26 q26 -8 37.5 -10t20.5 -3q34 0 56 17.5t36 54.5h80q-36 -99 -79.5 -140.5t-108.5 -41.5q-13 0 -27 2.5t-41 9.5l-94 29q-11 3 -23 4.5t-22 1.5q-31 0 -54 -18.5t-36 -55.5h-80z" />
<glyph unicode="&#xe4;" horiz-adv-x="1014" d="M0 266q0 177 144 273t411 96q29 0 71 -2.5t105 -7.5q6 38 8 61.5t2 38.5q0 101 -57.5 156t-165.5 55q-55 0 -130.5 -18t-176.5 -56l14 133q97 27 172 40.5t131 13.5q158 0 247 -82t89 -226q0 -32 -4 -69t-12 -80l-62 -316q-26 -130 -35 -183.5t-14 -92.5h-112l24 162 q-74 -91 -156 -134.5t-180 -43.5q-140 0 -226.5 78.5t-86.5 203.5zM137 272q0 -81 54.5 -130.5t144.5 -49.5q154 0 253.5 114.5t125.5 321.5q-19 1 -41.5 1.5t-65.5 0.5q-248 0 -359.5 -61.5t-111.5 -196.5zM334 1233l34 162h142l-35 -162h-141zM655 1233l35 162h141 l-35 -162h-141z" />
<glyph unicode="&#xe5;" horiz-adv-x="1014" d="M0 266q0 177 144 273t411 96q29 0 71 -2.5t105 -7.5q6 38 8 61.5t2 38.5q0 101 -57.5 156t-165.5 55q-55 0 -130.5 -18t-176.5 -56l14 133q97 27 172 40.5t131 13.5q158 0 247 -82t89 -226q0 -32 -4 -69t-12 -80l-62 -316q-26 -130 -35 -183.5t-14 -92.5h-112l24 162 q-74 -91 -156 -134.5t-180 -43.5q-140 0 -226.5 78.5t-86.5 203.5zM137 272q0 -81 54.5 -130.5t144.5 -49.5q154 0 253.5 114.5t125.5 321.5q-19 1 -41.5 1.5t-65.5 0.5q-248 0 -359.5 -61.5t-111.5 -196.5zM338 1364q0 101 70 171.5t172 70.5q101 0 170 -70t69 -172 q0 -101 -69 -170.5t-170 -69.5q-102 0 -172 69.5t-70 170.5zM424 1364q0 -65 45 -110.5t111 -45.5q64 0 108.5 45.5t44.5 110.5q0 66 -44.5 111t-108.5 45q-66 0 -111 -45t-45 -111z" />
<glyph unicode="&#xe6;" horiz-adv-x="1630" d="M37 260q0 172 148.5 265t424.5 93q36 0 109 -3h12q5 29 7.5 53t2.5 45q0 106 -53.5 163.5t-152.5 57.5q-40 0 -104 -16.5t-171 -55.5l14 133q102 28 168.5 41t106.5 13q113 0 186.5 -49t106.5 -146q55 95 143 145t201 50q154 0 249 -102t95 -267q0 -25 -12 -141 q-2 -18 -2 -27h-682q-3 -15 -4 -29.5t-1 -42.5v-39q0 -148 76 -229.5t213 -81.5q64 0 127 17.5t127 52.5l-6 -127q-69 -30 -134 -45t-128 -15q-140 0 -237 68t-140 197q-51 -123 -149.5 -188.5t-229.5 -65.5q-139 0 -225 77t-86 199zM172 268q0 -78 55 -128t142 -50 q132 0 221.5 109.5t123.5 314.5q-15 1 -33.5 1.5t-51.5 0.5q-229 0 -343 -62t-114 -186zM854 616l553 1q3 28 3.5 41t0.5 24q0 121 -61.5 191.5t-167.5 70.5q-116 0 -205.5 -89t-122.5 -239z" />
<glyph unicode="&#xe7;" horiz-adv-x="909" d="M41 449q0 120 43.5 230.5t122.5 192.5q81 86 190 126t262 40q72 0 135 -10.5t119 -32.5l-34 -121q-72 25 -135 37.5t-115 12.5q-195 0 -323 -134.5t-128 -338.5q0 -161 86 -256t232 -95q46 0 105.5 12t135.5 35l-14 -133q-64 -16 -129.5 -24t-130.5 -8q-190 0 -306 128.5 t-116 338.5zM127 -416l27 78q74 -20 126.5 -29.5t90.5 -9.5q65 0 100 29t35 82q0 47 -38.5 67.5t-129.5 20.5h-33l62 178h63l-37 -111h23q99 0 151 -39.5t52 -115.5q0 -90 -60.5 -142.5t-165.5 -52.5q-63 0 -128.5 11t-137.5 34z" />
<glyph unicode="&#xe8;" d="M35 428q0 114 35 222t102 198q74 99 171.5 149t215.5 50q168 0 267.5 -104.5t99.5 -280.5q0 -40 -6.5 -85t-18.5 -96h-727q0 -3 -2 -13q-6 -51 -6 -73q0 -143 83.5 -224t231.5 -81q70 0 138 17.5t137 52.5l-6 -127q-73 -30 -144 -45t-141 -15q-203 0 -316.5 120 t-113.5 335zM190 590h602q4 20 5.5 39.5t1.5 38.5q0 128 -65 202t-177 74q-126 0 -228.5 -98.5t-138.5 -255.5zM309 1503h147l224 -348h-90z" />
<glyph unicode="&#xe9;" d="M35 428q0 114 35 222t102 198q74 99 171.5 149t215.5 50q168 0 267.5 -104.5t99.5 -280.5q0 -40 -6.5 -85t-18.5 -96h-727q0 -3 -2 -13q-6 -51 -6 -73q0 -143 83.5 -224t231.5 -81q70 0 138 17.5t137 52.5l-6 -127q-73 -30 -144 -45t-141 -15q-203 0 -316.5 120 t-113.5 335zM190 590h602q4 20 5.5 39.5t1.5 38.5q0 128 -65 202t-177 74q-126 0 -228.5 -98.5t-138.5 -255.5zM432 1155l246 348h145l-299 -348h-92z" />
<glyph unicode="&#xea;" d="M35 428q0 114 35 222t102 198q74 99 171.5 149t215.5 50q168 0 267.5 -104.5t99.5 -280.5q0 -40 -6.5 -85t-18.5 -96h-727q0 -3 -2 -13q-6 -51 -6 -73q0 -143 83.5 -224t231.5 -81q70 0 138 17.5t137 52.5l-6 -127q-73 -30 -144 -45t-141 -15q-203 0 -316.5 120 t-113.5 335zM190 590h602q4 20 5.5 39.5t1.5 38.5q0 128 -65 202t-177 74q-126 0 -228.5 -98.5t-138.5 -255.5zM280 1155l266 348h134l153 -348h-80l-147 248l-234 -248h-92z" />
<glyph unicode="&#xeb;" d="M35 428q0 114 35 222t102 198q74 99 171.5 149t215.5 50q168 0 267.5 -104.5t99.5 -280.5q0 -40 -6.5 -85t-18.5 -96h-727q0 -3 -2 -13q-6 -51 -6 -73q0 -143 83.5 -224t231.5 -81q70 0 138 17.5t137 52.5l-6 -127q-73 -30 -144 -45t-141 -15q-203 0 -316.5 120 t-113.5 335zM190 590h602q4 20 5.5 39.5t1.5 38.5q0 128 -65 202t-177 74q-126 0 -228.5 -98.5t-138.5 -255.5zM336 1233l34 162h142l-35 -162h-141zM657 1233l35 162h141l-35 -162h-141z" />
<glyph unicode="&#xec;" horiz-adv-x="451" d="M31 0l217 1024h127l-219 -1024h-125zM94 1503h147l224 -348h-90z" />
<glyph unicode="&#xed;" horiz-adv-x="451" d="M31 0l217 1024h127l-219 -1024h-125zM217 1155l246 348h145l-299 -348h-92z" />
<glyph unicode="&#xee;" horiz-adv-x="451" d="M31 0l217 1024h127l-219 -1024h-125zM65 1155l266 348h134l153 -348h-80l-147 248l-234 -248h-92z" />
<glyph unicode="&#xef;" horiz-adv-x="451" d="M31 0l217 1024h127l-219 -1024h-125zM121 1233l34 162h142l-35 -162h-141zM442 1233l35 162h141l-35 -162h-141z" />
<glyph unicode="&#xf0;" horiz-adv-x="1139" d="M41 412q0 130 42 244.5t126 213.5q68 82 169 126t220 44q69 0 122 -15.5t93 -47.5q-40 80 -87.5 156t-102.5 149l-283 -92l-37 96l248 82q-36 43 -74.5 83.5t-83.5 80.5h168q32 -33 60 -64t53 -61l241 76l39 -92l-213 -68q138 -181 206.5 -355.5t68.5 -346.5 q0 -94 -20.5 -180.5t-59.5 -159.5q-78 -147 -202.5 -226.5t-276.5 -79.5q-188 0 -302 120t-114 317zM180 428q0 -153 80 -245.5t213 -92.5q71 0 135 28.5t115 82.5q73 78 113.5 183.5t40.5 221.5q0 151 -79 240.5t-212 89.5q-63 0 -123 -25t-113 -73q-81 -75 -125.5 -182 t-44.5 -228z" />
<glyph unicode="&#xf1;" horiz-adv-x="1139" d="M31 0l219 1028h121l-39 -182q67 98 155 148t191 50q141 0 226 -83t85 -222q0 -39 -5 -83t-15 -89l-119 -567h-131l123 578q7 34 10.5 68.5t3.5 68.5q0 101 -56 157t-159 56q-130 0 -228 -107t-139 -295l-112 -526h-131zM391 1206q36 101 78.5 143t107.5 42q17 0 31 -2 t26 -7l92 -26q26 -8 37.5 -10t20.5 -3q34 0 56 17.5t36 54.5h80q-36 -99 -79.5 -140.5t-108.5 -41.5q-13 0 -27 2.5t-41 9.5l-94 29q-11 3 -23 4.5t-22 1.5q-31 0 -54 -18.5t-36 -55.5h-80z" />
<glyph unicode="&#xf2;" horiz-adv-x="1139" d="M41 412q0 130 41.5 244.5t126.5 213.5q67 80 172.5 127t218.5 47q192 0 304 -116.5t112 -319.5q0 -87 -20.5 -170.5t-59.5 -156.5q-78 -147 -202.5 -226.5t-276.5 -79.5q-188 0 -302 119.5t-114 317.5zM180 428q0 -153 80 -245.5t213 -92.5q71 0 135 28.5t115 82.5 q73 78 113.5 183.5t40.5 221.5q0 153 -78 241.5t-211 88.5q-64 0 -124.5 -25t-113.5 -73q-81 -75 -125.5 -182t-44.5 -228zM363 1503h147l224 -348h-90z" />
<glyph unicode="&#xf3;" horiz-adv-x="1139" d="M41 412q0 130 41.5 244.5t126.5 213.5q67 80 172.5 127t218.5 47q192 0 304 -116.5t112 -319.5q0 -87 -20.5 -170.5t-59.5 -156.5q-78 -147 -202.5 -226.5t-276.5 -79.5q-188 0 -302 119.5t-114 317.5zM180 428q0 -153 80 -245.5t213 -92.5q71 0 135 28.5t115 82.5 q73 78 113.5 183.5t40.5 221.5q0 153 -78 241.5t-211 88.5q-64 0 -124.5 -25t-113.5 -73q-81 -75 -125.5 -182t-44.5 -228zM486 1155l246 348h145l-299 -348h-92z" />
<glyph unicode="&#xf4;" horiz-adv-x="1139" d="M41 412q0 130 41.5 244.5t126.5 213.5q67 80 172.5 127t218.5 47q192 0 304 -116.5t112 -319.5q0 -87 -20.5 -170.5t-59.5 -156.5q-78 -147 -202.5 -226.5t-276.5 -79.5q-188 0 -302 119.5t-114 317.5zM180 428q0 -153 80 -245.5t213 -92.5q71 0 135 28.5t115 82.5 q73 78 113.5 183.5t40.5 221.5q0 153 -78 241.5t-211 88.5q-64 0 -124.5 -25t-113.5 -73q-81 -75 -125.5 -182t-44.5 -228zM334 1155l266 348h134l153 -348h-80l-147 248l-234 -248h-92z" />
<glyph unicode="&#xf5;" horiz-adv-x="1139" d="M41 412q0 130 41.5 244.5t126.5 213.5q67 80 172.5 127t218.5 47q192 0 304 -116.5t112 -319.5q0 -87 -20.5 -170.5t-59.5 -156.5q-78 -147 -202.5 -226.5t-276.5 -79.5q-188 0 -302 119.5t-114 317.5zM180 428q0 -153 80 -245.5t213 -92.5q71 0 135 28.5t115 82.5 q73 78 113.5 183.5t40.5 221.5q0 153 -78 241.5t-211 88.5q-64 0 -124.5 -25t-113.5 -73q-81 -75 -125.5 -182t-44.5 -228zM355 1206q36 101 78.5 143t107.5 42q17 0 31 -2t26 -7l92 -26q26 -8 37.5 -10t20.5 -3q34 0 56 17.5t36 54.5h80q-36 -99 -79.5 -140.5t-108.5 -41.5 q-13 0 -27 2.5t-41 9.5l-94 29q-11 3 -23 4.5t-22 1.5q-31 0 -54 -18.5t-36 -55.5h-80z" />
<glyph unicode="&#xf6;" horiz-adv-x="1139" d="M41 412q0 130 41.5 244.5t126.5 213.5q67 80 172.5 127t218.5 47q192 0 304 -116.5t112 -319.5q0 -87 -20.5 -170.5t-59.5 -156.5q-78 -147 -202.5 -226.5t-276.5 -79.5q-188 0 -302 119.5t-114 317.5zM180 428q0 -153 80 -245.5t213 -92.5q71 0 135 28.5t115 82.5 q73 78 113.5 183.5t40.5 221.5q0 153 -78 241.5t-211 88.5q-64 0 -124.5 -25t-113.5 -73q-81 -75 -125.5 -182t-44.5 -228zM390 1233l34 162h142l-35 -162h-141zM711 1233l35 162h141l-35 -162h-141z" />
<glyph unicode="&#xf7;" horiz-adv-x="1706" d="M254 569v82h1198v-82h-1198zM756 264q0 41 29 71t69 30q41 0 69.5 -29.5t28.5 -71.5q0 -40 -28.5 -69t-69.5 -29t-69.5 28.5t-28.5 69.5zM756 956q0 41 28.5 70t69.5 29t69.5 -28.5t28.5 -70.5q0 -40 -28.5 -70t-69.5 -30t-69.5 29.5t-28.5 70.5z" />
<glyph unicode="&#xf8;" horiz-adv-x="1139" d="M41 414q0 129 42 243t126 213q67 80 172.5 127t218.5 47q60 0 115.5 -13.5t107.5 -41.5l119 164l64 -51l-117 -164q64 -62 95.5 -144t31.5 -186q0 -86 -20.5 -170t-59.5 -157q-78 -148 -203 -227t-280 -79q-64 0 -117 14.5t-98 43.5l-123 -162l-66 51l121 158 q-65 71 -97 154t-32 180zM168 432q0 -72 17 -132.5t53 -113.5l522 709q-31 23 -73.5 35t-94.5 12q-100 0 -178.5 -44t-141.5 -136q-51 -75 -77.5 -158t-26.5 -172zM301 127q34 -25 75 -37t91 -12q79 0 146 28t118 82q77 82 118.5 191.5t41.5 230.5q0 66 -17 122.5t-51 105.5 z" />
<glyph unicode="&#xf9;" horiz-adv-x="1139" d="M78 281q0 35 5 77t15 95l119 567h131l-123 -578q-7 -34 -10.5 -69.5t-3.5 -69.5q0 -101 56 -156t159 -55q131 0 228.5 106t138.5 294l112 528h131l-219 -1020h-121l39 172q-67 -97 -154.5 -147t-191.5 -50q-141 0 -226 83.5t-85 222.5zM387 1503h147l224 -348h-90z" />
<glyph unicode="&#xfa;" horiz-adv-x="1139" d="M78 281q0 35 5 77t15 95l119 567h131l-123 -578q-7 -34 -10.5 -69.5t-3.5 -69.5q0 -101 56 -156t159 -55q131 0 228.5 106t138.5 294l112 528h131l-219 -1020h-121l39 172q-67 -97 -154.5 -147t-191.5 -50q-141 0 -226 83.5t-85 222.5zM510 1155l246 348h145l-299 -348 h-92z" />
<glyph unicode="&#xfb;" horiz-adv-x="1139" d="M78 281q0 35 5 77t15 95l119 567h131l-123 -578q-7 -34 -10.5 -69.5t-3.5 -69.5q0 -101 56 -156t159 -55q131 0 228.5 106t138.5 294l112 528h131l-219 -1020h-121l39 172q-67 -97 -154.5 -147t-191.5 -50q-141 0 -226 83.5t-85 222.5zM358 1155l266 348h134l153 -348 h-80l-147 248l-234 -248h-92z" />
<glyph unicode="&#xfc;" horiz-adv-x="1139" d="M78 281q0 35 5 77t15 95l119 567h131l-123 -578q-7 -34 -10.5 -69.5t-3.5 -69.5q0 -101 56 -156t159 -55q131 0 228.5 106t138.5 294l112 528h131l-219 -1020h-121l39 172q-67 -97 -154.5 -147t-191.5 -50q-141 0 -226 83.5t-85 222.5zM414 1233l34 162h142l-35 -162 h-141zM735 1233l35 162h141l-35 -162h-141z" />
<glyph unicode="&#xfd;" horiz-adv-x="901" d="M-178 -426l31 111q29 -9 50 -13t38 -4q64 0 109.5 33.5t92.5 120.5l82 149l-141 1053h125l113 -909l477 909h141l-676 -1227q-73 -133 -146.5 -188t-172.5 -55q-26 0 -56 4.5t-67 15.5zM443 1155l246 348h145l-299 -348h-92z" />
<glyph unicode="&#xfe;" horiz-adv-x="1165" d="M-61 -428l413 1954h131l-145 -670q70 93 157.5 140.5t188.5 47.5q171 0 265.5 -111t94.5 -312q0 -134 -48 -266.5t-130 -223.5q-67 -75 -148.5 -113t-172.5 -38q-130 0 -215 57t-125 170l-135 -635h-131zM264 408q0 -141 72.5 -227.5t189.5 -86.5q159 0 269 156.5 t110 388.5q0 137 -67 216t-183 79q-84 0 -161 -49.5t-138 -143.5q-43 -66 -67.5 -155t-24.5 -178z" />
<glyph unicode="&#xff;" horiz-adv-x="901" d="M-178 -426l31 111q29 -9 50 -13t38 -4q64 0 109.5 33.5t92.5 120.5l82 149l-141 1053h125l113 -909l477 909h141l-676 -1227q-73 -133 -146.5 -188t-172.5 -55q-26 0 -56 4.5t-67 15.5zM347 1233l34 162h142l-35 -162h-141zM668 1233l35 162h141l-35 -162h-141z" />
<glyph unicode="&#x152;" horiz-adv-x="1802" d="M100 621q0 206 85 380.5t239 286.5q92 66 211 99.5t260 33.5h164h82h667l-24 -116h-563l-105 -498h531l-23 -125h-534l-121 -563h592l-25 -119h-635q-15 0 -95 -6t-144 -6q-256 0 -409 171.5t-153 461.5zM240 616q0 -227 128 -367t337 -140q35 0 68.5 3.5t63.5 10.5 l244 1182h-77h-86q-316 0 -497 -184t-181 -505z" />
<glyph unicode="&#x153;" horiz-adv-x="1831" d="M41 412q0 130 41.5 244.5t126.5 213.5q68 81 174 127.5t221 46.5q123 0 214 -52.5t151 -157.5q74 105 172.5 157.5t222.5 52.5q169 0 267 -103.5t98 -283.5q0 -41 -6.5 -82.5t-18.5 -87.5h-725q-1 -4 -2 -13q-6 -55 -6 -77q0 -146 81.5 -226.5t231.5 -80.5q70 0 138 17.5 t137 52.5l-7 -127q-70 -29 -140.5 -43.5t-141.5 -14.5q-139 0 -237 55.5t-152 164.5q-92 -112 -193 -166t-219 -54q-195 0 -311.5 118.5t-116.5 318.5zM180 428q0 -153 80 -245.5t213 -92.5q71 0 135 28.5t115 82.5q73 78 113.5 183.5t40.5 221.5q0 153 -78 242.5t-211 89.5 q-63 0 -123.5 -25.5t-114.5 -74.5q-81 -75 -125.5 -182t-44.5 -228zM993 590h604q4 21 5.5 39.5t1.5 36.5q0 128 -65 200t-179 72q-127 0 -229.5 -96t-137.5 -252z" />
<glyph unicode="&#x178;" horiz-adv-x="1247" d="M170 1421h147l297 -704l600 704h158l-708 -817l-123 -604h-138l129 612zM555 1612l34 162h142l-35 -162h-141zM876 1612l35 162h141l-35 -162h-141z" />
<glyph unicode="&#x2c6;" d="M352 1155l266 348h134l153 -348h-80l-147 248l-234 -248h-92z" />
<glyph unicode="&#x2dc;" d="M373 1206q36 101 78.5 143t107.5 42q17 0 31 -2t26 -7l92 -26q26 -8 37.5 -10t20.5 -3q34 0 56 17.5t36 54.5h80q-36 -99 -79.5 -140.5t-108.5 -41.5q-13 0 -27 2.5t-41 9.5l-94 29q-11 3 -23 4.5t-22 1.5q-31 0 -54 -18.5t-36 -55.5h-80z" />
<glyph unicode="&#x2000;" horiz-adv-x="986" />
<glyph unicode="&#x2001;" horiz-adv-x="1972" />
<glyph unicode="&#x2002;" horiz-adv-x="986" />
<glyph unicode="&#x2003;" horiz-adv-x="1972" />
<glyph unicode="&#x2004;" horiz-adv-x="657" />
<glyph unicode="&#x2005;" horiz-adv-x="493" />
<glyph unicode="&#x2006;" horiz-adv-x="328" />
<glyph unicode="&#x2007;" horiz-adv-x="328" />
<glyph unicode="&#x2008;" horiz-adv-x="246" />
<glyph unicode="&#x2009;" horiz-adv-x="394" />
<glyph unicode="&#x200a;" horiz-adv-x="109" />
<glyph unicode="&#x2010;" horiz-adv-x="678" d="M39 506l22 108h504l-22 -108h-504z" />
<glyph unicode="&#x2011;" horiz-adv-x="678" d="M39 506l22 108h504l-22 -108h-504z" />
<glyph unicode="&#x2012;" horiz-adv-x="678" d="M39 506l22 108h504l-22 -108h-504z" />
<glyph unicode="&#x2013;" d="M-39 506l19 86h1024l-19 -86h-1024z" />
<glyph unicode="&#x2014;" horiz-adv-x="2048" d="M-39 506l19 86h2048l-19 -86h-2048z" />
<glyph unicode="&#x2018;" horiz-adv-x="569" d="M205 1081l244 443h124l-204 -443h-164z" />
<glyph unicode="&#x2019;" horiz-adv-x="569" d="M233 1087l203 443h164l-244 -443h-123z" />
<glyph unicode="&#x201a;" horiz-adv-x="569" d="M-94 -270l205 440h163l-243 -440h-125z" />
<glyph unicode="&#x201c;" horiz-adv-x="901" d="M205 1081l244 443h124l-204 -443h-164zM545 1081l243 443h123l-202 -443h-164z" />
<glyph unicode="&#x201d;" horiz-adv-x="901" d="M233 1087l203 443h164l-244 -443h-123zM571 1087l205 443h164l-244 -443h-125z" />
<glyph unicode="&#x201e;" horiz-adv-x="901" d="M-92 -270l205 440h163l-243 -440h-125zM248 -270l203 440h165l-245 -440h-123z" />
<glyph unicode="&#x2022;" horiz-adv-x="1208" d="M307 762q0 123 87 209t210 86q122 0 208.5 -86.5t86.5 -208.5t-87.5 -209.5t-209.5 -87.5q-123 0 -209 87t-86 210z" />
<glyph unicode="&#x2026;" horiz-adv-x="2048" d="M121 0l36 170h160l-37 -170h-159zM803 0l36 170h160l-37 -170h-159zM1487 0l36 170h160l-37 -170h-159z" />
<glyph unicode="&#x202f;" horiz-adv-x="394" />
<glyph unicode="&#x2039;" horiz-adv-x="688" d="M90 512l377 418h139l-391 -422l301 -420h-121z" />
<glyph unicode="&#x203a;" horiz-adv-x="688" d="M-6 88l391 422l-301 418h121l303 -422l-375 -418h-139z" />
<glyph unicode="&#x205f;" horiz-adv-x="493" />
<glyph unicode="&#x20ac;" horiz-adv-x="1147" d="M0 551l43 102h141q4 63 10 107.5t14 83.5h-147l43 102h132q73 228 232.5 362t360.5 134q80 0 160 -17.5t162 -52.5l-31 -127q-74 43 -142 63.5t-134 20.5q-158 0 -276.5 -98.5t-186.5 -284.5h592l-43 -102h-578q-10 -46 -16.5 -94t-7.5 -96l555 -1l-43 -102h-510 q13 -212 107.5 -332.5t250.5 -120.5q48 0 107.5 14t136.5 44l-10 -133q-66 -23 -125 -34.5t-115 -11.5q-221 0 -352 152t-144 422h-186z" />
<glyph unicode="&#x2122;" horiz-adv-x="1706" d="M274 1403v51h420v-51h-174v-479h-67v479h-179zM825 924v530h101l174 -440l162 440h102v-530h-59v479l-181 -479h-49l-190 479v-479h-60z" />
<glyph unicode="&#x25fc;" horiz-adv-x="1025" d="M0 0v1025h1025v-1025h-1025z" />
</font>
</defs>
</svg>
